<?xml version="1.0" encoding="UTF-8" standalone="no"?>
<!-- Created with Inkscape (http://www.inkscape.org/) -->

<svg
   xmlns:dc="http://purl.org/dc/elements/1.1/"
   xmlns:cc="http://creativecommons.org/ns#"
   xmlns:rdf="http://www.w3.org/1999/02/22-rdf-syntax-ns#"
   xmlns:svg="http://www.w3.org/2000/svg"
   xmlns="http://www.w3.org/2000/svg"
   xmlns:sodipodi="http://sodipodi.sourceforge.net/DTD/sodipodi-0.dtd"
   xmlns:inkscape="http://www.inkscape.org/namespaces/inkscape"
   width="180"
   height="180"
   viewBox="0 0 47.624999 47.624995"
   version="1.1"
   id="svg8"
   inkscape:version="0.92.2 2405546, 2018-03-11"
   sodipodi:docname="logo_inverted.svg">
  <defs
     id="defs2">
    <inkscape:path-effect
       is_visible="true"
       id="path-effect1197"
       effect="spiro" />
    <inkscape:path-effect
       effect="spiro"
       id="path-effect1193"
       is_visible="true" />
    <inkscape:path-effect
       is_visible="true"
       id="path-effect1189"
       effect="spiro" />
    <inkscape:path-effect
       is_visible="true"
       id="path-effect1185"
       effect="spiro" />
    <inkscape:path-effect
       is_visible="true"
       id="path-effect1181"
       effect="spiro" />
    <inkscape:path-effect
       is_visible="true"
       id="path-effect1175"
       effect="spiro" />
    <inkscape:path-effect
       is_visible="true"
       id="path-effect1163"
       effect="spiro" />
    <inkscape:path-effect
       effect="spiro"
       id="path-effect1159"
       is_visible="true" />
    <inkscape:path-effect
       is_visible="true"
       id="path-effect1155"
       effect="spiro" />
    <inkscape:path-effect
       is_visible="true"
       id="path-effect1151"
       effect="spiro" />
    <inkscape:path-effect
       is_visible="true"
       id="path-effect1147"
       effect="spiro" />
    <inkscape:path-effect
       is_visible="true"
       id="path-effect1141"
       effect="spiro" />
    <inkscape:path-effect
       effect="spiro"
       id="path-effect1801"
       is_visible="true" />
    <inkscape:path-effect
       is_visible="true"
       id="path-effect1797"
       effect="spiro" />
    <inkscape:path-effect
       is_visible="true"
       id="path-effect1793"
       effect="spiro" />
    <inkscape:path-effect
       effect="spiro"
       id="path-effect1789"
       is_visible="true" />
    <inkscape:path-effect
       effect="spiro"
       id="path-effect1777"
       is_visible="true" />
    <inkscape:path-effect
       effect="spiro"
       id="path-effect1773"
       is_visible="true" />
    <inkscape:path-effect
       effect="spiro"
       id="path-effect1769"
       is_visible="true" />
    <inkscape:path-effect
       effect="spiro"
       id="path-effect1765"
       is_visible="true" />
    <inkscape:path-effect
       effect="spiro"
       id="path-effect1761"
       is_visible="true" />
    <inkscape:path-effect
       effect="spiro"
       id="path-effect1641"
       is_visible="true" />
    <inkscape:path-effect
       is_visible="true"
       id="path-effect1637"
       effect="spiro" />
    <inkscape:path-effect
       effect="spiro"
       id="path-effect1633"
       is_visible="true" />
    <inkscape:path-effect
       effect="spiro"
       id="path-effect1625"
       is_visible="true" />
    <inkscape:path-effect
       effect="spiro"
       id="path-effect1621"
       is_visible="true" />
    <inkscape:path-effect
       effect="spiro"
       id="path-effect1615"
       is_visible="true" />
    <inkscape:path-effect
       is_visible="true"
       id="path-effect1607"
       effect="spiro" />
    <inkscape:path-effect
       is_visible="true"
       id="path-effect1601"
       effect="spiro" />
    <inkscape:path-effect
       is_visible="true"
       id="path-effect1595"
       effect="spiro" />
    <inkscape:path-effect
       effect="spiro"
       id="path-effect1591"
       is_visible="true" />
    <inkscape:path-effect
       effect="spiro"
       id="path-effect1585"
       is_visible="true" />
    <inkscape:path-effect
       effect="spiro"
       id="path-effect1579"
       is_visible="true" />
    <inkscape:perspective
       id="perspective2447"
       inkscape:persp3d-origin="372.04726 : 350.78736 : 1"
       inkscape:vp_z="744.09453 : 526.18105 : 1"
       inkscape:vp_y="0 : 999.99994 : 0"
       inkscape:vp_x="0 : 526.18105 : 1"
       sodipodi:type="inkscape:persp3d" />
  </defs>
  <sodipodi:namedview
     id="base"
     pagecolor="#ffffff"
     bordercolor="#666666"
     borderopacity="1.0"
     inkscape:pageopacity="0.0"
     inkscape:pageshadow="2"
     inkscape:zoom="1.4142136"
     inkscape:cx="-30.523731"
     inkscape:cy="138.24403"
     inkscape:document-units="mm"
     inkscape:current-layer="layer1"
     showgrid="false"
     inkscape:snap-global="false"
     inkscape:window-width="2556"
     inkscape:window-height="1416"
     inkscape:window-x="0"
     inkscape:window-y="20"
     inkscape:window-maximized="1"
     units="px"
     showguides="true"
     inkscape:guide-bbox="true">
    <sodipodi:guide
       position="75.583821,41.346592"
       orientation="0,1"
       id="guide4625"
       inkscape:locked="false" />
    <sodipodi:guide
       position="80.635215,6.3610141"
       orientation="0,1"
       id="guide4627"
       inkscape:locked="false" />
    <sodipodi:guide
       position="6.9222806,55.004063"
       orientation="1,0"
       id="guide4629"
       inkscape:locked="false" />
    <sodipodi:guide
       position="39.849886,62.113432"
       orientation="1,0"
       id="guide4631"
       inkscape:locked="false" />
  </sodipodi:namedview>
  <metadata
     id="metadata5">
    <rdf:RDF>
      <cc:Work
         rdf:about="">
        <dc:format>image/svg+xml</dc:format>
        <dc:type
           rdf:resource="http://purl.org/dc/dcmitype/StillImage" />
        <dc:title></dc:title>
      </cc:Work>
    </rdf:RDF>
  </metadata>
  <g
     inkscape:label="Layer 1"
     inkscape:groupmode="layer"
     id="layer1"
     transform="translate(293.37547,-156.47805)">
    <rect
       style="color:#000000;clip-rule:nonzero;display:inline;overflow:visible;visibility:visible;opacity:1;isolation:auto;mix-blend-mode:normal;color-interpolation:sRGB;color-interpolation-filters:linearRGB;solid-color:#000000;solid-opacity:1;fill:#2b90d9;fill-opacity:1;fill-rule:evenodd;stroke:none;stroke-width:0;stroke-linecap:butt;stroke-linejoin:bevel;stroke-miterlimit:4;stroke-dasharray:none;stroke-dashoffset:0;stroke-opacity:1;color-rendering:auto;image-rendering:auto;shape-rendering:auto;text-rendering:auto;enable-background:accumulate"
       id="rect4552"
       width="47.625"
       height="47.625"
       x="-293.37546"
       y="156.47803" />
    <g
       id="g4558"
       transform="matrix(0.13195002,0,0,0.13195002,-247.13429,170.81504)">
      <path
         id="path1225"
         d="m -51.826204,98.13461 c -3.629343,18.66404 -32.49305,39.08999 -65.644386,43.0486 -17.28694,2.06288 -34.30731,3.95848 -52.45652,3.12624 -29.68177,-1.35996 -53.10272,-7.08473 -53.10272,-7.08473 0,2.88971 0.16687,5.64071 0.53398,8.21375 3.85878,29.29255 29.046,31.04732 52.90456,31.86555 24.0809,0.8239 45.52322,-5.93719 45.52322,-5.93719 l 0.98868,21.77017 c 0,0 -16.8439,9.04483 -46.84897,10.70836 -16.54605,0.90942 -37.09022,-0.41717 -61.01844,-6.74974 -51.89669,-13.73607 -60.82195,-69.05535 -62.18733,-125.185725 -0.41717,-16.665526 -0.16687,-32.380206 -0.16687,-45.523267 0,-57.396226 37.60625,-74.219941 37.60625,-74.219941 18.96186,-8.708379 51.49871,-12.37047 85.32419,-12.647009 h 0.83016 c 33.82548,0.275329 66.38402,3.938463 85.34421,12.647009 0,0 37.605,16.823715 37.605,74.219941 0,0 0.471398,42.347258 -5.244609,71.748107"
         inkscape:connector-curvature="0"
         style="fill:#ffffff;fill-opacity:1;stroke-width:1.14039803" />
      <path
         style="color:#000000;font-style:normal;font-variant:normal;font-weight:normal;font-stretch:normal;font-size:medium;line-height:normal;font-family:sans-serif;font-variant-ligatures:normal;font-variant-position:normal;font-variant-caps:normal;font-variant-numeric:normal;font-variant-alternates:normal;font-feature-settings:normal;text-indent:0;text-align:start;text-decoration:none;text-decoration-line:none;text-decoration-style:solid;text-decoration-color:#000000;letter-spacing:normal;word-spacing:normal;text-transform:none;writing-mode:lr-tb;direction:ltr;text-orientation:mixed;dominant-baseline:auto;baseline-shift:baseline;text-anchor:start;white-space:normal;shape-padding:0;clip-rule:nonzero;display:inline;overflow:visible;visibility:visible;opacity:1;isolation:auto;mix-blend-mode:normal;color-interpolation:sRGB;color-interpolation-filters:linearRGB;solid-color:#000000;solid-opacity:1;vector-effect:none;fill:#2b90d9;fill-opacity:1;fill-rule:nonzero;stroke:none;stroke-width:4.14481592px;stroke-linecap:butt;stroke-linejoin:miter;stroke-miterlimit:1.5;stroke-dasharray:none;stroke-dashoffset:0;stroke-opacity:1;color-rendering:auto;image-rendering:auto;shape-rendering:auto;text-rendering:auto;enable-background:accumulate"
         d="m -117.22809,-29.390243 c -7.25372,0.0584 -14.5082,0.795118 -21.59468,2.364496 -15.31553,3.324812 -29.74993,10.115772 -42.58575,19.0399093 -7.23049,5.0125399 -13.97685,10.7014726 -20.29579,16.817458 -1.5481,0.4709803 -3.23762,0.4972617 -4.8309,0.8889805 -9.66924,1.8864242 -18.87692,5.5626152 -27.81458,9.6230992 -12.26588,5.645422 -24.00885,12.363211 -35.45251,19.5131 -3.70151,2.330289 -7.36047,4.727949 -10.96887,7.199866 -1.88351,0.836835 -1.36372,3.422011 -0.12098,4.595875 1.14345,1.647805 1.79423,3.784945 3.39948,5.026973 1.6403,0.580278 3.0207,-0.846846 4.42718,-1.452571 8.45036,-4.408651 17.16583,-8.36476 26.2298,-11.340821 4.54415,-1.44256 9.22813,-2.65693 14.01715,-2.7996 2.47087,-0.02395 5.18687,0.304531 7.05886,2.084995 0.98201,0.91109 1.70496,2.123374 2.10961,3.37654 -3.08744,1.925638 -6.20597,3.806222 -9.25787,5.790388 -12.09426,7.747229 -23.822,16.058132 -35.24801,24.758252 -2.02576,1.094226 -1.98529,3.806221 -0.92319,5.563949 0.54273,2.096676 1.40585,5.125509 4.11951,4.986843 2.33154,-0.423006 4.25935,-1.991133 6.42315,-2.89388 13.26178,-6.696555 26.48986,-13.462818 39.58262,-20.485222 1.609,0.254471 3.22677,-0.06257 4.82827,-0.216926 2.81087,3.031127 5.7604,5.992671 7.96382,9.515262 1.14554,1.751262 1.01163,3.941383 0.59238,5.897807 -0.60155,2.672365 -1.86348,5.132851 -3.11373,7.548825 -1.7742,3.023201 -4.18884,5.626316 -6.89642,7.836169 -7.06558,5.956044 -14.88393,10.943306 -22.85393,15.589526 -1.2177,0.72254 -2.48339,1.36747 -3.68899,2.10669 -1.56479,1.43255 -0.0258,3.42452 0.7025,4.84363 0.81014,1.38708 1.20436,3.58763 2.97273,4.00146 1.86765,-0.0212 3.43244,-1.2928 5.16071,-1.87183 12.21016,-5.42144 24.14394,-11.48453 35.63515,-18.3029 7.62362,-4.555158 14.95773,-9.598735 21.88389,-15.159598 3.0182,-2.380349 6.06313,-4.790191 8.48687,-7.801503 1.25775,-1.581058 2.52468,-3.213428 3.29602,-5.096181 0.14184,-1.134274 1.62069,-1.004118 2.43083,-1.478853 5.2895,-1.771704 10.44375,-3.912182 15.59637,-6.040729 15.57234,-6.087785 30.21687,-14.929449 42.06213,-26.807704 7.492547,-7.485458 13.817991,-16.13314 18.673385,-25.546237 4.387542,-8.1388646 7.813391,-16.898889 9.177357,-26.080209 0.09595,-2.052039 0.897741,-4.338692 -0.20024,-6.244431 -1.634873,-1.494288 -3.91385,-1.91062 -5.843284,-2.901806 -10.656836,-4.204698 -22.115298,-6.245599 -33.552488,-6.435951 -0.52813,-0.0083 -1.0596,-0.01143 -1.58523,-0.01277 z"
         id="path1270"
         inkscape:connector-curvature="0" />
    </g>
  </g>
</svg>
