<?xml version="1.0" encoding="UTF-8" standalone="no"?>
<!-- Created with Inkscape (http://www.inkscape.org/) -->

<svg
   xmlns:dc="http://purl.org/dc/elements/1.1/"
   xmlns:cc="http://creativecommons.org/ns#"
   xmlns:rdf="http://www.w3.org/1999/02/22-rdf-syntax-ns#"
   xmlns:svg="http://www.w3.org/2000/svg"
   xmlns="http://www.w3.org/2000/svg"
   xmlns:sodipodi="http://sodipodi.sourceforge.net/DTD/sodipodi-0.dtd"
   xmlns:inkscape="http://www.inkscape.org/namespaces/inkscape"
   width="246.79373mm"
   height="264.58334mm"
   viewBox="0 0 246.79373 264.58334"
   version="1.1"
   id="svg8"
   inkscape:version="0.92.2 5c3e80d, 2017-08-06"
   sodipodi:docname="chaos-social-favicon.svg">
  <defs
     id="defs2">
    <inkscape:path-effect
       is_visible="true"
       id="path-effect1197"
       effect="spiro" />
    <inkscape:path-effect
       effect="spiro"
       id="path-effect1193"
       is_visible="true" />
    <inkscape:path-effect
       is_visible="true"
       id="path-effect1189"
       effect="spiro" />
    <inkscape:path-effect
       is_visible="true"
       id="path-effect1185"
       effect="spiro" />
    <inkscape:path-effect
       is_visible="true"
       id="path-effect1181"
       effect="spiro" />
    <inkscape:path-effect
       is_visible="true"
       id="path-effect1175"
       effect="spiro" />
    <inkscape:path-effect
       is_visible="true"
       id="path-effect1163"
       effect="spiro" />
    <inkscape:path-effect
       effect="spiro"
       id="path-effect1159"
       is_visible="true" />
    <inkscape:path-effect
       is_visible="true"
       id="path-effect1155"
       effect="spiro" />
    <inkscape:path-effect
       is_visible="true"
       id="path-effect1151"
       effect="spiro" />
    <inkscape:path-effect
       is_visible="true"
       id="path-effect1147"
       effect="spiro" />
    <inkscape:path-effect
       is_visible="true"
       id="path-effect1141"
       effect="spiro" />
    <inkscape:path-effect
       effect="spiro"
       id="path-effect1801"
       is_visible="true" />
    <inkscape:path-effect
       is_visible="true"
       id="path-effect1797"
       effect="spiro" />
    <inkscape:path-effect
       is_visible="true"
       id="path-effect1793"
       effect="spiro" />
    <inkscape:path-effect
       effect="spiro"
       id="path-effect1789"
       is_visible="true" />
    <inkscape:path-effect
       effect="spiro"
       id="path-effect1777"
       is_visible="true" />
    <inkscape:path-effect
       effect="spiro"
       id="path-effect1773"
       is_visible="true" />
    <inkscape:path-effect
       effect="spiro"
       id="path-effect1769"
       is_visible="true" />
    <inkscape:path-effect
       effect="spiro"
       id="path-effect1765"
       is_visible="true" />
    <inkscape:path-effect
       effect="spiro"
       id="path-effect1761"
       is_visible="true" />
    <inkscape:path-effect
       effect="spiro"
       id="path-effect1641"
       is_visible="true" />
    <inkscape:path-effect
       is_visible="true"
       id="path-effect1637"
       effect="spiro" />
    <inkscape:path-effect
       effect="spiro"
       id="path-effect1633"
       is_visible="true" />
    <inkscape:path-effect
       effect="spiro"
       id="path-effect1625"
       is_visible="true" />
    <inkscape:path-effect
       effect="spiro"
       id="path-effect1621"
       is_visible="true" />
    <inkscape:path-effect
       effect="spiro"
       id="path-effect1615"
       is_visible="true" />
    <inkscape:path-effect
       is_visible="true"
       id="path-effect1607"
       effect="spiro" />
    <inkscape:path-effect
       is_visible="true"
       id="path-effect1601"
       effect="spiro" />
    <inkscape:path-effect
       is_visible="true"
       id="path-effect1595"
       effect="spiro" />
    <inkscape:path-effect
       effect="spiro"
       id="path-effect1591"
       is_visible="true" />
    <inkscape:path-effect
       effect="spiro"
       id="path-effect1585"
       is_visible="true" />
    <inkscape:path-effect
       effect="spiro"
       id="path-effect1579"
       is_visible="true" />
    <inkscape:perspective
       id="perspective2447"
       inkscape:persp3d-origin="372.04726 : 350.78739 : 1"
       inkscape:vp_z="744.09452 : 526.18109 : 1"
       inkscape:vp_y="0 : 1000 : 0"
       inkscape:vp_x="0 : 526.18109 : 1"
       sodipodi:type="inkscape:persp3d" />
  </defs>
  <sodipodi:namedview
     id="base"
     pagecolor="#ffffff"
     bordercolor="#666666"
     borderopacity="1.0"
     inkscape:pageopacity="0.0"
     inkscape:pageshadow="2"
     inkscape:zoom="0.125"
     inkscape:cx="-1161.1109"
     inkscape:cy="1423.3104"
     inkscape:document-units="mm"
     inkscape:current-layer="layer1"
     showgrid="false"
     inkscape:snap-global="false"
     inkscape:window-width="2556"
     inkscape:window-height="1369"
     inkscape:window-x="0"
     inkscape:window-y="32"
     inkscape:window-maximized="0" />
  <metadata
     id="metadata5">
    <rdf:RDF>
      <cc:Work
         rdf:about="">
        <dc:format>image/svg+xml</dc:format>
        <dc:type
           rdf:resource="http://purl.org/dc/dcmitype/StillImage" />
        <dc:title></dc:title>
      </cc:Work>
    </rdf:RDF>
  </metadata>
  <g
     inkscape:label="Layer 1"
     inkscape:groupmode="layer"
     id="layer1"
     transform="translate(293.37547,60.480322)">
    <g
       id="g1286"
       transform="matrix(41.716587,0,0,41.716587,-1007.4455,-3310.384)">
      <path
         id="path1225"
         d="m 22.907418,81.706555 c -0.087,0.447401 -0.7789,0.937037 -1.57358,1.03193 -0.41439,0.04945 -0.82239,0.09489 -1.25745,0.07494 -0.71151,-0.0326 -1.27294,-0.16983 -1.27294,-0.16983 0,0.06927 0.004,0.135215 0.0128,0.196894 0.0925,0.70218 0.69627,0.744244 1.26819,0.763858 0.57725,0.01975 1.09125,-0.142322 1.09125,-0.142322 l 0.0237,0.521859 c 0,0 -0.40377,0.216816 -1.12303,0.256693 -0.39663,0.0218 -0.8891,-0.01 -1.46269,-0.1618 -1.24403,-0.329271 -1.45798,-1.655345 -1.49071,-3.000862 -0.01,-0.399494 -0.004,-0.776195 -0.004,-1.091251 0,-1.375861 0.90147,-1.779147 0.90147,-1.779147 0.45454,-0.208751 1.23449,-0.296536 2.04533,-0.303165 h 0.0199 c 0.81084,0.0066 1.59131,0.09441 2.04581,0.303165 0,0 0.90144,0.403286 0.90144,1.779147 0,0 0.0113,1.015118 -0.12572,1.719894"
         inkscape:connector-curvature="0"
         style="fill:#2b90d9;stroke-width:0.0273368" />
      <path
         style="color:#000000;font-style:normal;font-variant:normal;font-weight:normal;font-stretch:normal;font-size:medium;line-height:normal;font-family:sans-serif;font-variant-ligatures:normal;font-variant-position:normal;font-variant-caps:normal;font-variant-numeric:normal;font-variant-alternates:normal;font-feature-settings:normal;text-indent:0;text-align:start;text-decoration:none;text-decoration-line:none;text-decoration-style:solid;text-decoration-color:#000000;letter-spacing:normal;word-spacing:normal;text-transform:none;writing-mode:lr-tb;direction:ltr;text-orientation:mixed;dominant-baseline:auto;baseline-shift:baseline;text-anchor:start;white-space:normal;shape-padding:0;clip-rule:nonzero;display:inline;overflow:visible;visibility:visible;opacity:1;isolation:auto;mix-blend-mode:normal;color-interpolation:sRGB;color-interpolation-filters:linearRGB;solid-color:#000000;solid-opacity:1;vector-effect:none;fill:#ffffff;fill-opacity:1;fill-rule:nonzero;stroke:none;stroke-width:0.09935655px;stroke-linecap:butt;stroke-linejoin:miter;stroke-miterlimit:1.5;stroke-dasharray:none;stroke-dashoffset:0;stroke-opacity:1;color-rendering:auto;image-rendering:auto;shape-rendering:auto;text-rendering:auto;enable-background:accumulate"
         d="m 21.339651,78.649621 c -0.173881,0.0014 -0.34778,0.01906 -0.517652,0.05668 -0.367133,0.0797 -0.713144,0.242488 -1.020835,0.456411 -0.173324,0.120157 -0.335043,0.256528 -0.486516,0.403136 -0.03711,0.01129 -0.07761,0.01192 -0.115803,0.02131 -0.231784,0.04522 -0.452504,0.133343 -0.666751,0.230678 -0.294029,0.135328 -0.575523,0.296362 -0.849842,0.467754 -0.08873,0.05586 -0.17644,0.113335 -0.262938,0.17259 -0.04515,0.02006 -0.03269,0.08203 -0.0029,0.110169 0.02741,0.0395 0.04301,0.09073 0.08149,0.120503 0.03932,0.01391 0.07241,-0.0203 0.106125,-0.03482 0.202566,-0.105681 0.411487,-0.200514 0.628762,-0.271854 0.108929,-0.03458 0.22121,-0.06369 0.336009,-0.06711 0.05923,-5.74e-4 0.124336,0.0073 0.16921,0.04998 0.02354,0.02184 0.04087,0.0509 0.05057,0.08094 -0.07401,0.04616 -0.148765,0.09124 -0.221923,0.138803 -0.289915,0.185711 -0.571044,0.384934 -0.84494,0.593487 -0.04856,0.02623 -0.04759,0.09124 -0.02213,0.133375 0.01301,0.05026 0.0337,0.122865 0.09875,0.119541 0.05589,-0.01014 0.102102,-0.04773 0.153971,-0.06937 0.317902,-0.160525 0.634996,-0.322721 0.948846,-0.491057 0.03857,0.0061 0.07735,-0.0015 0.11574,-0.0052 0.06738,0.07266 0.138084,0.143652 0.190903,0.228093 0.02746,0.04198 0.02425,0.09448 0.0142,0.141378 -0.01442,0.06406 -0.04467,0.123041 -0.07464,0.180955 -0.04253,0.07247 -0.100412,0.13487 -0.165316,0.187843 -0.169371,0.142774 -0.356787,0.262325 -0.547838,0.373701 -0.02919,0.01732 -0.05953,0.03278 -0.08843,0.0505 -0.03751,0.03434 -6.18e-4,0.08209 0.01684,0.116108 0.01942,0.03325 0.02887,0.086 0.07126,0.09592 0.04477,-5.08e-4 0.08228,-0.03099 0.123709,-0.04487 0.292693,-0.129959 0.578761,-0.275299 0.85422,-0.438744 0.182748,-0.109193 0.358556,-0.230094 0.524585,-0.363395 0.07235,-0.05706 0.145341,-0.114827 0.203441,-0.187012 0.03015,-0.0379 0.06052,-0.07703 0.07901,-0.122162 0.0034,-0.02719 0.03885,-0.02407 0.05827,-0.03545 0.126796,-0.04247 0.25035,-0.09378 0.373865,-0.144804 0.373289,-0.145932 0.724337,-0.357878 1.008283,-0.642615 0.179606,-0.179436 0.331235,-0.386732 0.447625,-0.612376 0.105175,-0.195099 0.187297,-0.405088 0.219993,-0.625176 0.0023,-0.04919 0.02152,-0.104004 -0.0048,-0.149687 -0.03919,-0.03582 -0.09382,-0.0458 -0.140071,-0.06956 -0.255458,-0.100792 -0.530132,-0.149715 -0.804296,-0.154278 -0.01266,-2e-4 -0.0254,-2.74e-4 -0.038,-3.06e-4 z"
         id="path1270"
         inkscape:connector-curvature="0" />
    </g>
  </g>
</svg>
