<?xml version="1.0" encoding="UTF-8" standalone="no"?>
<svg
   xmlns:dc="http://purl.org/dc/elements/1.1/"
   xmlns:cc="http://creativecommons.org/ns#"
   xmlns:rdf="http://www.w3.org/1999/02/22-rdf-syntax-ns#"
   xmlns:svg="http://www.w3.org/2000/svg"
   xmlns="http://www.w3.org/2000/svg"
   xmlns:sodipodi="http://sodipodi.sourceforge.net/DTD/sodipodi-0.dtd"
   xmlns:inkscape="http://www.inkscape.org/namespaces/inkscape"
   width="303.84"
   height="267.19"
   clip-rule="evenodd"
   fill-rule="evenodd"
   stroke-linecap="round"
   stroke-linejoin="round"
   stroke-miterlimit="1.5"
   version="1.1"
   viewBox="0 0 303.84 267.19"
   xml:space="preserve"
   id="svg895"
   sodipodi:docname="mastodon-hmd.svg"
   inkscape:version="0.92.4 5da689c313, 2019-01-14"><metadata
   id="metadata901"><rdf:RDF><cc:Work
       rdf:about=""><dc:format>image/svg+xml</dc:format><dc:type
         rdf:resource="http://purl.org/dc/dcmitype/StillImage" /><dc:title></dc:title></cc:Work></rdf:RDF></metadata><defs
   id="defs899">






</defs><sodipodi:namedview
   pagecolor="#ffffff"
   bordercolor="#666666"
   borderopacity="1"
   objecttolerance="10"
   gridtolerance="10"
   guidetolerance="10"
   inkscape:pageopacity="0"
   inkscape:pageshadow="2"
   inkscape:window-width="2556"
   inkscape:window-height="1414"
   id="namedview897"
   showgrid="false"
   inkscape:zoom="6.6449448"
   inkscape:cx="151.92"
   inkscape:cy="151.57494"
   inkscape:window-x="2560"
   inkscape:window-y="22"
   inkscape:window-maximized="0"
   inkscape:current-layer="g914" /><g
   id="mastodon"
   transform="translate(1.5485 32.078)"><path
     d="m-0.05 235.11 0.25-136.97c3.662-5.584 10.315-14.64 22.517-20.72-9.914-7.959-6.221-16.817 0.296-24.716 10.462-12.679 25.467-18.328 41.972-16.182-3.719-4.252-4.345-5.729-6.268-9.435 11.337-7.311 27.917 1.7 28.167 13.5-0.136-6.404-2.855-8.783-1.667-12.167 0.289-0.011 0.577-0.052 0.858-0.018 17.264 2.078 26.303 18.554 17.142 28.351 33.605 3.604 59.756 52.679 95.675 52.586 37.871-0.099 62.192-36.921 35.992-66.752 6.067-7.321 13.278-0.917 17.667 1.833 2.75-2.482 4.25-4.389 10.666-6.333 5.917 6.222-2.963 13.342-0.833 18.833 6.393 16.481 6.361 50.928-16.368 73.137-14.105 13.782-37.142 23.22-73.465 17.696-16.123-2.452-22.891 11.917-36.192 29.058-15.251 19.656-17.901 41.707-16.995 58.174z"
     fill="#56606b"
     id="path815" /><g
     fill="#3a434e"
     id="g823"><path
       d="m257.38 114.78c0.592-1.223-3.029-0.751-4 0.2-10.167 9.967-19.536 19.144-34.2 22.4-14.335 3.184-33.1 2.867-47.4 1.4-9.93-1.018-24.681 4.919-28.8 15l6.8 5.8c2.533-4.849 8.314-11.459 14.4-11.8 11.933-0.666 39.167 3.667 54.8-1.8 15.568-5.443 31.267-16.466 38.4-31.2z"
       id="path817" /><path
       d="m107.98 167.39c5.488 10.128 11.618 18.64 18.6 25l9.6-16.8z"
       id="path819" /><path
       d="m22.975 76.978c-5.43-4.965-11.864-9.557-2.6-20 0 0 6.25 9.293 12.2 5.2 14.257-9.806 18.61-14.051 33.6-15 10.62-0.672 26.565 3.652 28.4 10.6 2.149 8.138-8.933 11.667-15.4 15.6-6.131 3.73-13.2 8.034-19 10.4-4.952 2.021-14.8 5-14.8 5l-4-2-10 13.8-17.8-7.2-5.4-5.2z"
       id="path821" /></g><path
     d="m103.38 55.375c0.031 4e-3 0.063 6e-3 0.093 0.012 0.093 0.016 0.183 0.048 0.266 0.093 0.34 0.182 0.528 0.573 0.46 0.953-0.023 0.123-0.071 0.242-0.142 0.346-0.018 0.026-0.038 0.05-0.057 0.075-0.155 0.183 1.259 1.058 1.102 1.239-0.67 0.194-0.923-0.127-2.229 0.338-1.556 0.554-3.048 2.689-4.338 3.72-1.363 1.088-2.794 2.091-4.283 2.997-2.466 1.499-5.101 2.746-7.865 3.586-2.049 0.622-4.181 1.021-6.326 1.043-0.561 6e-3 -1.121-0.015-1.679-0.065-0.138-0.012-0.275-0.026-0.413-0.042-0.128-0.015-0.26-0.025-0.383-0.067-0.301-0.104-0.529-0.367-0.59-0.679-0.018-0.093 0.182-0.559 0.572-0.626 0.448-0.078 4.628-0.144 5.858-0.381 1.554-0.298 3.26-0.735 4.733-1.31 2.455-0.958 4.761-2.334 6.942-3.811 2.353-1.594 4.356-3.653 6.3-5.727 0.421-0.449 0.828-0.909 1.225-1.378l0.065-0.069c0.024-0.02 0.046-0.042 0.071-0.061 0.1-0.077 0.215-0.133 0.337-0.163 0.082-0.02 0.104-0.018 0.187-0.025 0.031 0 0.063 1e-3 0.094 2e-3z"
     fill="#15181c"
     fill-rule="nonzero"
     id="path825" /><g
     fill="none"
     stroke="#000"
     stroke-opacity=".6902"
     stroke-width="1.8px"
     id="g837"><path
       d="m66.884 69.752c2.98 2.263-13.562 4.511-26.667 4.5"
       id="path827" /><path
       d="m149.72 94.586 5.834-4.667"
       id="path829" /><path
       d="m158.55 102.25 6.5-5.833"
       id="path831" /><path
       d="m176.88 112.59c1.34-1.428 2.555-4.052 3.667-7.667"
       id="path833" /><path
       d="m191.05 116.75c1.163-1.499 2.33-4.107 3.5-7.333"
       id="path835" /></g><path
     d="m99.384 96.919c-1.799 1.324 0.46 5.835 3.756 11.95 3.064 5.687 6.811 12.002 8.577 10.717 2.85-2.075-0.356-9.201-3-14.167-2.482-4.663-7.318-9.984-9.333-8.5z"
     fill="#3a434e"
     stroke="#05181e"
     stroke-width="2.7px"
     id="path839" /><path
     d="m99.568 133.34c7.003-3.042 12.226-1.139 12.855 0.449 1.041 2.632-1.712 5.944-9.068 9.081-7.533 3.213-11.034 1.908-12.229-0.658-0.837-1.796 2.482-6.282 8.442-8.872z"
     fill="#4f5862"
     id="path841" /><path
     d="m-0.2 234.43v-1.527c0.1 0.126 0.201 0.252 0.303 0.376 0.326 0.395 0.666 0.779 1.019 1.151zm106.58-178.48c1.339 0.253-3.3 2.04-3.3 2.04-0.92-0.093-0.709-1.267-0.305-2.441 0 0 0.705-1.088 0.976-1.51 0.536-0.836 0.968-1.738 1.276-2.681 0.274-0.836 0.449-1.702 0.528-2.578 0.052-0.587 0.061-1.177 0.029-1.765-0.023-0.427-0.068-0.852-0.132-1.274-0.488-3.184-2.092-6.121-4.222-8.504-0.374-0.418-0.766-0.821-1.173-1.208-0.572-0.543-1.174-1.054-1.801-1.533-0.782-0.596-1.604-1.141-2.456-1.633-1.245-0.719-2.556-1.325-3.908-1.816-1.205-0.437-2.442-0.784-3.697-1.042-0.625-0.128-1.253-0.232-1.885-0.319l-0.114-0.015c-0.122 1.02 0.171 2.034 0.455 3.003 0.159 0.533 0.323 1.064 0.478 1.598 0.272 0.951 0.511 1.91 0.68 2.885 0.185 1.072 6e-3 3.929-0.303 4.254-0.345 0.363-0.824-1.27-1.04-2.014-0.046-0.156-1.063-2.533-1.312-3.07-1.201-2.584-3.006-4.466-5.204-6.252-0.385-0.313-0.784-0.612-1.193-0.895-0.527-0.363-1.071-0.701-1.63-1.012-0.685-0.38-1.392-0.721-2.116-1.019-0.899-0.369-1.824-0.674-2.767-0.907-1.254-0.311-2.537-0.49-3.828-0.536-0.23-7e-3 -0.46-0.01-0.689-9e-3 -0.505 6e-3 -1.009 0.03-1.512 0.08-0.96 0.094-1.913 0.274-2.841 0.543-1.036 0.3-2.034 0.713-2.985 1.222l-5e-3 3e-3c0.584 1.048 0.809 2.129 1.363 3.195 0.771 1.486 1.45 2.23 2.617 4.045 0.506 0.789 2.57 2.986 2.256 2.831-2.438-1.204-4.796-0.6-7.533-0.419-3.657 0.241-7.303 0.989-10.886 1.76-3.669 0.791-7.245 2.021-10.604 3.698-2.608 1.303-5.082 2.874-7.365 4.688-2.244 1.785-4.301 3.803-6.136 6.007-0.583 0.7-3.315 0.138-2.816-0.495 0.78-0.991 1.595-1.953 2.451-2.878 1.356-1.466 2.811-2.841 4.352-4.11 3.066-2.526 6.474-4.628 10.097-6.254 3.043-1.366 6.234-2.397 9.494-3.099 3.381-0.729 6.835-1.104 10.292-1.154 1.694-0.025 3.386 0.034 5.076 0.155-0.222-0.26-0.441-0.522-0.661-0.785-0.914-1.105-1.803-2.23-2.61-3.416-0.761-1.118-1.442-2.285-2.072-3.481l-0.091-0.174c-0.117-0.383-0.208-0.494-0.099-0.901 0.1-0.375 0.252-0.491 0.535-0.731 0.041-0.036 0.092-0.059 0.138-0.088 0.473-0.299 0.96-0.575 1.459-0.827 1.594-0.805 3.309-1.36 5.069-1.656 0.991-0.166 1.993-0.247 2.998-0.259h0.315c0.84 0.011 1.678 0.068 2.511 0.179 1.862 0.248 3.69 0.746 5.428 1.461 2.235 0.92 4.328 2.198 6.149 3.79 0.533 0.466 1.039 0.96 1.522 1.478l0.034 0.036c0-0.112 0.121-1.168 0.289-1.644 0.157-0.443 0.573-1.14 0.721-1.211 0.667-0.318 1.785-0.243 3.413 0.152 2.003 0.486 4.018 0.956 5.919 1.753 0.987 0.415 1.95 0.886 2.881 1.415 0.794 0.451 1.564 0.943 2.306 1.476 0.53 0.38 1.045 0.782 1.543 1.203 3.133 2.648 5.645 6.142 6.76 10.12 0.18 0.643 0.323 1.297 0.424 1.957 0.153 1.003 0.211 2.021 0.163 3.035-0.058 1.218-0.269 2.428-0.635 3.591-0.427 1.357-1.062 2.653-1.875 3.82 0.269 0.044 0.536 0.093 0.804 0.142z"
     id="path843" /><path
     d="m0.2 98.139c3.662-5.584 10.315-14.64 22.517-20.72-9.914-7.959-6.221-16.817 0.296-24.716 1.86-2.254 3.864-4.286 5.993-6.091"
     fill="none"
     stroke="#000"
     stroke-linecap="butt"
     stroke-miterlimit="1.4142"
     stroke-width="2.5px"
     id="path845" /><path
     d="m103.22 56.752c33.605 3.604 59.756 52.679 95.675 52.586 37.871-0.099 62.192-36.921 35.992-66.752 6.067-7.321 13.278-0.917 17.667 1.833 2.75-2.482 4.25-4.389 10.666-6.333 5.917 6.222-2.963 13.342-0.833 18.833 6.393 16.481 6.361 50.928-16.368 73.137-14.105 13.782-37.142 23.22-73.465 17.696-16.123-2.452-22.891 11.917-36.192 29.058-15.251 19.656-17.901 41.707-16.995 58.174"
     fill="none"
     stroke="#000"
     stroke-linecap="butt"
     stroke-miterlimit="1.4142"
     stroke-width="2.5px"
     id="path847" /></g><rect
   style="fill:#552200;fill-opacity:1;stroke:#000000;stroke-width:1.60804284;stroke-linecap:butt;stroke-linejoin:miter;stroke-miterlimit:9.69999981;stroke-dasharray:none;stroke-dashoffset:0;stroke-opacity:1"
   id="rect903"
   width="5.239213"
   height="95.21463"
   x="272.87967"
   y="44.59602"
   ry="2.6375244"
   rx="0.046308544"
   transform="matrix(0.99970044,0.02447501,-0.32990375,0.94401457,0,0)" /><g
   id="ear"
   transform="translate(1.5485 32.078)"><path
     d="m-0.2 82.153c1.465-0.675 2.995-1.047 4.584-1.067 14.728-0.191 23.716 10.351 30.667 29.5l-5.667 51.333c-8.83 15.645-19.32 22.601-29.584 22.197z"
     fill="#56606b"
     id="path852" /><path
     d="m29.575 161.78c-6.286 14.409-16.353 21.623-29.8 22.4l-0.8 17.8c17.772-2.913 32.907-18.909 32.708-34.4-0.031-2.45 0.409-5.588-2.108-5.8z"
     fill="#3a434e"
     id="path854" /><path
     d="m-0.322 181.64 0.437 1.238c0.17 4e-3 0.17 4e-3 0.339 6e-3 0.386 1e-3 0.771-4e-3 1.156-0.022 0.854-0.041 1.705-0.137 2.547-0.285 0.782-0.137 1.557-0.32 2.319-0.544 0.548-0.161 1.09-0.344 1.624-0.546 3.629-1.374 6.866-3.636 9.686-6.276 0.463-0.435 0.916-0.88 1.36-1.335 0.618-0.634 1.216-1.287 1.797-1.955 0.769-0.885 1.507-1.798 2.216-2.731 0.834-1.099 5.784-8.459 5.999-8.498 0.143-0.027 0.29-0.028 0.434-4e-3 0.144 0.025 0.282 0.074 0.409 0.146 0.385 0.218-5.943 11.794-8.351 14.038-0.5 0.467-0.944 0.991-1.433 1.47-3.031 2.974-6.524 5.542-10.462 7.177-0.507 0.211-1.022 0.406-1.542 0.584-2.419 0.828-4.964 1.277-7.522 1.282-0.338 1e-3 -0.676-6e-3 -1.013-0.021zm0-100.8c0.326-0.138 0.658-0.263 0.995-0.375 0.415-0.138 0.838-0.255 1.265-0.349 0.489-0.107 0.985-0.185 1.484-0.231 0.252-0.023 0.503-0.036 0.756-0.045 0.242-5e-3 0.484-7e-3 0.726-7e-3 0.818 6e-3 1.634 0.039 2.448 0.111 1.45 0.127 2.891 0.368 4.3 0.734 1.417 0.369 2.801 0.864 4.129 1.482 0.881 0.41 1.738 0.873 2.564 1.384 0.556 0.344 1.099 0.709 1.627 1.094 3.727 2.714 6.691 6.349 9.114 10.241 0.488 0.783 0.955 1.578 1.404 2.384 1.606 2.881 4.443 13.486 4.447 13.632 0.02 0.667-0.655 0.719-0.843 0.495-0.126-0.149-0.136-0.201-0.218-0.376-0.161-0.441-0.323-0.881-0.488-1.321-1.126-2.978-2.358-5.918-3.788-8.765-1.028-2.047-2.155-4.046-3.425-5.953-2.286-3.435-5.067-6.614-8.526-8.908-0.569-0.378-1.154-0.73-1.755-1.054-0.937-0.506-1.91-0.944-2.911-1.307-1.589-0.577-3.244-0.963-4.921-1.173-0.943-0.118-1.892-0.182-2.841-0.196-0.423-7e-3 -0.848-0.011-1.271 0.015-0.347 0.021-0.693 0.061-1.036 0.12-1.134 0.195-2.224 0.596-3.236 1.137z"
     id="path856" /><path
     d="m-0.283 99.086c5.874-3.336 11.929-1.378 18.167 6-9.031 1.219-5.404 8.43 2.5 9.166-7.718 4.048-8.567 8.798 3.5 12.534-3.064 17.657-11.848 25.767-24.109 25.192"
     fill="#3a434e"
     id="path858" /><path
     d="m22.884 126.59c-12.067-3.736-10.218-8.286-2.5-12.334-7.904-0.736-11.531-7.947-2.5-9.166-6.238-7.378-12.293-9.336-18.167-6"
     fill="none"
     stroke="#000"
     stroke-width="2.5px"
     id="path860" /><path
     d="m5.384 170.09c-2.131 2.23-4.079 3.994-5.667 4.833"
     fill="none"
     stroke="#000"
     stroke-width="2px"
     id="path862" /></g><g
   id="tooth"
   transform="translate(1.5485 32.078)"><path
     d="m185.42 51.423c1.041-0.089 2.306 0.5 3.031 0.773 7.107 2.685 17.611 13.538 23.16 21.398 15.745 22.304 11.694 46.438 5.101 63.658-22.38 58.462-90.231 44.968-110.5 28.5 8.201-2.251 12.497-7.919 16.625-14.912 8.739 2.011 13.697 1.952 14.042-3.754 18.919 11.165 42.946 4.876 56.167-15.334 6.391-9.77 17.973-28.086-1.834-64-4.763-8.636-6.735-15.404-5.792-16.329z"
     fill="#b3bfcd"
     id="path865" /><path
     d="m120.02 155.24-3.044 0.335-4.4 3.4c0.926 3.558-1.372 5.643-4.653 7.046 27.684 17.335 60.967 17.571 83.211 3.419 16.456-10.469 25.688-28.819 31.042-53.265 0 0-4.899-1.934-7.8 1.4-8.7 10-18.813 29.711-27.8 37.2-6.466 5.389-19.817 9.793-30.388 10.144-15.512 0.515-31-6.847-36.168-9.679z"
     fill="#93a1b5"
     id="path867" /><path
     d="m132.37 176.08c2.968 0.715 5.221 3.704 1.785 2.969-3.093-0.662-6.128-1.563-9.164-2.451-6.083-1.779-15.916-7.174-18.053-9.141-0.255-0.234-1.133-0.712-1.305-0.78-0.157-0.062-2.171 0.065-2.231-0.204-0.091-0.411 1.157-0.859 1.722-1.002 1.442-0.366 6.464-2.566 6.378-4.411-0.071-1.527-2.286-4.351-1.997-4.273 0.343 0.093 4.752 1.594 4.652 0.058l0.011-5e-3c0.021-0.103 0.014-0.212 3e-3 -0.316-0.021-0.184-0.064-0.365-0.115-0.543-0.172-0.595-0.44-1.16-0.722-1.709l-0.057-0.109c-0.03-0.074-0.068-0.146-0.091-0.223-0.046-0.155-0.061-0.317-0.045-0.478 2.882 1.016 3.671 1.014 4.918 1.103 2.078 0.148 5.061-3.258 2.755-5.813 4.448 3.951 17.188 3.059 14.821-1.653l0.02-0.239c0.058-0.203 0.059-0.263 0.174-0.444 0.261-0.413 0.754-0.639 1.238-0.568 0.212 0.031 0.258 0.069 0.45 0.158 0.216 0.127 0.432 0.252 0.65 0.376 1.142 0.64 2.311 1.231 3.51 1.757 2.333 1.023 4.768 1.813 7.259 2.346 3.736 0.8 4.381 3.379 0.462 2.643-2.577-0.484-5.104-1.224-7.536-2.2-1.286-0.516-2.541-1.101-3.769-1.741l-0.102-0.053c-2.731 3.7-7.577 4.022-14.814 2.388l-8e-3 -4e-3c-0.971 2.432-1.92 4.774-6.447 4.417 0.391 1.834-2.308 3.855-4.2 2.849 0.639 0.769 0.902 2.042 0.545 3.501-0.41 1.675-4.052 3.667-4.522 3.645 0.197 0.139 0.762 0.562 0.961 0.698 0.56 0.375 1.125 0.741 1.7 1.093 2.71 1.659 5.576 3.059 8.509 4.276 4.098 1.7 8.343 3.045 12.655 4.083z"
     fill="#08080a"
     id="path869" /><path
     d="m143.44 150.2c17.632 6.463 37.877-0.509 49.61-18.445 6.391-9.77 17.973-28.086-1.834-64-4.763-8.636-6.735-15.404-5.792-16.329 1.041-0.089 2.306 0.5 3.031 0.773 7.107 2.685 17.611 13.538 23.16 21.398 15.745 22.304 11.694 46.438 5.101 63.658-18.433 48.151-67.71 47.49-95.844 36.558"
     fill="none"
     stroke="#000"
     stroke-linecap="butt"
     stroke-miterlimit="1.4142"
     stroke-width="2.5px"
     id="path871" /></g><g
   id="snout"
   transform="translate(1.5485 32.078)"><path
     d="m234.97 42.396c2.764-4.253 8.761-4.06 18.176 0.832 3.047 9.604-4.024 9.242-9.28 13.888z"
     fill="#56606b"
     id="path874" /><path
     d="m242.5 57.519c-1.207-3.352-2.893-6.521-4.913-9.453-1.119-1.624-2.342-3.173-3.64-4.658l-0.227-0.376c-0.027-0.144-0.08-0.286-0.082-0.432-2e-3 -0.147 0.023-0.296 0.072-0.434 0.079-0.221 0.166-0.321 0.293-0.471 0.152-0.181 0.309-0.358 0.47-0.531 0.816-0.877 1.754-1.65 2.814-2.214 0.582-0.31 1.197-0.555 1.834-0.723 0.433-0.115 0.875-0.195 1.32-0.239 0.319-0.032 0.639-0.046 0.96-0.042 2.04 0.019 4.007 0.721 5.805 1.642 0.293 0.15 0.583 0.307 0.871 0.469 0.376 0.212 0.747 0.432 1.114 0.659 0.442 0.273 0.879 0.556 1.313 0.842 0.631 0.418 1.257 0.845 1.887 1.265l0.032 0.021c0.951 0.603 6.117 1.629 1.849 2.576 0 0-3.661 1.412-3.216 0.98 1.101-1.068-0.522-1.829-1.931-2.756-0.413-0.272-0.827-0.541-1.248-0.801-0.381-0.235-0.766-0.464-1.158-0.681-0.301-0.168-0.606-0.329-0.916-0.481-0.217-0.108-0.437-0.211-0.659-0.308-1.485-0.655-3.134-1.107-4.765-0.858-0.251 0.038-0.498 0.092-0.741 0.162-0.408 0.118-0.802 0.28-1.176 0.479-0.68 0.362-1.287 0.843-1.837 1.379l-0.064 0.064-6e-3 7e-3c0.215 0.255 0.427 0.512 0.638 0.771 1.227 1.516 2.378 3.093 3.426 4.739 1.874 2.945 3.424 6.102 4.531 9.414l0.026 0.079c0.479 2.186 0.175 12.285-2.676-0.09z"
     id="path876" /></g><text
   x="171.46365"
   y="63.040699"
   fill="#000000"
   fill-opacity="0"
   font-family="sans-serif"
   font-size="40px"
   letter-spacing="0px"
   word-spacing="0px"
   style="line-height:1.25"
   xml:space="preserve"
   id="text881"><tspan
     x="171.46365"
     y="98.43132"
     id="tspan879" /></text>

<g
   id="g914"
   transform="translate(1.1151503)"><rect
   transform="rotate(19.02)"
   x="226.24095"
   y="-73.42041"
   width="66.524002"
   height="41.827"
   ry="2.3125"
   stroke-miterlimit="9.7"
   id="rect883"
   style="fill:#000008;stroke:#777777;stroke-width:2.5;stroke-linecap:butt;stroke-linejoin:round;stroke-miterlimit:9.69999981;fill-opacity:1;stroke-opacity:1" /><text
   transform="rotate(19.02)"
   x="260.40695"
   y="-59.647499"
   font-size="15.333px"
   letter-spacing="0px"
   word-spacing="0px"
   style="font-size:10.53903294px;line-height:6.4945817px;font-family:sans-serif;letter-spacing:0px;word-spacing:0px;text-anchor:middle;fill:#000000;stroke-width:0.68734318"
   xml:space="preserve"
   id="text889"><tspan
     x="260.40695"
     y="-59.647499"
     text-align="center"
     style="line-height:6.4945817px;text-align:center;stroke-width:0.68734318;fill:#f5f9fe;fill-opacity:1"
     id="tspan885">Remember!</tspan></text>
<text
   transform="rotate(19.02)"
   x="259.07059"
   y="-49.106857"
   font-size="15.333px"
   letter-spacing="0px"
   word-spacing="0px"
   style="font-size:10.92199898px;line-height:6.73058033px;font-family:sans-serif;letter-spacing:0px;word-spacing:0px;text-anchor:middle;fill:#000000;stroke-width:0.71231973"
   xml:space="preserve"
   id="text994"><tspan
     x="259.07059"
     y="-49.106857"
     text-align="center"
     style="line-height:6.73058033px;text-align:center;stroke-width:0.71231973;fill:#ffffff;fill-opacity:1"
     id="tspan996">Never</tspan></text>
<text
   transform="rotate(19.02)"
   x="259.37878"
   y="-37.626129"
   font-size="15.333px"
   letter-spacing="0px"
   word-spacing="0px"
   style="font-size:10.92199898px;line-height:6.73058033px;font-family:sans-serif;letter-spacing:0px;word-spacing:0px;text-anchor:middle;fill:#000000;stroke-width:0.71231973"
   xml:space="preserve"
   id="text998"><tspan
     x="259.37878"
     y="-37.626129"
     text-align="center"
     style="line-height:6.73058033px;text-align:center;fill:#ffffff;fill-opacity:1;stroke-width:0.71231973"
     id="tspan1000">again!</tspan></text>
<text
   transform="rotate(19.02)"
   x="259.34265"
   y="-53.911575"
   font-size="15.333px"
   letter-spacing="0px"
   word-spacing="0px"
   style="font-size:15.33300018px;line-height:9.44881916px;font-family:sans-serif;letter-spacing:0px;word-spacing:0px;text-anchor:middle;fill:#000000"
   xml:space="preserve"
   id="text990"><tspan
     x="259.34265"
     y="-53.911575"
     text-align="center"
     style="line-height:9.44881916px;text-align:center"
     id="tspan992" /></text>

</g><path
   style="fill:#56606b;stroke-width:0;stroke-miterlimit:1.5"
   inkscape:connector-curvature="0"
   id="path891"
   stroke-miterlimit="1.5"
   d="m 253.50835,85.622343 -5.5061,-1.0298 -1.948,4.2665 c -0.6162,0.11756 1.3146,6.8002 2.4868,9.5628 z" /></svg>