<?xml version="1.0" encoding="UTF-8" standalone="no"?>
<svg
   xmlns:dc="http://purl.org/dc/elements/1.1/"
   xmlns:cc="http://creativecommons.org/ns#"
   xmlns:rdf="http://www.w3.org/1999/02/22-rdf-syntax-ns#"
   xmlns:svg="http://www.w3.org/2000/svg"
   xmlns="http://www.w3.org/2000/svg"
   xmlns:sodipodi="http://sodipodi.sourceforge.net/DTD/sodipodi-0.dtd"
   xmlns:inkscape="http://www.inkscape.org/namespaces/inkscape"
   width="287.16595"
   height="252.0706"
   viewBox="0 0 287.16595 252.0706"
   version="1.1"
   xml:space="preserve"
   style="clip-rule:evenodd;fill-rule:evenodd;stroke-linecap:round;stroke-linejoin:round;stroke-miterlimit:1.5"
   id="svg4898"
   sodipodi:docname="mastodon-divoc.svg"
   inkscape:version="0.92.4 5da689c313, 2019-01-14"><metadata
     id="metadata4904"><rdf:RDF><cc:Work
         rdf:about=""><dc:format>image/svg+xml</dc:format><dc:type
           rdf:resource="http://purl.org/dc/dcmitype/StillImage" /><dc:title></dc:title></cc:Work></rdf:RDF></metadata><defs
     id="defs4902" /><sodipodi:namedview
     pagecolor="#ffffff"
     bordercolor="#666666"
     borderopacity="1"
     objecttolerance="10"
     gridtolerance="10"
     guidetolerance="10"
     inkscape:pageopacity="0"
     inkscape:pageshadow="2"
     inkscape:window-width="2556"
     inkscape:window-height="1414"
     id="namedview4900"
     showgrid="false"
     fit-margin-top="0"
     fit-margin-left="0"
     fit-margin-right="0"
     fit-margin-bottom="0"
     inkscape:zoom="2.5489362"
     inkscape:cx="189.85633"
     inkscape:cy="153.07925"
     inkscape:window-x="2560"
     inkscape:window-y="22"
     inkscape:window-maximized="0"
     inkscape:current-layer="svg4898" /><g
     id="mastodon"
     transform="translate(1.548497,16.961602)"><path
       d="M -0.05,235.109 0.2,98.139 C 3.862,92.555 10.515,83.499 22.717,77.419 12.803,69.46 16.496,60.602 23.013,52.703 33.475,40.024 48.48,34.375 64.985,36.521 61.266,32.269 60.64,30.792 58.717,27.086 c 11.337,-7.311 27.917,1.7 28.167,13.5 -0.136,-6.404 -2.855,-8.783 -1.667,-12.167 0.289,-0.011 0.577,-0.052 0.858,-0.018 17.264,2.078 26.303,18.554 17.142,28.351 33.605,3.604 59.756,52.679 95.675,52.586 37.871,-0.099 62.192,-36.921 35.992,-66.752 6.067,-7.321 13.278,-0.917 17.667,1.833 2.75,-2.482 4.25,-4.389 10.666,-6.333 5.917,6.222 -2.963,13.342 -0.833,18.833 6.393,16.481 6.361,50.928 -16.368,73.137 -14.105,13.782 -37.142,23.22 -73.465,17.696 -16.123,-2.452 -22.891,11.917 -36.192,29.058 -15.251,19.656 -17.901,41.707 -16.995,58.174 z"
       style="fill:#56606b"
       id="path4804"
       inkscape:connector-curvature="0" /><path
       d="m 257.375,114.778 c 0.592,-1.223 -3.029,-0.751 -4,0.2 -10.167,9.967 -19.536,19.144 -34.2,22.4 -14.335,3.184 -33.1,2.867 -47.4,1.4 -9.93,-1.018 -24.681,4.919 -28.8,15 l 6.8,5.8 c 2.533,-4.849 8.314,-11.459 14.4,-11.8 11.933,-0.666 39.167,3.667 54.8,-1.8 15.568,-5.443 31.267,-16.466 38.4,-31.2 z"
       style="fill:#3a434e"
       id="path4806"
       inkscape:connector-curvature="0" /><path
       d="m 107.975,167.386 c 5.488,10.128 11.618,18.64 18.6,25 l 9.6,-16.8 z"
       style="fill:#3a434e"
       id="path4808"
       inkscape:connector-curvature="0" /><path
       d="m 22.975,76.978 c -5.43,-4.965 -11.864,-9.557 -2.6,-20 0,0 6.25,9.293 12.2,5.2 14.257,-9.806 18.61,-14.051 33.6,-15 10.62,-0.672 26.565,3.652 28.4,10.6 2.149,8.138 -8.933,11.667 -15.4,15.6 -6.131,3.73 -13.2,8.034 -19,10.4 -4.952,2.021 -14.8,5 -14.8,5 l -4,-2 -10,13.8 -17.8,-7.2 -5.4,-5.2 z"
       style="fill:#3a434e"
       id="path4810"
       inkscape:connector-curvature="0" /><path
       d="m 103.384,55.375 c 0.031,0.004 0.063,0.006 0.093,0.012 0.093,0.016 0.183,0.048 0.266,0.093 0.34,0.182 0.528,0.573 0.46,0.953 -0.023,0.123 -0.071,0.242 -0.142,0.346 -0.018,0.026 -0.038,0.05 -0.057,0.075 -0.155,0.183 1.259,1.058 1.102,1.239 -0.67,0.194 -0.923,-0.127 -2.229,0.338 -1.556,0.554 -3.048,2.689 -4.338,3.72 -1.363,1.088 -2.794,2.091 -4.283,2.997 -2.466,1.499 -5.101,2.746 -7.865,3.586 -2.049,0.622 -4.181,1.021 -6.326,1.043 -0.561,0.006 -1.121,-0.015 -1.679,-0.065 C 78.248,69.7 78.111,69.686 77.973,69.67 77.845,69.655 77.713,69.645 77.59,69.603 77.289,69.499 77.061,69.236 77,68.924 c -0.018,-0.093 0.182,-0.559 0.572,-0.626 0.448,-0.078 4.628,-0.144 5.858,-0.381 1.554,-0.298 3.26,-0.735 4.733,-1.31 2.455,-0.958 4.761,-2.334 6.942,-3.811 2.353,-1.594 4.356,-3.653 6.3,-5.727 0.421,-0.449 0.828,-0.909 1.225,-1.378 l 0.065,-0.069 c 0.024,-0.02 0.046,-0.042 0.071,-0.061 0.1,-0.077 0.215,-0.133 0.337,-0.163 0.082,-0.02 0.104,-0.018 0.187,-0.025 0.031,0 0.063,0.001 0.094,0.002 z"
       style="fill:#15181c;fill-rule:nonzero"
       id="path4812"
       inkscape:connector-curvature="0" /><path
       d="m 66.884,69.752 c 2.98,2.263 -13.562,4.511 -26.667,4.5"
       style="fill:none;stroke:#000000;stroke-width:1.79999995px;stroke-opacity:0.69019596"
       id="path4814"
       inkscape:connector-curvature="0" /><path
       d="m 149.717,94.586 5.834,-4.667"
       style="fill:none;stroke:#000000;stroke-width:1.79999995px;stroke-opacity:0.69019596"
       id="path4816"
       inkscape:connector-curvature="0" /><path
       d="m 158.551,102.252 6.5,-5.833"
       style="fill:none;stroke:#000000;stroke-width:1.79999995px;stroke-opacity:0.69019596"
       id="path4818"
       inkscape:connector-curvature="0" /><path
       d="m 176.884,112.586 c 1.34,-1.428 2.555,-4.052 3.667,-7.667"
       style="fill:none;stroke:#000000;stroke-width:1.79999995px;stroke-opacity:0.69019596"
       id="path4820"
       inkscape:connector-curvature="0" /><path
       d="m 191.051,116.752 c 1.163,-1.499 2.33,-4.107 3.5,-7.333"
       style="fill:none;stroke:#000000;stroke-width:1.79999995px;stroke-opacity:0.69019596"
       id="path4822"
       inkscape:connector-curvature="0" /><path
       d="m 99.384,96.919 c -1.799,1.324 0.46,5.835 3.756,11.95 3.064,5.687 6.811,12.002 8.577,10.717 2.85,-2.075 -0.356,-9.201 -3,-14.167 -2.482,-4.663 -7.318,-9.984 -9.333,-8.5 z"
       style="fill:#3a434e;stroke:#05181e;stroke-width:2.70000005px"
       id="path4824"
       inkscape:connector-curvature="0" /><path
       d="m 99.568,133.34 c 7.003,-3.042 12.226,-1.139 12.855,0.449 1.041,2.632 -1.712,5.944 -9.068,9.081 -7.533,3.213 -11.034,1.908 -12.229,-0.658 -0.837,-1.796 2.482,-6.282 8.442,-8.872 z"
       style="fill:#4f5862"
       id="path4826"
       inkscape:connector-curvature="0" /><path
       d="m -0.2,234.433 v -1.527 c 0.1,0.126 0.201,0.252 0.303,0.376 0.326,0.395 0.666,0.779 1.019,1.151 z M 106.381,55.955 c 1.339,0.253 -3.3,2.04 -3.3,2.04 -0.92,-0.093 -0.709,-1.267 -0.305,-2.441 0,0 0.705,-1.088 0.976,-1.51 0.536,-0.836 0.968,-1.738 1.276,-2.681 0.274,-0.836 0.449,-1.702 0.528,-2.578 0.052,-0.587 0.061,-1.177 0.029,-1.765 -0.023,-0.427 -0.068,-0.852 -0.132,-1.274 -0.488,-3.184 -2.092,-6.121 -4.222,-8.504 -0.374,-0.418 -0.766,-0.821 -1.173,-1.208 C 99.486,35.491 98.884,34.98 98.257,34.501 97.475,33.905 96.653,33.36 95.801,32.868 94.556,32.149 93.245,31.543 91.893,31.052 90.688,30.615 89.451,30.268 88.196,30.01 87.571,29.882 86.943,29.778 86.311,29.691 l -0.114,-0.015 c -0.122,1.02 0.171,2.034 0.455,3.003 0.159,0.533 0.323,1.064 0.478,1.598 0.272,0.951 0.511,1.91 0.68,2.885 0.185,1.072 0.006,3.929 -0.303,4.254 -0.345,0.363 -0.824,-1.27 -1.04,-2.014 -0.046,-0.156 -1.063,-2.533 -1.312,-3.07 -1.201,-2.584 -3.006,-4.466 -5.204,-6.252 -0.385,-0.313 -0.784,-0.612 -1.193,-0.895 -0.527,-0.363 -1.071,-0.701 -1.63,-1.012 -0.685,-0.38 -1.392,-0.721 -2.116,-1.019 -0.899,-0.369 -1.824,-0.674 -2.767,-0.907 -1.254,-0.311 -2.537,-0.49 -3.828,-0.536 -0.23,-0.007 -0.46,-0.01 -0.689,-0.009 -0.505,0.006 -1.009,0.03 -1.512,0.08 -0.96,0.094 -1.913,0.274 -2.841,0.543 -1.036,0.3 -2.034,0.713 -2.985,1.222 l -0.005,0.003 c 0.584,1.048 0.809,2.129 1.363,3.195 0.771,1.486 1.45,2.23 2.617,4.045 0.506,0.789 2.57,2.986 2.256,2.831 -2.438,-1.204 -4.796,-0.6 -7.533,-0.419 -3.657,0.241 -7.303,0.989 -10.886,1.76 -3.669,0.791 -7.245,2.021 -10.604,3.698 -2.608,1.303 -5.082,2.874 -7.365,4.688 -2.244,1.785 -4.301,3.803 -6.136,6.007 -0.583,0.7 -3.315,0.138 -2.816,-0.495 0.78,-0.991 1.595,-1.953 2.451,-2.878 1.356,-1.466 2.811,-2.841 4.352,-4.11 3.066,-2.526 6.474,-4.628 10.097,-6.254 3.043,-1.366 6.234,-2.397 9.494,-3.099 3.381,-0.729 6.835,-1.104 10.292,-1.154 1.694,-0.025 3.386,0.034 5.076,0.155 -0.222,-0.26 -0.441,-0.522 -0.661,-0.785 -0.914,-1.105 -1.803,-2.23 -2.61,-3.416 C 59.011,30.201 58.33,29.034 57.7,27.838 l -0.091,-0.174 c -0.117,-0.383 -0.208,-0.494 -0.099,-0.901 0.1,-0.375 0.252,-0.491 0.535,-0.731 0.041,-0.036 0.092,-0.059 0.138,-0.088 0.473,-0.299 0.96,-0.575 1.459,-0.827 1.594,-0.805 3.309,-1.36 5.069,-1.656 0.991,-0.166 1.993,-0.247 2.998,-0.259 0.157,0 0.157,0 0.315,0 0.84,0.011 1.678,0.068 2.511,0.179 1.862,0.248 3.69,0.746 5.428,1.461 2.235,0.92 4.328,2.198 6.149,3.79 0.533,0.466 1.039,0.96 1.522,1.478 l 0.034,0.036 c 0,-0.112 0.121,-1.168 0.289,-1.644 0.157,-0.443 0.573,-1.14 0.721,-1.211 0.667,-0.318 1.785,-0.243 3.413,0.152 2.003,0.486 4.018,0.956 5.919,1.753 0.987,0.415 1.95,0.886 2.881,1.415 0.794,0.451 1.564,0.943 2.306,1.476 0.53,0.38 1.045,0.782 1.543,1.203 3.133,2.648 5.645,6.142 6.76,10.12 0.18,0.643 0.323,1.297 0.424,1.957 0.153,1.003 0.211,2.021 0.163,3.035 -0.058,1.218 -0.269,2.428 -0.635,3.591 -0.427,1.357 -1.062,2.653 -1.875,3.82 0.269,0.044 0.536,0.093 0.804,0.142 z"
       id="path4828"
       inkscape:connector-curvature="0" /><path
       d="m 0.2,98.139 c 3.662,-5.584 10.315,-14.64 22.517,-20.72 -9.914,-7.959 -6.221,-16.817 0.296,-24.716 1.86,-2.254 3.864,-4.286 5.993,-6.091"
       style="fill:none;stroke:#000000;stroke-width:2.5px;stroke-linecap:butt;stroke-miterlimit:1.41420996"
       id="path4830"
       inkscape:connector-curvature="0" /><path
       d="m 103.217,56.752 c 33.605,3.604 59.756,52.679 95.675,52.586 37.871,-0.099 62.192,-36.921 35.992,-66.752 6.067,-7.321 13.278,-0.917 17.667,1.833 2.75,-2.482 4.25,-4.389 10.666,-6.333 5.917,6.222 -2.963,13.342 -0.833,18.833 6.393,16.481 6.361,50.928 -16.368,73.137 -14.105,13.782 -37.142,23.22 -73.465,17.696 -16.123,-2.452 -22.891,11.917 -36.192,29.058 -15.251,19.656 -17.901,41.707 -16.995,58.174"
       style="fill:none;stroke:#000000;stroke-width:2.5px;stroke-linecap:butt;stroke-miterlimit:1.41420996"
       id="path4832"
       inkscape:connector-curvature="0" /></g><g
     id="ear"
     transform="translate(1.548497,16.961602)"><path
       d="m -0.2,82.153 c 1.465,-0.675 2.995,-1.047 4.584,-1.067 14.728,-0.191 23.716,10.351 30.667,29.5 l -5.667,51.333 c -8.83,15.645 -19.32,22.601 -29.584,22.197 z"
       style="fill:#56606b"
       id="path4835"
       inkscape:connector-curvature="0" /><path
       d="m 29.575,161.778 c -6.286,14.409 -16.353,21.623 -29.8,22.4 l -0.8,17.8 c 17.772,-2.913 32.907,-18.909 32.708,-34.4 -0.031,-2.45 0.409,-5.588 -2.108,-5.8 z"
       style="fill:#3a434e"
       id="path4837"
       inkscape:connector-curvature="0" /><path
       d="m -0.322,181.638 0.437,1.238 c 0.17,0.004 0.17,0.004 0.339,0.006 0.386,0.001 0.771,-0.004 1.156,-0.022 0.854,-0.041 1.705,-0.137 2.547,-0.285 0.782,-0.137 1.557,-0.32 2.319,-0.544 0.548,-0.161 1.09,-0.344 1.624,-0.546 3.629,-1.374 6.866,-3.636 9.686,-6.276 0.463,-0.435 0.916,-0.88 1.36,-1.335 0.618,-0.634 1.216,-1.287 1.797,-1.955 0.769,-0.885 1.507,-1.798 2.216,-2.731 0.834,-1.099 5.784,-8.459 5.999,-8.498 0.143,-0.027 0.29,-0.028 0.434,-0.004 0.144,0.025 0.282,0.074 0.409,0.146 0.385,0.218 -5.943,11.794 -8.351,14.038 -0.5,0.467 -0.944,0.991 -1.433,1.47 -3.031,2.974 -6.524,5.542 -10.462,7.177 -0.507,0.211 -1.022,0.406 -1.542,0.584 -2.419,0.828 -4.964,1.277 -7.522,1.282 -0.338,10e-4 -0.676,-0.006 -1.013,-0.021 z m 0,-100.798 C 0.004,80.702 0.336,80.577 0.673,80.465 1.088,80.327 1.511,80.21 1.938,80.116 2.427,80.009 2.923,79.931 3.422,79.885 3.674,79.862 3.925,79.849 4.178,79.84 4.42,79.835 4.662,79.833 4.904,79.833 c 0.818,0.006 1.634,0.039 2.448,0.111 1.45,0.127 2.891,0.368 4.3,0.734 1.417,0.369 2.801,0.864 4.129,1.482 0.881,0.41 1.738,0.873 2.564,1.384 0.556,0.344 1.099,0.709 1.627,1.094 3.727,2.714 6.691,6.349 9.114,10.241 0.488,0.783 0.955,1.578 1.404,2.384 1.606,2.881 4.443,13.486 4.447,13.632 0.02,0.667 -0.655,0.719 -0.843,0.495 -0.126,-0.149 -0.136,-0.201 -0.218,-0.376 -0.161,-0.441 -0.323,-0.881 -0.488,-1.321 C 32.262,106.715 31.03,103.775 29.6,100.928 28.572,98.881 27.445,96.882 26.175,94.975 23.889,91.54 21.108,88.361 17.649,86.067 17.08,85.689 16.495,85.337 15.894,85.013 14.957,84.507 13.984,84.069 12.983,83.706 11.394,83.129 9.739,82.743 8.062,82.533 7.119,82.415 6.17,82.351 5.221,82.337 4.798,82.33 4.373,82.326 3.95,82.352 3.603,82.373 3.257,82.413 2.914,82.472 1.78,82.667 0.69,83.068 -0.322,83.609 Z"
       id="path4839"
       inkscape:connector-curvature="0" /><path
       d="m -0.283,99.086 c 5.874,-3.336 11.929,-1.378 18.167,6 -9.031,1.219 -5.404,8.43 2.5,9.166 -7.718,4.048 -8.567,8.798 3.5,12.534 -3.064,17.657 -11.848,25.767 -24.109,25.192"
       style="fill:#3a434e"
       id="path4841"
       inkscape:connector-curvature="0" /><path
       d="m 22.884,126.586 c -12.067,-3.736 -10.218,-8.286 -2.5,-12.334 -7.904,-0.736 -11.531,-7.947 -2.5,-9.166 -6.238,-7.378 -12.293,-9.336 -18.167,-6"
       style="fill:none;stroke:#000000;stroke-width:2.5px"
       id="path4843"
       inkscape:connector-curvature="0" /><path
       d="m 5.384,170.086 c -2.131,2.23 -4.079,3.994 -5.667,4.833"
       style="fill:none;stroke:#000000;stroke-width:2px"
       id="path4845"
       inkscape:connector-curvature="0" /></g><g
     id="g6296"
     transform="matrix(0.4869768,0,0,0.4869768,147.80781,-6.8371543)"><path
       id="path5678"
       d="m 272.86,85.19 v 0 a 5.78,5.78 0 0 1 -1.72,-0.68 4.31,4.31 0 0 1 -0.73,-0.54 c -1.88,-1.54 -3.89,-3 -6,-4.45 a 78.87,78.87 0 0 0 -8.21,-4.82 73,73 0 0 0 -6.8,-3 101.14,101.14 0 0 0 -10.89,-3.11 c -1.19,-0.26 -2.41,-0.52 -3.76,-0.77 l -2.46,-0.43 -1.25,-0.19 a 101.72,101.72 0 0 0 -15,-1.12 c -1.56,0 -3.12,0.15 -4.63,0.28 -1.91,0.16 -3.88,0.39 -5.85,0.68 l -0.57,0.08 4.2,14.58 a 0.68,0.68 0 0 1 -0.06,0.54 0.7,0.7 0 0 1 -0.43,0.34 0.72,0.72 0 0 1 -0.88,-0.49 L 206.34,77 206.29,76.88 a 0.67,0.67 0 0 1 -0.08,-0.18 l -2.5,-8.85 -0.12,-0.45 -0.45,0.07 c -1.32,0.23 -2.59,0.47 -3.82,0.72 -3,0.6 -5.76,1.26 -8,1.8 a 164.33,164.33 0 0 0 -16,4.45 l -0.45,0.15 1.73,6.11 a 0.65,0.65 0 0 1 0,0.31 v 0.11 l 1.54,5.84 a 0.72,0.72 0 0 1 -0.5,0.88 0.7,0.7 0 0 1 -0.88,-0.48 L 173.49,75 l -0.52,0.19 a 99.27,99.27 0 0 0 -16.8,8 c -1.16,0.7 -2.23,1.36 -3.26,2 l -0.31,0.2 5.33,18.85 v 0.15 a 0.73,0.73 0 0 1 -0.52,0.74 0.75,0.75 0 0 1 -0.42,0 0.68,0.68 0 0 1 -0.37,-0.3 0.7,0.7 0 0 1 -0.1,-0.19 l -5.2,-18.4 -1.1,0.76 c -0.83,0.58 -1.66,1.17 -2.48,1.79 A 99.45,99.45 0 0 0 136.09,99 l -0.34,0.35 0.33,0.35 a 12,12 0 0 1 0.84,1 8.74,8.74 0 0 1 1.58,2.86 v 0.09 a 6,6 0 0 1 0.22,1.72 c 0,0.18 0,0.37 -0.05,0.56 a 4.69,4.69 0 0 1 -0.23,0.93 4.47,4.47 0 0 1 -0.55,1.06 9.54,9.54 0 0 1 -0.71,0.89 l -0.3,0.35 -0.17,0.22 a 8.14,8.14 0 0 0 -0.94,1.52 9.6,9.6 0 0 0 -0.93,3 l -0.06,0.34 a 5.34,5.34 0 0 1 -1.34,2.81 l -0.22,0.21 a 6.07,6.07 0 0 1 -0.75,0.61 l -0.25,0.16 -0.58,0.36 0.51,0.44 c 0.14,0.13 0.28,0.26 0.41,0.4 a 7.36,7.36 0 0 1 1.12,1.49 5.47,5.47 0 0 1 0.51,1.22 6.06,6.06 0 0 1 0.21,1.63 5.55,5.55 0 0 0 0.16,1.37 l 0.06,0.26 0.13,0.41 a 6.72,6.72 0 0 0 0.88,1.78 l 0.43,0.59 a 8.17,8.17 0 0 1 0.54,0.73 7,7 0 0 1 0.49,0.88 c 0,0.11 0.09,0.23 0.14,0.35 l 0.12,0.37 a 7.1,7.1 0 0 1 0.18,1 3.39,3.39 0 0 1 0,0.55 c 0,0.12 0,0.23 0,0.35 v 0.71 l 0.67,-0.23 a 6,6 0 0 1 3.32,-0.22 4.31,4.31 0 0 1 2.21,1.25 l 0.36,0.38 a 13.83,13.83 0 0 0 1.19,1.14 l 0.48,0.39 0.38,0.28 a 12.81,12.81 0 0 0 2.63,1.52 l 0.73,0.34 a 8.43,8.43 0 0 1 1.71,1.14 10.86,10.86 0 0 1 3.28,5.43 l 0.19,0.71 h 0.36 l 2.55,0.13 c 2.37,0.1 4.79,0.14 7.2,0.14 2,0 4,0 5.93,-0.09 1.26,0 2.52,-0.11 3.77,-0.18 l 1.3,-0.07 c 1.35,-0.08 2.82,-0.17 4.39,-0.29 l 1.72,-0.13 0.61,-0.05 -2.28,-8.05 a 0.59,0.59 0 0 1 0,-0.14 0.7,0.7 0 0 1 0.52,-0.74 0.72,0.72 0 0 1 0.88,0.49 l 2.35,8.32 h 0.41 a 139.38,139.38 0 0 0 17,-2.57 c 2.11,-0.46 4.22,-1 6.25,-1.52 l 0.49,-0.14 -2.76,-9.75 a 0.71,0.71 0 0 1 0.49,-0.88 0.68,0.68 0 0 1 0.4,0 0.71,0.71 0 0 1 0.49,0.49 l 2.76,9.76 0.48,-0.14 c 3.54,-1 7.08,-2.27 10.51,-3.64 1.48,-0.59 2.86,-1.17 4.21,-1.77 l 1.61,-0.72 c 0.84,-0.38 1.73,-0.79 2.68,-1.24 1.47,-0.7 2.8,-1.36 4.06,-2 l 0.36,-0.19 -4,-14.29 a 0.72,0.72 0 0 1 0.14,-0.65 0.77,0.77 0 0 1 0.36,-0.23 0.72,0.72 0 0 1 0.88,0.49 l 3.95,14 0.55,-0.31 a 74,74 0 0 0 13.7,-10 c 0.71,-0.64 1.42,-1.31 2.14,-2 1,-1 2.21,-2.19 3.46,-3.54 l 1.1,-1.22 c 0.37,-0.43 0.75,-0.87 1.13,-1.33 0.38,-0.46 0.77,-1 1.17,-1.46 0.6,-0.78 1.21,-1.6 1.8,-2.44 1.77,-2.53 3.34,-4.78 4.66,-6.75 0.94,-1.4 1.69,-2.57 2.37,-3.69 a 77.46,77.46 0 0 0 4.17,-7.96 7,7 0 0 1 2.32,-2.55 l 0.92,-0.67 -1.12,-0.22 z m -32.08,15.3 a 0.74,0.74 0 0 1 -1,0.18 0.71,0.71 0 0 1 -0.27,-0.39 0.7,0.7 0 0 1 0.1,-0.61 l 4.46,-6.36 -7.13,-3.09 a 0.7,0.7 0 0 1 -0.41,-0.46 0.71,0.71 0 0 1 0.69,-0.91 0.67,0.67 0 0 1 0.28,0.06 l 7.71,3.33 14.7,-4.15 a 0.71,0.71 0 0 1 0.88,0.49 0.71,0.71 0 0 1 -0.49,0.88 l -14.7,4.16 z m -9.33,5.64 a 21.65,21.65 0 0 1 -23.93,6.31 c -3.62,-1.5 -6.1,-4.07 -7,-7.24 v -0.17 c -0.86,-3.24 0,-6.77 2.48,-9.91 a 20.49,20.49 0 0 1 11,-6.91 22.61,22.61 0 0 1 5.78,-0.76 v 0 a 18.76,18.76 0 0 1 7.17,1.36 12.93,12.93 0 0 1 5,3.52 9.88,9.88 0 0 1 2,3.76 v 0.13 c 0.84,3.24 -0.04,6.78 -2.5,9.91 z m -33.91,6.5 -11,-2.38 -22.1,6.49 a 0.72,0.72 0 0 1 -0.4,-1.38 l 22,-6.45 h 0.12 l 8,-7.95 a 0.7,0.7 0 0 1 0.5,-0.2 0.74,0.74 0 0 1 0.51,0.2 0.72,0.72 0 0 1 0,1 l -7.17,7.13 9.88,2.14 a 0.72,0.72 0 0 1 0.55,0.85 0.74,0.74 0 0 1 -0.89,0.55 z"
       class="a"
       inkscape:connector-curvature="0"
       style="fill:#f79520" /><path
       id="path5680"
       d="M 271.7,82.53 A 79.78,79.78 0 0 0 257.09,73 a 73.18,73.18 0 0 0 -8.42,-3.61 100.14,100.14 0 0 0 -31.14,-5.26 155.83,155.83 0 0 0 -26.66,4 C 180.06,70.7 163.51,74.67 146.61,87.3 A 100.81,100.81 0 0 0 133,99.5 c 2.36,1.93 3.35,3.47 3.69,4.67 a 3.54,3.54 0 0 1 0.11,1.48 c -0.21,1.57 -1.38,1.71 -2.71,4.38 -1.56,3.13 -0.69,4.39 -2.15,5.78 -1.87,1.77 -4.68,1 -4.81,1.87 a 0.22,0.22 0 0 0 0,0.14 c 0.22,0.8 3.44,1.19 4.9,3.8 a 3.23,3.23 0 0 1 0.34,0.8 c 0.27,0.93 0,1.6 0.43,3.25 0.05,0.16 0.1,0.33 0.16,0.51 0.91,2.68 2.13,3.06 2.57,4.61 a 3.77,3.77 0 0 1 0.12,0.65 c 0.29,2.42 -1.3,4.1 -1.11,4.78 a 0.39,0.39 0 0 0 0.1,0.16 c 0.78,0.7 3.54,-2.81 6.52,-2.12 1.4,0.32 1.29,1.2 3.92,3.12 2.63,1.92 3.48,1.64 5,2.91 a 8.73,8.73 0 0 1 2.68,4.49 16.07,16.07 0 0 1 0.42,2 173.79,173.79 0 0 0 22.55,0.07 c 11.77,-0.72 29.69,-2 49.86,-11 6.88,-3.06 17.14,-7.74 26.92,-17.42 a 70.08,70.08 0 0 0 8.9,-10.27 c 6.17,-8.82 8.26,-11.93 11.43,-18.67 1,-2.07 5.72,-4.28 13.33,-7.29 -5.51,0.68 -12.28,2.43 -14.47,0.33 z m -1.12,6 c -3.11,6.61 -5.18,9.66 -11.22,18.3 a 68.88,68.88 0 0 1 -8.62,9.95 74.44,74.44 0 0 1 -15.68,11.75 l -3.78,-13.36 a 1.22,1.22 0 1 0 -2.34,0.66 l 3.93,13.89 c -3.18,1.69 -6,3 -8.33,4 a 116.21,116.21 0 0 1 -14.65,5.39 l -2.62,-9.27 a 1.22,1.22 0 0 0 -2.34,0.66 l 2.62,9.27 a 135.56,135.56 0 0 1 -23.15,4.07 l -2.24,-7.91 a 1.22,1.22 0 0 0 -2.34,0.66 l 2.11,7.46 c -2.34,0.19 -4.49,0.32 -6.41,0.44 a 173.22,173.22 0 0 1 -20.38,0 c 0,-0.12 -0.07,-0.24 -0.1,-0.37 a 11.3,11.3 0 0 0 -3.44,-5.67 9.54,9.54 0 0 0 -2.56,-1.56 13.63,13.63 0 0 1 -4.52,-3.22 5.16,5.16 0 0 0 -2.82,-1.77 6.43,6.43 0 0 0 -3.59,0.24 8.09,8.09 0 0 0 -0.05,-1 6.71,6.71 0 0 0 -0.2,-1 7,7 0 0 0 -1.37,-2.51 6.66,6.66 0 0 1 -1.23,-2.22 l -0.13,-0.39 a 5.27,5.27 0 0 1 -0.2,-1.51 6.51,6.51 0 0 0 -0.23,-1.75 5.94,5.94 0 0 0 -0.56,-1.32 7.6,7.6 0 0 0 -1.63,-2 6.77,6.77 0 0 0 1.08,-0.83 6.05,6.05 0 0 0 1.79,-3.71 9,9 0 0 1 0.86,-2.75 8.52,8.52 0 0 1 1.39,-2 5.62,5.62 0 0 0 1.56,-3.09 5.82,5.82 0 0 0 -0.18,-2.48 10.13,10.13 0 0 0 -2.56,-4.13 98.36,98.36 0 0 1 11.61,-10.19 c 1,-0.75 2,-1.46 3,-2.15 l 5,17.74 a 1.22,1.22 0 0 0 1.5,0.84 1.21,1.21 0 0 0 0.84,-1.5 l -5.23,-18.5 a 98.41,98.41 0 0 1 20,-9.94 l 3.09,11.77 a 1.22,1.22 0 1 0 2.34,-0.67 l -3.13,-11.91 c 6.05,-2.07 11.5,-3.37 16,-4.44 3.47,-0.82 7.41,-1.75 11.79,-2.5 l 4.13,14.3 a 1.2,1.2 0 0 0 1.5,0.84 1.22,1.22 0 0 0 0.84,-1.5 l -4.05,-14 a 86.65,86.65 0 0 1 9.94,-1 101.83,101.83 0 0 1 34.81,6 50.71,50.71 0 0 1 5.6,2.57 77.23,77.23 0 0 1 14.11,9.21 6,6 0 0 0 3,1.39 7.47,7.47 0 0 0 -2.56,2.68 z"
       class="b"
       inkscape:connector-curvature="0"
       style="fill:#ad621b" /><path
       id="path5682"
       d="m 241.38,55.75 -0.17,0.47 v 0 l 0.09,-0.51 a 2.5,2.5 0 0 1 -0.26,-2.66 3.16,3.16 0 0 1 1.28,-1.68 l 0.5,-0.3 -0.11,-0.58 a 21,21 0 0 0 -5.83,-11 20.49,20.49 0 0 0 -11.45,-5.53 c -0.35,-0.64 -0.64,-1.18 -0.86,-1.6 l -0.21,-0.4 c -0.27,-0.5 -0.44,-0.84 -0.71,-1.3 0,0 -0.67,-1.2 -1.31,-2.21 -3,-4.71 -13.19,-9 -14.33,-9.47 a 59.84,59.84 0 0 0 -6.31,-2.27 35.4,35.4 0 0 0 -9.53,-1.61 c -3.15,0 -5.22,0.82 -6,2.36 -1,2.08 0.48,4.81 4.29,7.9 l 0.17,0.14 c -0.93,0.15 -2.07,0.35 -3.14,0.59 -0.13,0 -12.62,3 -12.39,7.34 0.14,2.81 4.51,4.75 11.66,5.18 a 56.14,56.14 0 0 0 8.81,-0.23 59.21,59.21 0 0 0 7.86,-1.38 c 0.61,0.26 1.24,0.52 1.86,0.76 l 1.39,0.52 a 4,4 0 0 0 -0.61,1.3 c -0.65,0.75 -8.18,1.92 -18.33,2.46 -6.59,0.36 -16.53,0.89 -22.25,7.52 a 16.91,16.91 0 0 0 -1.49,2.07 9.25,9.25 0 0 0 -3.16,-2.5 9.53,9.53 0 0 0 -4.13,-0.94 8.84,8.84 0 0 0 -5.89,2.17 c -3,2.63 -2.88,6.3 -2.85,8.06 0,1.54 0.09,5.13 3,7.79 a 9,9 0 0 0 3,1.77 l 0.34,0.13 0.32,-0.16 a 15.58,15.58 0 0 0 5.49,-4.5 l -0.4,-0.31 0.51,0.29 a 0.08,0.08 0 0 1 0,0.11 16,16 0 0 1 -2.63,2.69 15.38,15.38 0 0 1 -2.95,1.87 l -0.28,0.14 -0.12,0.3 c -0.93,2.26 -2.32,5.49 -3.67,8 -0.85,1.61 -1.51,2.82 -2,3.68 -0.32,0.55 -0.6,1 -0.88,1.46 -0.28,0.46 -0.53,0.86 -0.75,1.26 l -0.82,1.47 1.67,-0.24 a 14.24,14.24 0 0 1 1.72,-0.14 14,14 0 0 1 3.06,0.32 l 0.11,-0.48 v 0 0.58 l 0.48,0.11 v 0 h -0.58 a 13.18,13.18 0 0 0 -3,-0.32 12.67,12.67 0 0 0 -3,0.4 l -0.41,0.16 -0.19,0.57 c -1.58,5 -1.81,13.25 2.7,15.26 a 4.87,4.87 0 0 0 1.62,0.39 h 0.31 c 3.45,0 6.91,-3.38 7.56,-4.06 3.69,-3.82 4.34,-9 4.44,-11.11 a 18.75,18.75 0 0 0 -0.09,-3 5.39,5.39 0 0 1 0.21,-2.72 18.81,18.81 0 0 1 1.31,-2.85 30.65,30.65 0 0 0 8,1.28 32.11,32.11 0 0 0 15.75,-3.79 34.66,34.66 0 0 0 8.98,-6.77 l 0.56,-0.58 -0.56,-0.58 a 8.65,8.65 0 0 0 -5.93,-2.66 0.23,0.23 0 0 1 -0.21,-0.24 c 0,-0.14 0.12,-0.22 0.29,-0.22 h 0.07 0.18 0.36 a 5.72,5.72 0 0 1 2.28,0.66 12.32,12.32 0 0 1 4.43,3.26 l 0.09,0.1 c 0.13,0.17 0.4,0.5 0.87,1.16 0.36,0.48 0.73,1 1.24,1.6 a 26.68,26.68 0 0 0 4.44,4.13 l 0.83,0.61 0.43,-0.93 a 9.59,9.59 0 0 1 2,-2.85 h 0.11 a 0.08,0.08 0 0 1 0,0.11 10,10 0 0 0 -1.19,1.43 10.25,10.25 0 0 0 -0.82,1.49 l -0.47,0.71 0.72,0.45 c 5,3.21 9.85,4 12.61,2.13 2.37,-1.62 3.64,-5.28 2.46,-7.11 a 2.89,2.89 0 0 0 -1.43,-1 14.58,14.58 0 0 1 -1.72,-0.89 16.3,16.3 0 0 1 -2.5,-1.87 21.48,21.48 0 0 1 -3.87,-4.46 0.24,0.24 0 0 1 0.07,-0.33 0.26,0.26 0 0 1 0.32,0.07 20.91,20.91 0 0 0 3.79,4.37 l 0.07,0.06 a 16.78,16.78 0 0 0 2.19,1.65 10.66,10.66 0 0 0 5.68,1.42 21.75,21.75 0 0 0 6.46,-1.09 c 5.11,-1.65 8.73,-4.5 10.77,-8.48 a 14.92,14.92 0 0 0 1.21,-3.3 l 0.29,-1.24 -1.26,0.23 a 0.51,0.51 0 0 1 -0.26,-0.06 z m -37.82,-31 c 4.81,0.28 6.71,0.92 7.95,1.51 a 16.19,16.19 0 0 1 2.19,1.28 l 0.17,0.11 a 32.92,32.92 0 0 1 5.75,4.87 h -0.1 a 20.89,20.89 0 0 0 -5.26,-4.32 l -0.92,-0.58 a 17.37,17.37 0 0 0 -2.26,-1.32 c -1.29,-0.61 -3.26,-1.28 -8.17,-1.57 -0.87,-0.05 -1.75,-0.08 -2.65,-0.09 1.12,0.05 2.23,0.08 3.3,0.15 z"
       class="c"
       inkscape:connector-curvature="0"
       style="fill:#6d6e71" /><path
       id="path5684"
       d="m 243.77,50.72 a 22,22 0 0 0 -6.19,-12 21.21,21.21 0 0 0 -11.51,-5.71 l -0.62,-1.18 -0.2,-0.37 -0.74,-1.37 v 0 c -0.21,-0.42 -0.6,-1.08 -1.33,-2.23 -3.15,-5 -13.56,-9.36 -14.8,-9.86 a 57.24,57.24 0 0 0 -6.4,-2.3 36.26,36.26 0 0 0 -9.81,-1.66 c -3.61,0 -5.92,1 -6.86,2.93 -0.77,1.6 -0.77,4.2 3.12,7.85 l -1.13,0.23 a 44.26,44.26 0 0 0 -7.3,2.48 c -2.61,1.16 -6.06,3 -5.91,5.93 0.18,3.42 4.78,5.65 12.6,6.12 1,0.06 2,0.08 3,0.08 a 59.33,59.33 0 0 0 6,-0.31 59.94,59.94 0 0 0 7.64,-1.29 l 1.59,0.65 0.34,0.13 v 0 c -0.62,0.26 -2.74,0.9 -9.27,1.55 -4.25,0.42 -8.25,0.64 -8.29,0.64 -6.75,0.36 -17,0.91 -22.95,7.86 -0.31,0.35 -0.6,0.72 -0.88,1.1 a 10.41,10.41 0 0 0 -7.17,-2.84 9.79,9.79 0 0 0 -6.55,2.43 c -3.29,2.93 -3.22,7.06 -3.19,8.82 0,1.52 0.1,5.55 3.33,8.5 a 9.91,9.91 0 0 0 2.78,1.78 c -1,2.36 -2.21,5.15 -3.4,7.4 -0.84,1.59 -1.49,2.78 -2,3.63 -0.33,0.56 -0.6,1 -0.85,1.4 v 0 a 15.08,15.08 0 0 0 -1.87,3.86 c -1.73,5.47 -1.87,14.19 3.24,16.46 a 5.53,5.53 0 0 0 2,0.48 h 0.37 c 3.85,0 7.57,-3.64 8.28,-4.37 3.92,-4.06 4.6,-9.57 4.72,-11.75 a 21.42,21.42 0 0 0 -0.1,-3.12 4.48,4.48 0 0 1 0.16,-2.32 16.13,16.13 0 0 1 0.87,-2 32.11,32.11 0 0 0 7.47,1.1 h 0.84 a 33.34,33.34 0 0 0 15.4,-3.92 35.64,35.64 0 0 0 9.34,-7 l 0.23,-0.23 c 0.14,0.19 0.37,0.48 0.73,1 0.36,0.52 0.75,1 1.28,1.66 4.25,5 10.86,8.71 15.72,8.71 a 7.33,7.33 0 0 0 4.22,-1.2 8,8 0 0 0 2.91,-3.89 5.56,5.56 0 0 0 0.06,-4.15 15.11,15.11 0 0 0 1.53,0.07 23.12,23.12 0 0 0 6.77,-1.13 c 5.36,-1.74 9.18,-4.76 11.35,-9 a 16.18,16.18 0 0 0 1.66,-5.74 4.68,4.68 0 0 0 0.19,-0.45 3.4,3.4 0 0 0 -0.42,-3.46 z m -13.4,17 a 21.23,21.23 0 0 1 -6.2,1 10,10 0 0 1 -5.24,-1.29 12.61,12.61 0 0 1 -2.16,-1.63 20.27,20.27 0 0 1 -3.63,-4.19 1.05,1.05 0 0 0 -0.89,-0.49 1.15,1.15 0 0 0 -0.59,0.17 1.08,1.08 0 0 0 -0.31,1.48 22.08,22.08 0 0 0 4,4.64 16.76,16.76 0 0 0 2.62,2 c 1.82,1.11 2.46,1 2.88,1.68 0.88,1.37 -0.16,4.56 -2.23,6 a 5.5,5.5 0 0 1 -3.19,0.88 c -2.54,0 -5.63,-1.19 -8.5,-3 a 0.83,0.83 0 0 0 0.07,-0.13 9.37,9.37 0 0 1 0.74,-1.36 9.49,9.49 0 0 1 1.1,-1.36 0.91,0.91 0 0 0 0,-1.29 0.93,0.93 0 0 0 -1.3,0 10.75,10.75 0 0 0 -1.31,1.63 9.88,9.88 0 0 0 -0.81,1.46 25.27,25.27 0 0 1 -4.3,-4 c -0.49,-0.59 -0.85,-1.08 -1.2,-1.56 -0.61,-0.84 -0.89,-1.16 -1,-1.28 a 13.61,13.61 0 0 0 -4.72,-3.49 6.26,6.26 0 0 0 -2.64,-0.74 c -0.32,0 -0.52,0 -0.65,0 h -0.06 a 1.07,1.07 0 0 0 -0.06,2.13 v 0 a 7.64,7.64 0 0 1 2.6,0.54 8,8 0 0 1 2.75,1.86 34,34 0 0 1 -8.83,6.62 31.39,31.39 0 0 1 -14.56,3.72 H 172 a 30.3,30.3 0 0 1 -8.42,-1.45 22.5,22.5 0 0 0 -1.7,3.58 6.32,6.32 0 0 0 -0.25,3.07 18.47,18.47 0 0 1 0.09,2.85 c -0.1,2 -0.71,7 -4.21,10.58 -0.43,0.44 -3.79,3.81 -7,3.81 h -0.26 a 3.6,3.6 0 0 1 -1.34,-0.32 c -3.86,-1.72 -3.78,-9.37 -2.24,-14.23 a 1.18,1.18 0 0 1 0.07,-0.2 11.94,11.94 0 0 1 2.73,-0.35 12.26,12.26 0 0 1 2.83,0.3 0.92,0.92 0 0 0 0.4,-1.79 14.24,14.24 0 0 0 -3.25,-0.34 16.1,16.1 0 0 0 -1.83,0.14 c 0.22,-0.38 0.45,-0.77 0.73,-1.22 0.28,-0.45 0.55,-0.89 0.89,-1.48 0.52,-0.87 1.18,-2.09 2,-3.71 1.33,-2.52 2.71,-5.7 3.7,-8.12 a 16.63,16.63 0 0 0 5.87,-4.8 0.91304436,0.91304436 0 1 0 -1.45,-1.11 15.1,15.1 0 0 1 -2.47,2.52 14.69,14.69 0 0 1 -2.73,1.74 8.18,8.18 0 0 1 -2.68,-1.61 c -2.66,-2.42 -2.71,-5.75 -2.74,-7.18 0,-1.64 -0.09,-5.06 2.57,-7.42 a 8,8 0 0 1 5.34,-2 8.69,8.69 0 0 1 3.77,0.86 8.49,8.49 0 0 1 3.59,3.3 16.21,16.21 0 0 1 2.07,-3.06 c 5.38,-6.23 14.64,-6.85 21.67,-7.22 0,0 18.45,-1 19.05,-3 a 3.29,3.29 0 0 1 1.21,-1.82 l 0.21,-0.12 c -0.9,-0.3 -1.8,-0.62 -2.67,-1 -0.64,-0.25 -1.29,-0.52 -1.93,-0.79 l -0.16,-0.07 h -0.18 a 55,55 0 0 1 -7.81,1.35 c -2,0.2 -3.94,0.31 -5.82,0.31 q -1.45,0 -2.85,-0.09 c -6.49,-0.38 -10.76,-2.11 -10.88,-4.38 -0.16,-3 9.12,-5.91 11.73,-6.49 2.41,-0.53 5.11,-0.87 5.11,-0.87 l 1.39,-0.16 a 55.86,55.86 0 0 1 5.82,-0.31 c 1,0 1.92,0 2.85,0.08 4.77,0.28 6.65,0.91 7.86,1.49 a 16.23,16.23 0 0 1 2.16,1.27 23.32,23.32 0 0 1 6.16,4.95 1,1 0 0 0 0.6,0.22 0.87,0.87 0 0 0 0.65,-0.28 0.88,0.88 0 0 0 0,-1 30.84,30.84 0 0 0 -6.09,-5.23 16.31,16.31 0 0 0 -2.3,-1.35 c -1.31,-0.62 -3.31,-1.29 -8.26,-1.59 -1,-0.05 -1.92,-0.08 -2.91,-0.08 a 57.94,57.94 0 0 0 -5.93,0.31 c -1.27,0.13 -2.52,0.3 -3.76,0.51 -3.25,-2.64 -4.88,-5.17 -4,-6.88 0.61,-1.28 2.51,-1.9 5.21,-1.9 a 34.38,34.38 0 0 1 9.29,1.58 58.84,58.84 0 0 1 6.22,2.24 c 0,0 11,4.5 14,9.15 0.64,1 1.28,2.15 1.28,2.15 0.33,0.59 0.52,1 0.91,1.7 0.26,0.5 0.62,1.17 1.06,2 a 19.87,19.87 0 0 1 11.41,5.36 20.2,20.2 0 0 1 5.59,10.58 4.08,4.08 0 0 0 -1.64,2.12 c -0.59,1.64 -0.17,3.14 0.59,3.64 a 1.15,1.15 0 0 0 0.25,0.12 1.26,1.26 0 0 0 0.7,0 13.41,13.41 0 0 1 -1.13,3.11 c -2.97,5.62 -8.53,7.46 -10.37,8.06 z"
       class="d"
       inkscape:connector-curvature="0"
       style="fill:#434345" /><path
       id="path5686"
       d="m 231.27,49.46 a 0.86,0.86 0 0 1 -0.28,0 c -0.9,0 -2.09,-1 -2.49,-2.71 -0.45,-1.87 0.3,-3.42 1.25,-3.65 h 0.28 c 0.91,0 2.09,1 2.5,2.71 0.47,1.87 -0.3,3.42 -1.26,3.65 z"
       class="d"
       inkscape:connector-curvature="0"
       style="fill:#434345" /><path
       id="path5688"
       d="m 224.66,55.51 -0.81,-0.35 -0.45,-0.2 a 3.68,3.68 0 0 0 -1.51,-0.35 3,3 0 0 0 -2.11,0.87 h -0.17 a 3.17,3.17 0 0 1 -1.32,-0.4 c -2,-1 -4.1,-1.83 -6.15,-2.74 -1.13,-0.5 -1.35,-0.94 -1.09,-2.14 a 1,1 0 0 0 -0.68,-1.33 1.47,1.47 0 0 0 -0.34,-0.05 1.06,1.06 0 0 0 -1,0.8 3.56,3.56 0 0 0 1.8,4.41 l 0.16,0.07 3.56,1.58 c 1.21,0.53 2.42,1.09 3.65,1.6 a 1.13,1.13 0 0 1 0.53,0.41 3.14,3.14 0 0 0 2,3.12 l 0.22,0.1 a 5.33,5.33 0 0 0 1,0.44 h 0.06 a 3.7,3.7 0 0 0 1.42,0.3 3.06,3.06 0 0 0 2.87,-2 3.1,3.1 0 0 0 -1.64,-4.14 z M 220.77,58 a 1.28,1.28 0 0 1 0.12,-0.69 1.62,1.62 0 0 1 0.27,-0.41 c 0.15,-0.08 0.3,-0.18 0.45,-0.28 a 0.86,0.86 0 0 1 0.28,0 1.74,1.74 0 0 1 0.69,0.17 l 1.24,0.55 a 1.12,1.12 0 0 1 0.69,1.57 1.07,1.07 0 0 1 -1,0.77 1.65,1.65 0 0 1 -0.65,-0.15 c -0.21,-0.08 -0.41,-0.18 -0.62,-0.27 L 221.6,59 A 1.84,1.84 0 0 1 221.04,58.62 1.35,1.35 0 0 1 220.77,58 Z"
       class="d"
       inkscape:connector-curvature="0"
       style="fill:#434345" /><path
       id="path5690"
       d="m 210.82,48.37 a 4.53,4.53 0 0 0 1.22,0.52 4.83,4.83 0 0 0 1.32,0.18 6.44,6.44 0 0 0 2.57,-0.57 9.82,9.82 0 0 0 4.31,-3.93 c 2.38,-3.9 2,-8.34 -0.93,-10.11 a 4.85,4.85 0 0 0 -2.56,-0.71 7,7 0 0 0 -3.86,1.3 7,7 0 0 0 -4.46,7.27 8.21,8.21 0 0 0 -0.06,1.56 5.4,5.4 0 0 0 2.45,4.49 z m 5.61,-12.1 h 0.33 a 2.48,2.48 0 0 1 0.68,0.09 2.24,2.24 0 0 1 0.57,0.25 c 1.66,1 1.7,4.07 0.1,6.68 a 7.3,7.3 0 0 1 -3.18,2.94 3.91,3.91 0 0 1 -1.57,0.36 2.29,2.29 0 0 1 -1.24,-0.33 2.48,2.48 0 0 1 -1,-1.31 h 0.22 a 5.79,5.79 0 0 0 4.56,-3.06 5.69,5.69 0 0 0 0.53,-5.62 z M 211,38.89 a 4.68,4.68 0 0 1 2.44,-2.09 l 0.27,-0.08 0.23,-0.16 0.41,-0.26 0.52,0.89 a 4,4 0 0 1 -0.53,3.74 4.07,4.07 0 0 1 -3,2.18 h -0.1 l -1,-0.07 c 0,-0.16 0,-0.32 0,-0.49 V 42.27 L 210.19,42 A 4.72,4.72 0 0 1 211,38.89 Z"
       class="d"
       inkscape:connector-curvature="0"
       style="fill:#434345" /><path
       id="path5692"
       d="m 160.46,49.88 a 8.69,8.69 0 0 0 -3.77,-0.86 8,8 0 0 0 -5.34,2 c -2.66,2.36 -2.6,5.78 -2.57,7.42 0,1.43 0.08,4.76 2.74,7.18 a 8.18,8.18 0 0 0 2.68,1.61 14.69,14.69 0 0 0 2.73,-1.74 15.1,15.1 0 0 0 2.47,-2.52 0.91,0.91 0 0 1 1.26,-0.18 19.22,19.22 0 0 0 2.23,-4.53 21.27,21.27 0 0 0 1.16,-5 8.49,8.49 0 0 0 -3.59,-3.38 z"
       class="e"
       inkscape:connector-curvature="0"
       style="fill:#58595b" /><path
       id="path5694"
       d="m 146.74,85.42 a 1.18,1.18 0 0 0 -0.07,0.2 c -1.54,4.86 -1.62,12.51 2.24,14.23 a 3.6,3.6 0 0 0 1.34,0.32 h 0.26 c 3.17,0 6.53,-3.37 7,-3.81 a 14.79,14.79 0 0 0 3.4,-6 13.48,13.48 0 0 0 -6.18,-5.21 10.82,10.82 0 0 0 -1.31,-0.46 0.92,0.92 0 0 1 -1.08,0.66 12.26,12.26 0 0 0 -2.83,-0.3 11.94,11.94 0 0 0 -2.77,0.37 z"
       class="e"
       inkscape:connector-curvature="0"
       style="fill:#58595b" /><path
       id="path5696"
       d="m 218.64,77.08 c 2.07,-1.41 3.11,-4.6 2.23,-6 -0.42,-0.64 -1.06,-0.57 -2.88,-1.68 a 16.63,16.63 0 0 1 -1.89,-1.33 12.18,12.18 0 0 0 -7.23,2.72 0.93,0.93 0 0 1 0,1.27 9.49,9.49 0 0 0 -1.1,1.36 9.37,9.37 0 0 0 -0.74,1.36 0.83,0.83 0 0 1 -0.07,0.13 c 2.87,1.83 6,3 8.5,3 a 5.5,5.5 0 0 0 3.18,-0.83 z"
       class="e"
       inkscape:connector-curvature="0"
       style="fill:#58595b" /><path
       id="path5698"
       d="m 224.89,34.71 c -0.44,-0.81 -0.8,-1.48 -1.06,-2 -0.39,-0.73 -0.58,-1.11 -0.91,-1.7 0,0 -0.64,-1.14 -1.28,-2.15 -2.95,-4.65 -14,-9.15 -14,-9.15 a 58.84,58.84 0 0 0 -6.22,-2.24 34.38,34.38 0 0 0 -9.29,-1.58 c -2.7,0 -4.6,0.62 -5.21,1.9 -0.83,1.71 0.8,4.24 4,6.88 1.24,-0.21 2.49,-0.38 3.76,-0.51 a 57.94,57.94 0 0 1 5.93,-0.31 c 1,0 2,0 2.91,0.08 4.95,0.3 6.95,1 8.26,1.59 a 16.31,16.31 0 0 1 2.3,1.35 30.84,30.84 0 0 1 6.09,5.23 0.88,0.88 0 0 1 0,1 0.87,0.87 0 0 1 -0.65,0.28 0.63,0.63 0 0 1 -0.19,0 v 0 a 6.24,6.24 0 0 0 2.37,0.7 c 1.33,0.27 2.18,0.42 3.14,0.61 a 28.41,28.41 0 0 1 3.58,0.79 14.06,14.06 0 0 0 1.58,0.52 22.89,22.89 0 0 0 -5.11,-1.29 z"
       class="e"
       inkscape:connector-curvature="0"
       style="fill:#58595b" /><path
       id="path5700"
       d="m 211,38.89 a 4.68,4.68 0 0 1 2.44,-2.09 l 0.27,-0.08 0.23,-0.16 0.41,-0.26 0.52,0.89 a 4,4 0 0 1 -0.53,3.74 4.07,4.07 0 0 1 -3,2.18 h -0.1 l -1,-0.07 c 0,-0.16 0,-0.32 0,-0.49 V 42.27 L 210.19,42 A 4.72,4.72 0 0 1 211,38.89 Z"
       class="e"
       inkscape:connector-curvature="0"
       style="fill:#58595b" /><path
       id="path5702"
       d="m 216.43,36.27 h 0.33 a 2.48,2.48 0 0 1 0.68,0.09 2.24,2.24 0 0 1 0.57,0.25 c 1.66,1 1.7,4.07 0.1,6.68 a 7.3,7.3 0 0 1 -3.18,2.94 3.91,3.91 0 0 1 -1.57,0.36 2.29,2.29 0 0 1 -1.24,-0.33 2.48,2.48 0 0 1 -1,-1.31 h 0.22 a 5.79,5.79 0 0 0 4.56,-3.06 5.69,5.69 0 0 0 0.53,-5.62 z"
       class="e"
       inkscape:connector-curvature="0"
       style="fill:#58595b" /><path
       id="path5704"
       d="m 241.19,100.78 4.72,-6.73 14.52,-4.11 a 1.22,1.22 0 0 0 -0.66,-2.34 l -14.52,4.11 -7.55,-3.26 a 1.22,1.22 0 0 0 -1.6,0.63 1.29,1.29 0 0 0 0,0.82 1.21,1.21 0 0 0 0.69,0.78 l 6.57,2.84 -4.11,5.86 a 1.24,1.24 0 0 0 -0.18,1 1.27,1.27 0 0 0 0.48,0.67 1.22,1.22 0 0 0 1.64,-0.27 z"
       class="b"
       inkscape:connector-curvature="0"
       style="fill:#ad621b" /><path
       id="path5706"
       d="m 198.88,112.19 a 1.22,1.22 0 0 0 -0.93,-1.45 l -9,-1.95 6.5,-6.49 a 1.21,1.21 0 0 0 0,-1.72 1.23,1.23 0 0 0 -1.72,0 l -7.86,7.85 -22,6.45 a 1.22,1.22 0 0 0 0.68,2.34 l 22,-6.46 10.86,2.36 a 1.22,1.22 0 0 0 1.47,-0.93 z"
       class="b"
       inkscape:connector-curvature="0"
       style="fill:#ad621b" /><path
       id="path5708"
       d="m 213.81,87.73 a 20.94,20.94 0 0 0 -11.25,7.08 c -2.55,3.27 -3.46,7 -2.57,10.35 a 1.54,1.54 0 0 1 0,0.17 c 0.94,3.32 3.52,6 7.29,7.57 a 22.18,22.18 0 0 0 24.52,-6.46 c 2.55,-3.28 3.46,-7 2.57,-10.35 a 1.21,1.21 0 0 1 0,-0.18 10.42,10.42 0 0 0 -2.11,-3.91 13.49,13.49 0 0 0 -5.18,-3.65 20.94,20.94 0 0 0 -13.27,-0.62 z m 12.68,2.76 a 11.22,11.22 0 0 1 4.32,3 8,8 0 0 1 1.61,3 v 0.14 c 0.7,2.64 -0.07,5.57 -2.17,8.26 a 20.4,20.4 0 0 1 -22.36,5.89 c -3.09,-1.28 -5.2,-3.41 -5.93,-6 v -0.13 c -0.7,-2.64 0.07,-5.57 2.17,-8.26 a 20.4,20.4 0 0 1 22.36,-5.89 z"
       class="b"
       inkscape:connector-curvature="0"
       style="fill:#ad621b" /><path
       id="path5710"
       d="m 207.6,100.7 a 1.13,1.13 0 0 1 -0.47,-0.12 1.07,1.07 0 0 1 -0.46,-1.44 14,14 0 0 1 17.33,-6.72 1.07,1.07 0 0 1 -0.73,2 11.89,11.89 0 0 0 -14.65,5.69 1.1,1.1 0 0 1 -1.02,0.59 z"
       class="b"
       inkscape:connector-curvature="0"
       style="fill:#ad621b" /><path
       id="path5712"
       d="m 127.28,112.66 a 5.31,5.31 0 0 0 1.48,0.3 h 0.1 0.38 l 0.15,-0.7 a 14.91,14.91 0 0 1 0.86,-2.77 12.09,12.09 0 0 1 1.58,-2.74 c 0.42,-0.58 0.5,-0.71 0.55,-1.07 a 2.71,2.71 0 0 0 -0.11,-1.18 6,6 0 0 0 -0.8,-1.6 l -0.41,0.28 v 0 l 0.35,-0.38 c -1.07,-1.81 -2.17,-3.62 -3.28,-5.36 -3.77,-5.93 -5.35,-7.61 -6.11,-8.42 a 24.11,24.11 0 0 0 -7,-5.14 59.16,59.16 0 0 0 -7.41,-2.71 c -1.49,-0.43 -3,-0.81 -4.54,-1.12 l -0.75,-0.15 0.15,0.74 c 0.13,0.6 0.38,1.78 0.7,2.92 l 0.11,0.38 a 37.58,37.58 0 0 0 2.12,5.38 10.19,10.19 0 0 1 0.59,1.39 2,2 0 0 1 -0.85,2.38 c -0.35,0.23 -1.63,0.81 -2.88,-0.79 -0.22,-0.29 -0.49,-0.66 -0.83,-1.14 A 51.28,51.28 0 0 0 96.59,85.1 L 96.18,84.67 95,83.38 l 0.4,1.73 c 1.09,4.7 0.65,5.68 -0.81,6.21 -1.46,0.53 -2.37,-0.6 -2.94,-1.5 A 8,8 0 0 0 89.8,87.64 c -0.92,-0.71 -2.28,-1.38 -7.78,-1.15 a 70.62,70.62 0 0 0 -8.72,1 l -0.64,0.12 0.27,0.59 a 23.71,23.71 0 0 0 3.81,5.79 45.11,45.11 0 0 0 4,3.77 c 1.69,1.46 2.54,2.2 2.82,3.17 a 2.12,2.12 0 0 1 -0.21,1.74 2,2 0 0 1 -0.77,0.75 l -0.85,0.46 0.86,0.43 c 13,6.6 23.94,6.88 32.72,7.11 4.57,0.07 8.57,0.18 11.97,1.24 z"
       class="f"
       inkscape:connector-curvature="0"
       style="fill:#4b9042" /><path
       id="path5714"
       d="m 147.68,142.63 a 3.21,3.21 0 0 0 -1,-0.39 13.48,13.48 0 0 1 -3.53,-1.44 15,15 0 0 1 -3.17,-2.44 c -0.17,-0.16 -0.37,-0.35 -0.49,-0.45 l -0.2,-0.16 -0.24,0.06 a 3.89,3.89 0 0 0 -1.64,1.19 34.23,34.23 0 0 0 -3,3.77 l -0.6,0.83 a 73.34,73.34 0 0 1 -5.36,6.35 71.73,71.73 0 0 0 -5.08,6 c -4.46,6.17 -10.44,13.51 -17.79,21.83 l -0.76,0.86 h 1.14 a 10.2,10.2 0 0 0 1.24,-0.1 3.82,3.82 0 0 1 2.8,0.46 3.49,3.49 0 0 1 1.39,2 c 0.41,1.42 0.13,3.16 -0.23,5.41 -0.16,1.07 -0.34,2.17 -0.44,3.32 a 28.73,28.73 0 0 0 0.07,5.93 l 0.11,1 0.72,-0.66 c 1.52,-1.37 3,-2.78 4.46,-4.18 2,-1.9 3,-2.95 3.68,-3.7 0.49,-0.57 1,-1.15 1.4,-1.66 1.79,-2.19 2.89,-3.39 4.49,-2.48 a 2,2 0 0 1 1,1.23 2.67,2.67 0 0 1 0.06,1.07 5.68,5.68 0 0 0 0,0.76 3.19,3.19 0 0 0 0,0.45 l 0.12,1 0.73,-0.73 c 0.28,-0.29 0.56,-0.58 0.82,-0.88 a 24.89,24.89 0 0 0 2.74,-3.93 c 1,-1.67 1.88,-2.91 3.51,-2.41 a 2.22,2.22 0 0 1 1.48,1.56 6.79,6.79 0 0 1 0.14,1.78 17.92,17.92 0 0 0 0.22,3.33 l 0.15,0.91 0.68,-0.63 a 33.68,33.68 0 0 0 3.18,-3.36 35.3,35.3 0 0 0 4.38,-7 c 1.65,-3.49 1.82,-5.5 2.55,-14 0.2,-2.24 0.44,-5 0.76,-8.4 l 0.08,-0.9 c 0.43,-4.5 0.77,-8.06 0.23,-10 v 0 a 1.86,1.86 0 0 0 -0.8,-1.2 z"
       class="f"
       inkscape:connector-curvature="0"
       style="fill:#4b9042" /><path
       id="path5716"
       d="m 82.68,177.86 a 1.72,1.72 0 0 1 0.25,0.53 c 0.27,1 -0.15,1.72 -1.43,3.66 -0.47,0.71 -1.06,1.6 -1.71,2.7 -0.38,0.63 -0.74,1.27 -1.09,1.91 l -1.65,3.07 3.17,-1.45 A 51.68,51.68 0 0 0 96.65,176.4 c 11.65,-12.17 33.12,-38.6 34,-39.7 l 0.13,-0.15 a 4.36,4.36 0 0 0 1.59,-2.81 2.35,2.35 0 0 0 -0.07,-0.71 v 0 a 5.43,5.43 0 0 0 -1,-1.63 11.77,11.77 0 0 1 -2.18,-4 v -0.14 a 12.35,12.35 0 0 1 -0.41,-3.9 7.63,7.63 0 0 0 0,-1.27 l -0.08,-0.46 -0.38,-0.27 a 3.82,3.82 0 0 0 -2.55,-0.38 l -8.58,0.33 c -3.9,0.15 -8.45,-0.17 -18,-2.2 a 144.48,144.48 0 0 1 -15,-4.06 c -5.73,-1.83 -9.2,-2.93 -15,-2.4 -0.71,0.06 -1.42,0.15 -2.12,0.25 l -2.58,0.39 2,1.67 c 1,0.84 1.2,1.28 1.3,1.62 a 1.49,1.49 0 0 1 -0.08,1 c -0.44,0.91 -1.3,1 -3,0.7 l -0.45,-0.07 a 42.57,42.57 0 0 0 -4.45,-0.38 h -1.23 v 1.23 a 5.33,5.33 0 0 0 0.19,1.32 7.82,7.82 0 0 0 0.9,1.9 5.24,5.24 0 0 1 0.56,1.15 1.71,1.71 0 0 1 -0.25,1.5 c -0.56,0.75 -1.33,0.74 -2.59,0.46 -0.34,-0.07 -0.72,-0.16 -1.14,-0.21 l -3.55,-0.48 2.58,2.48 0.46,0.42 a 2.89,2.89 0 0 1 1,1.31 1.64,1.64 0 0 1 0,0.88 c -0.28,1 -1.07,1.2 -2.45,1.35 -0.36,0 -0.76,0.08 -1.18,0.16 l -4.89,1 4.92,1.35 c 1,0.27 1.58,0.57 1.8,1.32 a 1.55,1.55 0 0 1 0,0.21 c 0.14,1 -0.52,1.53 -1.71,2.15 a 10.29,10.29 0 0 0 -2,1.26 c -0.14,0.12 -0.27,0.25 -0.4,0.38 l -1.25,1.26 1.65,0.65 a 13.19,13.19 0 0 0 1.42,0.48 18.73,18.73 0 0 0 3.43,0.56 c 1.45,0.12 2.19,0.33 2.43,1.21 v 0.17 c 0.19,1.08 -0.53,1.59 -2.65,2.48 -1.13,0.48 -2.67,1.13 -4.61,2.16 -0.83,0.44 -1.44,0.8 -2.37,1.33 l -1.24,0.74 -2.62,1.57 3,0.58 c 0.24,0 0.45,0.07 0.65,0.1 a 2.36,2.36 0 0 1 1.8,0.86 2.29,2.29 0 0 1 0.3,0.63 c 0.3,1.08 0,3 -5,8.38 -0.86,0.94 -1.78,1.85 -2.71,2.71 l -1.61,1.48 2.12,0.51 a 29.66,29.66 0 0 0 3.61,0.64 c 1.6,0.17 3.15,0.21 4.52,0.24 3.28,0.07 4.46,0.21 4.82,1.47 v 0.12 c 0.17,0.84 -0.31,1.4 -1.09,2 a 5.87,5.87 0 0 0 -1,0.91 l -1.7,2 2.62,-0.07 c 0.7,0 1.42,-0.07 2.12,-0.14 a 36.53,36.53 0 0 0 5.94,-1.24 c 2.55,-0.71 3.5,-0.76 4.08,0.28 a 1.22,1.22 0 0 1 0.14,0.33 c 0.25,0.89 -0.34,1.57 -1,2.3 a 15.6,15.6 0 0 0 -1.7,2.27 c -0.12,0.2 -0.24,0.4 -0.34,0.6 l -1,1.81 2.05,-0.09 c 0.84,0 1.68,-0.1 2.49,-0.19 a 46.87,46.87 0 0 0 9.13,-2.1 c 3.3,-1.07 4.64,-1.34 5.49,-0.11 z"
       class="g"
       inkscape:connector-curvature="0"
       style="fill:#5ab547" /><path
       id="path5718"
       d="m 131.18,133.34 a 0.87,0.87 0 0 1 0,0.33 3.3,3.3 0 0 1 -1.22,2 l -0.12,0.12 -0.1,0.12 c -0.22,0.27 -22.14,27.3 -34,39.65 a 51.75,51.75 0 0 1 -8.74,7.61 50,50 0 0 1 -7.22,4.05 c 0.34,-0.63 0.7,-1.25 1.06,-1.87 0.64,-1.07 1.22,-1.95 1.69,-2.66 1.21,-1.84 2,-3.06 1.58,-4.62 v 0 a 3,3 0 0 0 -0.42,-0.88 c -1.42,-2.06 -3.82,-1.3 -6.61,-0.43 a 44.93,44.93 0 0 1 -8.91,2.05 c -0.8,0.09 -1.6,0.16 -2.41,0.19 0.1,-0.18 0.2,-0.37 0.31,-0.55 a 14.33,14.33 0 0 1 1.59,-2.11 c 0.69,-0.79 1.63,-1.88 1.2,-3.38 a 2.09,2.09 0 0 0 -0.24,-0.58 c -1.13,-2 -3.3,-1.42 -5.41,-0.84 a 35.11,35.11 0 0 1 -5.75,1.2 c -0.67,0.08 -1.35,0.12 -2,0.14 a 4.72,4.72 0 0 1 0.83,-0.73 3.13,3.13 0 0 0 1.45,-3.15 v -0.1 -0.09 c -0.63,-2.22 -2.85,-2.27 -5.92,-2.33 -1.35,0 -2.87,-0.07 -4.42,-0.24 a 27.21,27.21 0 0 1 -3.46,-0.6 c 1,-0.89 1.89,-1.81 2.78,-2.77 5.35,-5.74 5.69,-8 5.25,-9.5 a 3.22,3.22 0 0 0 -0.47,-1 3.5,3.5 0 0 0 -2.6,-1.34 l -0.58,-0.09 1.23,-0.73 c 0.91,-0.53 1.52,-0.88 2.33,-1.31 1.88,-1 3.41,-1.64 4.52,-2.11 1.74,-0.74 3.71,-1.57 3.35,-3.75 v -0.15 -0.13 c -0.52,-1.83 -2.3,-2 -3.47,-2.08 a 16.59,16.59 0 0 1 -3.22,-0.52 12.43,12.43 0 0 1 -1.3,-0.44 c 0.1,-0.11 0.22,-0.21 0.33,-0.31 a 8.94,8.94 0 0 1 1.76,-1.11 c 0.84,-0.45 2.6,-1.37 2.32,-3.35 a 2.09,2.09 0 0 0 -0.08,-0.36 3.26,3.26 0 0 0 -2.61,-2.14 h -0.13 c 0.39,-0.07 0.76,-0.11 1.1,-0.15 1,-0.1 2.89,-0.3 3.44,-2.19 a 2.8,2.8 0 0 0 0,-1.52 3.89,3.89 0 0 0 -1.36,-1.87 l -0.42,-0.38 c 0.4,0 0.76,0.13 1.08,0.2 0.92,0.2 2.62,0.58 3.75,-0.91 a 2.85,2.85 0 0 0 0.44,-2.51 6.23,6.23 0 0 0 -0.69,-1.45 6.31,6.31 0 0 1 -0.77,-1.61 3.5,3.5 0 0 1 -0.15,-1 37.74,37.74 0 0 1 4.31,0.37 l 0.44,0.07 c 1.32,0.2 3.31,0.5 4.2,-1.36 a 2.7,2.7 0 0 0 0.15,-1.86 4.35,4.35 0 0 0 -1.69,-2.2 c 0.69,-0.1 1.37,-0.18 2.06,-0.25 5.61,-0.5 9,0.57 14.58,2.35 a 144.82,144.82 0 0 0 15.07,4.09 c 9.69,2.06 14.32,2.38 18.3,2.23 l 8.43,-0.32 h 0.21 a 2.8,2.8 0 0 1 1.76,0.15 c 0,0.2 0,0.66 0,1 a 13.6,13.6 0 0 0 0.45,4.24 v 0.15 a 12.91,12.91 0 0 0 2.38,4.4 4.94,4.94 0 0 1 0.8,1.24 v 0 m 2.34,-0.66 c -0.49,-1.72 -2.3,-2.69 -3.18,-5.67 a 0.65,0.65 0 0 1 0,-0.13 c -0.69,-2.43 -0.13,-4.07 -0.48,-5.32 a 2.31,2.31 0 0 0 -0.63,-1 4.64,4.64 0 0 0 -3.76,-0.83 L 117,120 c -4,0.15 -8.53,-0.23 -17.7,-2.18 -16.63,-3.53 -20.29,-7.39 -30.38,-6.48 a 38,38 0 0 0 -7.8,1.55 c 2.5,1.54 5.11,3.29 5.3,4 a 0.22,0.22 0 0 1 0,0.16 c -0.13,0.26 -1,0.09 -2.09,-0.07 a 41.11,41.11 0 0 0 -6.74,-0.42 7.37,7.37 0 0 0 -0.11,4.13 v 0 a 22.43,22.43 0 0 0 1.46,3 0.47,0.47 0 0 1 0,0.39 c -0.32,0.42 -1.38,-0.18 -3.18,-0.31 a 9.91,9.91 0 0 0 -3.54,0.41 c 0,0.13 0.07,0.28 0.11,0.43 a 7.78,7.78 0 0 0 1.16,2.4 c 0.91,1.23 1.88,1.72 2,2.15 a 0.31,0.31 0 0 1 0,0.19 c -0.16,0.57 -1.73,0.27 -3.75,0.88 a 9.47,9.47 0 0 0 -3.3,1.78 7.69,7.69 0 0 0 2.54,2.08 c 1.45,0.72 2.59,0.68 2.71,1.1 0,0 0,0 0,0 0.08,0.56 -1.62,0.88 -3.25,2.27 a 8.78,8.78 0 0 0 -2.27,3.1 15.88,15.88 0 0 0 4.17,1.84 c 2.85,0.8 4.87,0.47 5,0.93 v 0 c 0.09,0.54 -2.42,1.09 -6.61,3.31 -0.86,0.46 -1.5,0.83 -2.42,1.37 -1.84,1.07 -3.57,2.15 -5.17,3.21 q 0.59,0.38 1.32,0.75 c 0,0 0.81,0.41 1.62,0.73 2.22,0.87 3.06,0.46 3.43,1 a 0.7,0.7 0 0 1 0.11,0.23 c 0.47,1.65 -3.81,6.24 -4.69,7.18 a 49.19,49.19 0 0 1 -5.9,5.39 30,30 0 0 0 8.1,2.06 c 4.13,0.45 8,0 8.26,0.82 v 0 c 0.11,0.5 -1.27,0.83 -2.28,2.43 a 6.18,6.18 0 0 0 -0.91,3.28 27.32,27.32 0 0 0 5.5,0 c 5,-0.54 8.38,-2.31 8.78,-1.59 a 0.08,0.08 0 0 1 0,0.05 c 0.14,0.48 -1.2,1.38 -2.53,3.58 a 14.68,14.68 0 0 0 -1.73,4.22 37.71,37.71 0 0 0 6.19,-0.19 c 7.77,-0.88 12.42,-3.85 13.24,-2.66 a 0.6,0.6 0 0 1 0.08,0.16 c 0.21,0.75 -1.11,2.17 -3,5.38 a 50,50 0 0 0 -3.7,7.56 53.38,53.38 0 0 0 13.31,-6.48 55.08,55.08 0 0 0 9.26,-7.91 c 11.78,-12.32 33.2,-38.7 34.09,-39.81 a 5.71,5.71 0 0 0 2,-3.65 3.42,3.42 0 0 0 -0.12,-1.14 z"
       class="h"
       inkscape:connector-curvature="0"
       style="fill:#417e3c" /><path
       id="path5720"
       d="m 131.73,105 a 2.32,2.32 0 0 1 0.08,1 c 0,0.24 -0.06,0.29 -0.47,0.85 a 12.87,12.87 0 0 0 -1.68,2.81 15.24,15.24 0 0 0 -0.91,2.86 c 0,0.1 -0.05,0.22 -0.08,0.32 a 4.06,4.06 0 0 1 -1.39,-0.29 h -0.07 c -3.39,-1.1 -7.42,-1.26 -12.09,-1.44 -8.74,-0.33 -19.59,-0.75 -32.42,-7.45 a 2.58,2.58 0 0 0 1,-0.92 2.69,2.69 0 0 0 0.29,-2.15 c -0.32,-1.1 -1.19,-1.88 -2.93,-3.43 a 43.61,43.61 0 0 1 -3.88,-3.77 23.26,23.26 0 0 1 -3.66,-5.72 67.45,67.45 0 0 1 8.67,-0.84 c 5.33,-0.16 6.6,0.47 7.44,1.13 a 7.47,7.47 0 0 1 1.71,2.08 c 0.37,0.6 1.51,2.44 3.5,1.74 1.99,-0.7 2.22,-2.18 1.16,-6.88 l 0.4,0.43 a 50.29,50.29 0 0 1 4.72,6.06 c 0.34,0.49 0.61,0.88 0.83,1.17 a 2.6,2.6 0 0 0 3.53,1 2.51,2.51 0 0 0 1.1,-2.94 11.4,11.4 0 0 0 -0.6,-1.49 37.35,37.35 0 0 1 -2,-5.32 l -0.1,-0.37 c -0.3,-1.13 -0.54,-2.32 -0.65,-2.9 1.51,0.33 3,0.72 4.48,1.17 a 57.83,57.83 0 0 1 7.33,2.78 23.55,23.55 0 0 1 3.48,2.17 23.84,23.84 0 0 1 3.25,2.94 c 0.74,0.8 2.27,2.48 6,8.42 1.08,1.75 2.16,3.56 3.2,5.38 v 0.06 0.07 a 5.36,5.36 0 0 1 0.72,1.47 m 2.34,-0.66 a 7.8,7.8 0 0 0 -1,-2.15 c -1.28,-2.24 -2.4,-4.1 -3.24,-5.45 -3.7,-6 -5.3,-7.77 -6.23,-8.79 a 27,27 0 0 0 -3.56,-3.28 26.76,26.76 0 0 0 -3.88,-2.41 60.42,60.42 0 0 0 -7.68,-2.92 58,58 0 0 0 -8.08,-1.85 c 0.09,1 0.23,2 0.43,3.08 0,0 0.31,1.76 0.76,3.46 0,0.13 0.07,0.27 0.11,0.4 a 60.4,60.4 0 0 0 2.63,6.81 q 0,0.15 0,0.18 c -0.27,0.16 -2.38,-3.79 -6.06,-7.75 a 39,39 0 0 0 -6.41,-5.53 c 2.36,8.72 2.61,11.11 2.21,11.25 -0.4,0.14 -1,-1.9 -2.91,-3.44 -1.56,-1.23 -3.59,-1.82 -9,-1.65 a 70.49,70.49 0 0 0 -11.92,1.4 26,26 0 0 0 5.15,9.19 c 2.66,3 6,5.41 6.3,6.27 a 0.24,0.24 0 0 1 0,0.19 c -0.21,0.34 -1.33,-0.3 -3.37,-0.18 a 9.73,9.73 0 0 0 -3.09,0.73 c 2.59,1.73 4.76,2.93 6.09,3.64 20.33,10.77 36.16,6.27 45.22,9.23 0.62,0.2 2.52,0.86 3.77,0 1,-0.73 0.62,-1.78 1.66,-4.17 1.04,-2.39 2.07,-2.63 2.32,-4.27 a 4.73,4.73 0 0 0 -0.14,-2 z"
       class="h"
       inkscape:connector-curvature="0"
       style="fill:#417e3c" /><path
       id="path5722"
       d="m 147.94,144 v 0 c 0.52,1.82 0.18,5.34 -0.24,9.8 l -0.09,0.9 c -0.32,3.35 -0.56,6.15 -0.75,8.4 -0.73,8.42 -0.9,10.42 -2.51,13.83 a 34.67,34.67 0 0 1 -4.32,6.89 31.58,31.58 0 0 1 -3.13,3.31 17.56,17.56 0 0 1 -0.21,-3.24 7,7 0 0 0 -0.16,-1.91 2.72,2.72 0 0 0 -1.82,-1.91 c -2.13,-0.65 -3.26,1.25 -4.08,2.64 a 24.38,24.38 0 0 1 -2.69,3.85 c -0.25,0.29 -0.52,0.58 -0.79,0.85 a 2.5,2.5 0 0 1 0,-0.4 5.12,5.12 0 0 1 0,-0.72 3.25,3.25 0 0 0 -0.08,-1.24 2.57,2.57 0 0 0 -1.19,-1.53 c -2,-1.15 -3.48,0.59 -5.13,2.6 -0.42,0.51 -0.9,1.09 -1.39,1.65 -0.63,0.73 -1.64,1.71 -3.65,3.67 -1.45,1.41 -2.93,2.81 -4.44,4.17 a 28.48,28.48 0 0 1 -0.08,-5.83 c 0.11,-1.15 0.29,-2.25 0.46,-3.33 0.35,-2.26 0.64,-4 0.2,-5.58 a 3.87,3.87 0 0 0 -1.6,-2.26 4.21,4.21 0 0 0 -3.08,-0.53 11.88,11.88 0 0 1 -1.19,0.09 c 7.37,-8.33 13.35,-15.68 17.83,-21.86 a 67.61,67.61 0 0 1 5.07,-6 74.49,74.49 0 0 0 5.36,-6.37 l 0.61,-0.83 a 35.36,35.36 0 0 1 2.9,-3.71 3.82,3.82 0 0 1 1.41,-1.06 l 0.46,0.43 a 15.56,15.56 0 0 0 3.27,2.51 14.76,14.76 0 0 0 3.64,1.5 3,3 0 0 1 0.88,0.31 c 0.11,0.07 0.35,0.23 0.54,0.92 m 2.34,-0.66 a 3.8,3.8 0 0 0 -1.51,-2.27 c -1.15,-0.78 -2.21,-0.49 -4.67,-1.91 -2.89,-1.66 -3.1,-3 -4.53,-3.24 -2.52,-0.39 -4.93,3.31 -7.3,6.59 -3.17,4.36 -7.28,8 -10.45,12.37 a 304.1,304.1 0 0 1 -20.61,25 14.33,14.33 0 0 0 3.86,0.73 c 2.38,0.12 3.09,-0.44 3.83,0 a 1.53,1.53 0 0 1 0.6,0.9 c 0.45,1.59 -0.42,4.62 -0.74,8 a 32,32 0 0 0 0.88,10.73 c 2.52,-2.17 5.11,-4.53 7.76,-7.11 2.06,-2 3.09,-3 3.79,-3.81 1.72,-2 3.1,-3.94 3.48,-3.73 a 0.18,0.18 0 0 1 0,0.07 c 0,0.17 -0.06,0.57 0,1.38 a 8.66,8.66 0 0 0 0.25,1.78 l 0.18,0.71 a 12.85,12.85 0 0 0 0.77,2 20.89,20.89 0 0 0 3.88,-3.43 c 2.67,-3 3.6,-6 4.23,-5.77 0.09,0 0.15,0.1 0.19,0.24 0.19,0.68 -0.16,2.73 0.45,5.63 0.09,0.39 0.18,0.76 0.28,1.1 a 15,15 0 0 0 0.69,2 35,35 0 0 0 6.3,-6 36.43,36.43 0 0 0 4.64,-7.4 c 2.27,-4.81 2,-7.12 3.48,-23 0.51,-5.37 0.93,-9.2 0.25,-11.59 z"
       class="h"
       inkscape:connector-curvature="0"
       style="fill:#417e3c" /></g><g
     id="tooth"
     transform="translate(1.548497,16.961602)"><path
       d="m 185.425,51.423 c 1.041,-0.089 2.306,0.5 3.031,0.773 7.107,2.685 17.611,13.538 23.16,21.398 15.745,22.304 11.694,46.438 5.101,63.658 -22.38,58.462 -90.231,44.968 -110.5,28.5 8.201,-2.251 12.497,-7.919 16.625,-14.912 8.739,2.011 13.697,1.952 14.042,-3.754 18.919,11.165 42.946,4.876 56.167,-15.334 6.391,-9.77 17.973,-28.086 -1.834,-64 -4.763,-8.636 -6.735,-15.404 -5.792,-16.329 z"
       style="fill:#b3bfcd"
       id="path4848"
       inkscape:connector-curvature="0" /><path
       d="m 120.019,155.243 -3.044,0.335 -4.4,3.4 c 0.926,3.558 -1.372,5.643 -4.653,7.046 27.684,17.335 60.967,17.571 83.211,3.419 16.456,-10.469 25.688,-28.819 31.042,-53.265 0,0 -4.899,-1.934 -7.8,1.4 -8.7,10 -18.813,29.711 -27.8,37.2 -6.466,5.389 -19.817,9.793 -30.388,10.144 -15.512,0.515 -31,-6.847 -36.168,-9.679 z"
       style="fill:#93a1b5"
       id="path4850"
       inkscape:connector-curvature="0" /><path
       d="m 132.369,176.081 c 2.968,0.715 5.221,3.704 1.785,2.969 -3.093,-0.662 -6.128,-1.563 -9.164,-2.451 -6.083,-1.779 -15.916,-7.174 -18.053,-9.141 -0.255,-0.234 -1.133,-0.712 -1.305,-0.78 -0.157,-0.062 -2.171,0.065 -2.231,-0.204 -0.091,-0.411 1.157,-0.859 1.722,-1.002 1.442,-0.366 6.464,-2.566 6.378,-4.411 -0.071,-1.527 -2.286,-4.351 -1.997,-4.273 0.343,0.093 4.752,1.594 4.652,0.058 l 0.011,-0.005 c 0.021,-0.103 0.014,-0.212 0.003,-0.316 -0.021,-0.184 -0.064,-0.365 -0.115,-0.543 -0.172,-0.595 -0.44,-1.16 -0.722,-1.709 l -0.057,-0.109 c -0.03,-0.074 -0.068,-0.146 -0.091,-0.223 -0.046,-0.155 -0.061,-0.317 -0.045,-0.478 2.882,1.016 3.671,1.014 4.918,1.103 2.078,0.148 5.061,-3.258 2.755,-5.813 4.448,3.951 17.188,3.059 14.821,-1.653 l 0.02,-0.239 c 0.058,-0.203 0.059,-0.263 0.174,-0.444 0.261,-0.413 0.754,-0.639 1.238,-0.568 0.212,0.031 0.258,0.069 0.45,0.158 0.216,0.127 0.432,0.252 0.65,0.376 1.142,0.64 2.311,1.231 3.51,1.757 2.333,1.023 4.768,1.813 7.259,2.346 3.736,0.8 4.381,3.379 0.462,2.643 -2.577,-0.484 -5.104,-1.224 -7.536,-2.2 -1.286,-0.516 -2.541,-1.101 -3.769,-1.741 l -0.102,-0.053 c -2.731,3.7 -7.577,4.022 -14.814,2.388 l -0.008,-0.004 c -0.971,2.432 -1.92,4.774 -6.447,4.417 0.391,1.834 -2.308,3.855 -4.2,2.849 0.639,0.769 0.902,2.042 0.545,3.501 -0.41,1.675 -4.052,3.667 -4.522,3.645 0.197,0.139 0.762,0.562 0.961,0.698 0.56,0.375 1.125,0.741 1.7,1.093 2.71,1.659 5.576,3.059 8.509,4.276 4.098,1.7 8.343,3.045 12.655,4.083 z"
       style="fill:#08080a"
       id="path4852"
       inkscape:connector-curvature="0" /><path
       d="m 143.441,150.197 c 17.632,6.463 37.877,-0.509 49.61,-18.445 6.391,-9.77 17.973,-28.086 -1.834,-64 -4.763,-8.636 -6.735,-15.404 -5.792,-16.329 1.041,-0.089 2.306,0.5 3.031,0.773 7.107,2.685 17.611,13.538 23.16,21.398 15.745,22.304 11.694,46.438 5.101,63.658 -18.433,48.151 -67.71,47.49 -95.844,36.558"
       style="fill:none;stroke:#000000;stroke-width:2.5px;stroke-linecap:butt;stroke-miterlimit:1.41420996"
       id="path4854"
       inkscape:connector-curvature="0" /></g><g
     id="snout"
     transform="translate(1.548497,16.961602)"><path
       d="m 234.967,42.396 c 2.764,-4.253 8.761,-4.06 18.176,0.832 3.047,9.604 -4.024,9.242 -9.28,13.888 z"
       style="fill:#56606b"
       id="path4890"
       inkscape:connector-curvature="0" /><path
       d="m 242.496,57.519 c -1.207,-3.352 -2.893,-6.521 -4.913,-9.453 -1.119,-1.624 -2.342,-3.173 -3.64,-4.658 l -0.227,-0.376 c -0.027,-0.144 -0.08,-0.286 -0.082,-0.432 -0.002,-0.147 0.023,-0.296 0.072,-0.434 0.079,-0.221 0.166,-0.321 0.293,-0.471 0.152,-0.181 0.309,-0.358 0.47,-0.531 0.816,-0.877 1.754,-1.65 2.814,-2.214 0.582,-0.31 1.197,-0.555 1.834,-0.723 0.433,-0.115 0.875,-0.195 1.32,-0.239 0.319,-0.032 0.639,-0.046 0.96,-0.042 2.04,0.019 4.007,0.721 5.805,1.642 0.293,0.15 0.583,0.307 0.871,0.469 0.376,0.212 0.747,0.432 1.114,0.659 0.442,0.273 0.879,0.556 1.313,0.842 0.631,0.418 1.257,0.845 1.887,1.265 l 0.032,0.021 c 0.951,0.603 6.117,1.629 1.849,2.576 0,0 -3.661,1.412 -3.216,0.98 1.101,-1.068 -0.522,-1.829 -1.931,-2.756 -0.413,-0.272 -0.827,-0.541 -1.248,-0.801 -0.381,-0.235 -0.766,-0.464 -1.158,-0.681 -0.301,-0.168 -0.606,-0.329 -0.916,-0.481 -0.217,-0.108 -0.437,-0.211 -0.659,-0.308 -1.485,-0.655 -3.134,-1.107 -4.765,-0.858 -0.251,0.038 -0.498,0.092 -0.741,0.162 -0.408,0.118 -0.802,0.28 -1.176,0.479 -0.68,0.362 -1.287,0.843 -1.837,1.379 l -0.064,0.064 -0.006,0.007 c 0.215,0.255 0.427,0.512 0.638,0.771 1.227,1.516 2.378,3.093 3.426,4.739 1.874,2.945 3.424,6.102 4.531,9.414 l 0.026,0.079 c 0.479,2.186 0.175,12.285 -2.676,-0.09 z"
       id="path4892"
       inkscape:connector-curvature="0" /></g></svg>