<?xml version="1.0" encoding="UTF-8" standalone="no"?><!DOCTYPE svg PUBLIC "-//W3C//DTD SVG 1.1//EN" "http://www.w3.org/Graphics/SVG/1.1/DTD/svg11.dtd"><svg width="100%" height="100%" viewBox="0 0 330 235" version="1.1" xmlns="http://www.w3.org/2000/svg" xmlns:xlink="http://www.w3.org/1999/xlink" xml:space="preserve" style="fill-rule:evenodd;clip-rule:evenodd;stroke-linecap:round;stroke-linejoin:round;stroke-miterlimit:1.5;"><g id="zigs"><path d="M126.901,192.275c8.761,6.192 15.814,13.49 23.222,20.334c4.044,-2.902 21.574,-20.51 24.556,-20.556c3.061,-0.046 10.761,11.253 19.666,17.111c14.739,-5.825 22.606,-19.376 27.445,-19.333c7.098,0.063 21.314,22.8 22.889,21.556c10.664,-10.177 17,-21.228 21,-21.445c4.107,-0.223 10.102,11.219 20.333,22.667c9.401,-6.677 19.728,-22.511 24.111,-22.556c2.648,-0.027 20.319,22.556 20.319,22.556l0,22.403l-220.638,0l17.097,-42.737Z" style="fill:#4c5269;"/></g><g id="mastodon"><path d="M-0.05,235.109l0.25,-136.97c3.662,-5.584 10.315,-14.64 22.517,-20.72c-9.914,-7.959 -6.221,-16.817 0.296,-24.716c10.462,-12.679 25.467,-18.328 41.972,-16.182c-3.719,-4.252 -4.345,-5.729 -6.268,-9.435c11.337,-7.311 27.917,1.7 28.167,13.5c-0.136,-6.404 -2.855,-8.783 -1.667,-12.167c0.289,-0.011 0.577,-0.052 0.858,-0.018c17.264,2.078 26.303,18.554 17.142,28.351c33.605,3.604 59.756,52.679 95.675,52.586c37.871,-0.099 62.192,-36.921 35.992,-66.752c6.067,-7.321 13.278,-0.917 17.667,1.833c2.75,-2.482 4.25,-4.389 10.666,-6.333c5.917,6.222 -2.963,13.342 -0.833,18.833c6.393,16.481 6.361,50.928 -16.368,73.137c-14.105,13.782 -37.142,23.22 -73.465,17.696c-16.123,-2.452 -22.891,11.917 -36.192,29.058c-15.251,19.656 -17.901,41.707 -16.995,58.174l-119.414,0.125Z" style="fill:#56606b;"/><path d="M257.375,114.778c0.592,-1.223 -3.029,-0.751 -4,0.2c-10.167,9.967 -19.536,19.144 -34.2,22.4c-14.335,3.184 -33.1,2.867 -47.4,1.4c-9.93,-1.018 -24.681,4.919 -28.8,15l6.8,5.8c2.533,-4.849 8.314,-11.459 14.4,-11.8c11.933,-0.666 39.167,3.667 54.8,-1.8c15.568,-5.443 31.267,-16.466 38.4,-31.2Z" style="fill:#3a434e;"/><path d="M107.975,167.386c5.488,10.128 11.618,18.64 18.6,25l9.6,-16.8l-28.2,-8.2Z" style="fill:#3a434e;"/><path d="M22.975,76.978c-5.43,-4.965 -11.864,-9.557 -2.6,-20c0,0 6.25,9.293 12.2,5.2c14.257,-9.806 18.61,-14.051 33.6,-15c10.62,-0.672 26.565,3.652 28.4,10.6c2.149,8.138 -8.933,11.667 -15.4,15.6c-6.131,3.73 -13.2,8.034 -19,10.4c-4.952,2.021 -14.8,5 -14.8,5l-4,-2l-10,13.8l-17.8,-7.2l-5.4,-5.2l14.8,-11.2Z" style="fill:#3a434e;"/><path d="M103.384,55.375c0.031,0.004 0.063,0.006 0.093,0.012c0.093,0.016 0.183,0.048 0.266,0.093c0.34,0.182 0.528,0.573 0.46,0.953c-0.023,0.123 -0.071,0.242 -0.142,0.346c-0.018,0.026 -0.038,0.05 -0.057,0.075c-0.155,0.183 1.259,1.058 1.102,1.239c-0.67,0.194 -0.923,-0.127 -2.229,0.338c-1.556,0.554 -3.048,2.689 -4.338,3.72c-1.363,1.088 -2.794,2.091 -4.283,2.997c-2.466,1.499 -5.101,2.746 -7.865,3.586c-2.049,0.622 -4.181,1.021 -6.326,1.043c-0.561,0.006 -1.121,-0.015 -1.679,-0.065c-0.138,-0.012 -0.275,-0.026 -0.413,-0.042c-0.128,-0.015 -0.26,-0.025 -0.383,-0.067c-0.301,-0.104 -0.529,-0.367 -0.59,-0.679c-0.018,-0.093 0.182,-0.559 0.572,-0.626c0.448,-0.078 4.628,-0.144 5.858,-0.381c1.554,-0.298 3.26,-0.735 4.733,-1.31c2.455,-0.958 4.761,-2.334 6.942,-3.811c2.353,-1.594 4.356,-3.653 6.3,-5.727c0.421,-0.449 0.828,-0.909 1.225,-1.378l0.065,-0.069c0.024,-0.02 0.046,-0.042 0.071,-0.061c0.1,-0.077 0.215,-0.133 0.337,-0.163c0.082,-0.02 0.104,-0.018 0.187,-0.025c0.031,0 0.063,0.001 0.094,0.002Z" style="fill:#15181c;fill-rule:nonzero;"/><path d="M66.884,69.752c2.98,2.263 -13.562,4.511 -26.667,4.5" style="fill:none;stroke:#000;stroke-opacity:0.690196;stroke-width:1.8px;"/><path d="M149.717,94.586l5.834,-4.667" style="fill:none;stroke:#000;stroke-opacity:0.690196;stroke-width:1.8px;"/><path d="M158.551,102.252l6.5,-5.833" style="fill:none;stroke:#000;stroke-opacity:0.690196;stroke-width:1.8px;"/><path d="M176.884,112.586c1.34,-1.428 2.555,-4.052 3.667,-7.667" style="fill:none;stroke:#000;stroke-opacity:0.690196;stroke-width:1.8px;"/><path d="M191.051,116.752c1.163,-1.499 2.33,-4.107 3.5,-7.333" style="fill:none;stroke:#000;stroke-opacity:0.690196;stroke-width:1.8px;"/><path d="M99.384,96.919c-1.799,1.324 0.46,5.835 3.756,11.95c3.064,5.687 6.811,12.002 8.577,10.717c2.85,-2.075 -0.356,-9.201 -3,-14.167c-2.482,-4.663 -7.318,-9.984 -9.333,-8.5Z" style="fill:#3a434e;stroke:#05181e;stroke-width:2.7px;"/><path d="M99.568,133.34c7.003,-3.042 12.226,-1.139 12.855,0.449c1.041,2.632 -1.712,5.944 -9.068,9.081c-7.533,3.213 -11.034,1.908 -12.229,-0.658c-0.837,-1.796 2.482,-6.282 8.442,-8.872Z" style="fill:#4f5862;"/><path d="M-0.2,234.433l0,-1.527c0.1,0.126 0.201,0.252 0.303,0.376c0.326,0.395 0.666,0.779 1.019,1.151l-1.322,0Zm106.581,-178.478c1.339,0.253 -3.3,2.04 -3.3,2.04c-0.92,-0.093 -0.709,-1.267 -0.305,-2.441c0,0 0.705,-1.088 0.976,-1.51c0.536,-0.836 0.968,-1.738 1.276,-2.681c0.274,-0.836 0.449,-1.702 0.528,-2.578c0.052,-0.587 0.061,-1.177 0.029,-1.765c-0.023,-0.427 -0.068,-0.852 -0.132,-1.274c-0.488,-3.184 -2.092,-6.121 -4.222,-8.504c-0.374,-0.418 -0.766,-0.821 -1.173,-1.208c-0.572,-0.543 -1.174,-1.054 -1.801,-1.533c-0.782,-0.596 -1.604,-1.141 -2.456,-1.633c-1.245,-0.719 -2.556,-1.325 -3.908,-1.816c-1.205,-0.437 -2.442,-0.784 -3.697,-1.042c-0.625,-0.128 -1.253,-0.232 -1.885,-0.319l-0.114,-0.015c-0.122,1.02 0.171,2.034 0.455,3.003c0.159,0.533 0.323,1.064 0.478,1.598c0.272,0.951 0.511,1.91 0.68,2.885c0.185,1.072 0.006,3.929 -0.303,4.254c-0.345,0.363 -0.824,-1.27 -1.04,-2.014c-0.046,-0.156 -1.063,-2.533 -1.312,-3.07c-1.201,-2.584 -3.006,-4.466 -5.204,-6.252c-0.385,-0.313 -0.784,-0.612 -1.193,-0.895c-0.527,-0.363 -1.071,-0.701 -1.63,-1.012c-0.685,-0.38 -1.392,-0.721 -2.116,-1.019c-0.899,-0.369 -1.824,-0.674 -2.767,-0.907c-1.254,-0.311 -2.537,-0.49 -3.828,-0.536c-0.23,-0.007 -0.46,-0.01 -0.689,-0.009c-0.505,0.006 -1.009,0.03 -1.512,0.08c-0.96,0.094 -1.913,0.274 -2.841,0.543c-1.036,0.3 -2.034,0.713 -2.985,1.222l-0.005,0.003c0.584,1.048 0.809,2.129 1.363,3.195c0.771,1.486 1.45,2.23 2.617,4.045c0.506,0.789 2.57,2.986 2.256,2.831c-2.438,-1.204 -4.796,-0.6 -7.533,-0.419c-3.657,0.241 -7.303,0.989 -10.886,1.76c-3.669,0.791 -7.245,2.021 -10.604,3.698c-2.608,1.303 -5.082,2.874 -7.365,4.688c-2.244,1.785 -4.301,3.803 -6.136,6.007c-0.583,0.7 -3.315,0.138 -2.816,-0.495c0.78,-0.991 1.595,-1.953 2.451,-2.878c1.356,-1.466 2.811,-2.841 4.352,-4.11c3.066,-2.526 6.474,-4.628 10.097,-6.254c3.043,-1.366 6.234,-2.397 9.494,-3.099c3.381,-0.729 6.835,-1.104 10.292,-1.154c1.694,-0.025 3.386,0.034 5.076,0.155c-0.222,-0.26 -0.441,-0.522 -0.661,-0.785c-0.914,-1.105 -1.803,-2.23 -2.61,-3.416c-0.761,-1.118 -1.442,-2.285 -2.072,-3.481l-0.091,-0.174c-0.117,-0.383 -0.208,-0.494 -0.099,-0.901c0.1,-0.375 0.252,-0.491 0.535,-0.731c0.041,-0.036 0.092,-0.059 0.138,-0.088c0.473,-0.299 0.96,-0.575 1.459,-0.827c1.594,-0.805 3.309,-1.36 5.069,-1.656c0.991,-0.166 1.993,-0.247 2.998,-0.259c0.157,0 0.157,0 0.315,0c0.84,0.011 1.678,0.068 2.511,0.179c1.862,0.248 3.69,0.746 5.428,1.461c2.235,0.92 4.328,2.198 6.149,3.79c0.533,0.466 1.039,0.96 1.522,1.478l0.034,0.036c0,-0.112 0.121,-1.168 0.289,-1.644c0.157,-0.443 0.573,-1.14 0.721,-1.211c0.667,-0.318 1.785,-0.243 3.413,0.152c2.003,0.486 4.018,0.956 5.919,1.753c0.987,0.415 1.95,0.886 2.881,1.415c0.794,0.451 1.564,0.943 2.306,1.476c0.53,0.38 1.045,0.782 1.543,1.203c3.133,2.648 5.645,6.142 6.76,10.12c0.18,0.643 0.323,1.297 0.424,1.957c0.153,1.003 0.211,2.021 0.163,3.035c-0.058,1.218 -0.269,2.428 -0.635,3.591c-0.427,1.357 -1.062,2.653 -1.875,3.82c0.269,0.044 0.536,0.093 0.804,0.142Z"/><path d="M0.2,98.139c3.662,-5.584 10.315,-14.64 22.517,-20.72c-9.914,-7.959 -6.221,-16.817 0.296,-24.716c1.86,-2.254 3.864,-4.286 5.993,-6.091" style="fill:none;stroke:#000;stroke-width:2.5px;stroke-linecap:butt;stroke-miterlimit:1.41421;"/><path d="M103.217,56.752c33.605,3.604 59.756,52.679 95.675,52.586c37.871,-0.099 62.192,-36.921 35.992,-66.752c6.067,-7.321 13.278,-0.917 17.667,1.833c2.75,-2.482 4.25,-4.389 10.666,-6.333c5.917,6.222 -2.963,13.342 -0.833,18.833c6.393,16.481 6.361,50.928 -16.368,73.137c-14.105,13.782 -37.142,23.22 -73.465,17.696c-16.123,-2.452 -22.891,11.917 -36.192,29.058c-15.251,19.656 -17.901,41.707 -16.995,58.174" style="fill:none;stroke:#000;stroke-width:2.5px;stroke-linecap:butt;stroke-miterlimit:1.41421;"/></g><g id="ear"><path d="M-0.2,82.153c1.465,-0.675 2.995,-1.047 4.584,-1.067c14.728,-0.191 23.716,10.351 30.667,29.5l-5.667,51.333c-8.83,15.645 -19.32,22.601 -29.584,22.197l0,-101.963Z" style="fill:#56606b;"/><path d="M29.575,161.778c-6.286,14.409 -16.353,21.623 -29.8,22.4l-0.8,17.8c17.772,-2.913 32.907,-18.909 32.708,-34.4c-0.031,-2.45 0.409,-5.588 -2.108,-5.8Z" style="fill:#3a434e;"/><path d="M-0.322,181.638l0.437,1.238c0.17,0.004 0.17,0.004 0.339,0.006c0.386,0.001 0.771,-0.004 1.156,-0.022c0.854,-0.041 1.705,-0.137 2.547,-0.285c0.782,-0.137 1.557,-0.32 2.319,-0.544c0.548,-0.161 1.09,-0.344 1.624,-0.546c3.629,-1.374 6.866,-3.636 9.686,-6.276c0.463,-0.435 0.916,-0.88 1.36,-1.335c0.618,-0.634 1.216,-1.287 1.797,-1.955c0.769,-0.885 1.507,-1.798 2.216,-2.731c0.834,-1.099 5.784,-8.459 5.999,-8.498c0.143,-0.027 0.29,-0.028 0.434,-0.004c0.144,0.025 0.282,0.074 0.409,0.146c0.385,0.218 -5.943,11.794 -8.351,14.038c-0.5,0.467 -0.944,0.991 -1.433,1.47c-3.031,2.974 -6.524,5.542 -10.462,7.177c-0.507,0.211 -1.022,0.406 -1.542,0.584c-2.419,0.828 -4.964,1.277 -7.522,1.282c-0.338,0.001 -0.676,-0.006 -1.013,-0.021l0,-3.724Zm0,-100.798c0.326,-0.138 0.658,-0.263 0.995,-0.375c0.415,-0.138 0.838,-0.255 1.265,-0.349c0.489,-0.107 0.985,-0.185 1.484,-0.231c0.252,-0.023 0.503,-0.036 0.756,-0.045c0.242,-0.005 0.484,-0.007 0.726,-0.007c0.818,0.006 1.634,0.039 2.448,0.111c1.45,0.127 2.891,0.368 4.3,0.734c1.417,0.369 2.801,0.864 4.129,1.482c0.881,0.41 1.738,0.873 2.564,1.384c0.556,0.344 1.099,0.709 1.627,1.094c3.727,2.714 6.691,6.349 9.114,10.241c0.488,0.783 0.955,1.578 1.404,2.384c1.606,2.881 4.443,13.486 4.447,13.632c0.02,0.667 -0.655,0.719 -0.843,0.495c-0.126,-0.149 -0.136,-0.201 -0.218,-0.376c-0.161,-0.441 -0.323,-0.881 -0.488,-1.321c-1.126,-2.978 -2.358,-5.918 -3.788,-8.765c-1.028,-2.047 -2.155,-4.046 -3.425,-5.953c-2.286,-3.435 -5.067,-6.614 -8.526,-8.908c-0.569,-0.378 -1.154,-0.73 -1.755,-1.054c-0.937,-0.506 -1.91,-0.944 -2.911,-1.307c-1.589,-0.577 -3.244,-0.963 -4.921,-1.173c-0.943,-0.118 -1.892,-0.182 -2.841,-0.196c-0.423,-0.007 -0.848,-0.011 -1.271,0.015c-0.347,0.021 -0.693,0.061 -1.036,0.12c-1.134,0.195 -2.224,0.596 -3.236,1.137l0,-2.769Z"/><path d="M-0.283,99.086c5.874,-3.336 11.929,-1.378 18.167,6c-9.031,1.219 -5.404,8.43 2.5,9.166c-7.718,4.048 -8.567,8.798 3.5,12.534c-3.064,17.657 -11.848,25.767 -24.109,25.192" style="fill:#3a434e;"/><path d="M22.884,126.586c-12.067,-3.736 -10.218,-8.286 -2.5,-12.334c-7.904,-0.736 -11.531,-7.947 -2.5,-9.166c-6.238,-7.378 -12.293,-9.336 -18.167,-6" style="fill:none;stroke:#000;stroke-width:2.5px;"/><path d="M5.384,170.086c-2.131,2.23 -4.079,3.994 -5.667,4.833" style="fill:none;stroke:#000;stroke-width:2px;"/></g><g id="tooth"><path d="M185.425,51.423c1.041,-0.089 2.306,0.5 3.031,0.773c7.107,2.685 17.611,13.538 23.16,21.398c15.745,22.304 11.694,46.438 5.101,63.658c-22.38,58.462 -90.231,44.968 -110.5,28.5c8.201,-2.251 12.497,-7.919 16.625,-14.912c8.739,2.011 13.697,1.952 14.042,-3.754c18.919,11.165 42.946,4.876 56.167,-15.334c6.391,-9.77 17.973,-28.086 -1.834,-64c-4.763,-8.636 -6.735,-15.404 -5.792,-16.329Z" style="fill:#b3bfcd;"/><path d="M120.019,155.243l-3.044,0.335l-4.4,3.4c0.926,3.558 -1.372,5.643 -4.653,7.046c27.684,17.335 60.967,17.571 83.211,3.419c16.456,-10.469 25.688,-28.819 31.042,-53.265c0,0 -4.899,-1.934 -7.8,1.4c-8.7,10 -18.813,29.711 -27.8,37.2c-6.466,5.389 -19.817,9.793 -30.388,10.144c-15.512,0.515 -31,-6.847 -36.168,-9.679Z" style="fill:#93a1b5;"/><path d="M132.369,176.081c2.968,0.715 5.221,3.704 1.785,2.969c-3.093,-0.662 -6.128,-1.563 -9.164,-2.451c-6.083,-1.779 -15.916,-7.174 -18.053,-9.141c-0.255,-0.234 -1.133,-0.712 -1.305,-0.78c-0.157,-0.062 -2.171,0.065 -2.231,-0.204c-0.091,-0.411 1.157,-0.859 1.722,-1.002c1.442,-0.366 6.464,-2.566 6.378,-4.411c-0.071,-1.527 -2.286,-4.351 -1.997,-4.273c0.343,0.093 4.752,1.594 4.652,0.058l0.011,-0.005c0.021,-0.103 0.014,-0.212 0.003,-0.316c-0.021,-0.184 -0.064,-0.365 -0.115,-0.543c-0.172,-0.595 -0.44,-1.16 -0.722,-1.709l-0.057,-0.109c-0.03,-0.074 -0.068,-0.146 -0.091,-0.223c-0.046,-0.155 -0.061,-0.317 -0.045,-0.478c2.882,1.016 3.671,1.014 4.918,1.103c2.078,0.148 5.061,-3.258 2.755,-5.813c4.448,3.951 17.188,3.059 14.821,-1.653l0.02,-0.239c0.058,-0.203 0.059,-0.263 0.174,-0.444c0.261,-0.413 0.754,-0.639 1.238,-0.568c0.212,0.031 0.258,0.069 0.45,0.158c0.216,0.127 0.432,0.252 0.65,0.376c1.142,0.64 2.311,1.231 3.51,1.757c2.333,1.023 4.768,1.813 7.259,2.346c3.736,0.8 4.381,3.379 0.462,2.643c-2.577,-0.484 -5.104,-1.224 -7.536,-2.2c-1.286,-0.516 -2.541,-1.101 -3.769,-1.741l-0.102,-0.053c-2.731,3.7 -7.577,4.022 -14.814,2.388l-0.008,-0.004c-0.971,2.432 -1.92,4.774 -6.447,4.417c0.391,1.834 -2.308,3.855 -4.2,2.849c0.639,0.769 0.902,2.042 0.545,3.501c-0.41,1.675 -4.052,3.667 -4.522,3.645c0.197,0.139 0.762,0.562 0.961,0.698c0.56,0.375 1.125,0.741 1.7,1.093c2.71,1.659 5.576,3.059 8.509,4.276c4.098,1.7 8.343,3.045 12.655,4.083Z" style="fill:#08080a;"/><path d="M143.441,150.197c17.632,6.463 37.877,-0.509 49.61,-18.445c6.391,-9.77 17.973,-28.086 -1.834,-64c-4.763,-8.636 -6.735,-15.404 -5.792,-16.329c1.041,-0.089 2.306,0.5 3.031,0.773c7.107,2.685 17.611,13.538 23.16,21.398c15.745,22.304 11.694,46.438 5.101,63.658c-18.433,48.151 -67.71,47.49 -95.844,36.558" style="fill:none;stroke:#000;stroke-width:2.5px;stroke-linecap:butt;stroke-miterlimit:1.41421;"/></g><g id="fairydust"><path d="M218.411,35.777c-3.4,-4.494 -21.276,0.906 -21.276,0.906l-0.838,-2.508c0,0 25.291,-10.628 36.667,-7.244" style="fill:#1f3330;stroke:#000;stroke-width:1.65px;"/><path d="M218.286,38.978c0,0 -0.889,-2.985 -1.962,-6.586c37.655,-35.279 64.279,-11.974 64.279,-11.974l0.012,0.041c0,0 -9.535,34.074 -60.356,25.145c-1.072,-3.602 -1.961,-6.586 -1.961,-6.586" style="fill:#1f3230;"/><path d="M218.836,40.526c25.477,0.134 43.331,-4.052 61.69,-19.785c0.293,-0.149 -6.478,25.922 -48.844,27.274c-5.939,-2.212 -8.261,-2.262 -12.156,-0.774c2.291,-0.796 0.053,-6.347 -0.69,-6.715Z" style="fill:#172523;"/><path d="M218.286,38.978c0,0 -0.889,-2.985 -1.962,-6.586c37.655,-35.279 64.279,-11.974 64.279,-11.974l0.012,0.041c0,0 -9.535,34.074 -60.356,25.145c-1.072,-3.602 -1.961,-6.586 -1.961,-6.586" style="fill:none;stroke:#000;stroke-width:1.65px;"/><path d="M221.273,45.077c-0.449,4.982 -17.14,9.762 -17.14,9.762l0.581,2.261c0,0 25.088,-4.559 32.343,-12.632" style="fill:#1f3330;stroke:#000;stroke-width:1.65px;"/><path d="M221.14,42.984c8.607,-1.337 23.666,1.3 10.542,5.031c-5.939,-2.212 -8.261,-2.262 -12.156,-0.774c2.291,-0.796 2.357,-3.889 1.614,-4.257Z" style="fill:#172523;"/><path d="M221.273,45.077c-0.449,4.982 -17.14,9.762 -17.14,9.762l0.581,2.261c0,0 25.088,-4.559 32.343,-12.632" style="fill:none;stroke:#000;stroke-width:1.65px;"/><path d="M218.381,36.857c-7.915,2.284 -19.654,5.284 -19.654,5.284l-0.214,-1.787c0,0 23.303,-11.103 33.67,-11.388" style="fill:#1f3330;"/><path d="M198.526,42.074c17.474,-7.854 25.141,-10.036 34.653,-13.09c-0.166,0.044 -0.864,3.962 -5.779,6.858c-1.989,1.172 -4.624,2.65 -8.718,1.673c-1.533,-1.143 -14.094,3.738 -20.156,4.559Z" style="fill:#172523;"/><path d="M218.381,36.857c-7.915,2.284 -19.654,5.284 -19.654,5.284l-0.214,-1.787c0,0 23.303,-11.103 33.67,-11.388" style="fill:none;"/><path d="M232.936,28.876c0.392,0.696 -4.254,0.989 -5.076,1.151c-0.454,0.09 -1.896,0.419 -2.835,0.664c-2.426,0.635 -4.817,1.402 -7.184,2.228c-3.175,1.108 -6.309,2.329 -9.415,3.614c-3.067,1.269 -6.107,2.601 -9.117,3.999l-0.257,0.12l0.103,0.863c1.193,-0.307 2.385,-0.617 3.577,-0.927c5.183,-1.357 10.362,-2.733 15.511,-4.212l0.276,0.961c-3.226,0.927 -6.463,1.812 -9.706,2.679c-3.143,0.841 -6.291,1.665 -9.442,2.476l-0.52,0.134c-0.068,0.011 -0.085,0.019 -0.154,0.014c-0.183,-0.01 -0.349,-0.124 -0.425,-0.291c-0.029,-0.063 -0.029,-0.081 -0.042,-0.148l-0.214,-1.788c-0.002,-0.069 -0.007,-0.087 0.006,-0.155c0.02,-0.103 0.073,-0.197 0.149,-0.269c0.051,-0.047 0.069,-0.053 0.128,-0.087c0.342,-0.161 0.683,-0.321 1.026,-0.48c3.294,-1.517 6.622,-2.965 9.982,-4.331c3.17,-1.289 6.37,-2.509 9.614,-3.599c2.357,-0.792 4.74,-1.52 7.16,-2.095c0.924,-0.22 1.95,-0.415 2.894,-0.525c1.971,-0.23 3.961,0.004 3.961,0.004Z" style="fill-rule:nonzero;"/><path d="M232.936,28.876c0.392,0.696 -4.254,0.989 -5.076,1.151c-0.454,0.09 -1.896,0.419 -2.835,0.664c-2.426,0.635 -4.817,1.402 -7.184,2.228c-3.175,1.108 -6.309,2.329 -9.415,3.614c-3.067,1.269 -6.107,2.601 -9.117,3.999l-0.257,0.12l0.103,0.863c1.193,-0.307 2.385,-0.617 3.577,-0.927c5.183,-1.357 10.362,-2.733 15.511,-4.212l0.276,0.961c-3.226,0.927 -6.463,1.812 -9.706,2.679c-3.143,0.841 -6.291,1.665 -9.442,2.476l-0.52,0.134c-0.068,0.011 -0.085,0.019 -0.154,0.014c-0.183,-0.01 -0.349,-0.124 -0.425,-0.291c-0.029,-0.063 -0.029,-0.081 -0.042,-0.148l-0.214,-1.788c-0.002,-0.069 -0.007,-0.087 0.006,-0.155c0.02,-0.103 0.073,-0.197 0.149,-0.269c0.051,-0.047 0.069,-0.053 0.128,-0.087c0.342,-0.161 0.683,-0.321 1.026,-0.48c3.294,-1.517 6.622,-2.965 9.982,-4.331c3.17,-1.289 6.37,-2.509 9.614,-3.599c2.357,-0.792 4.74,-1.52 7.16,-2.095c0.924,-0.22 1.95,-0.415 2.894,-0.525c1.971,-0.23 3.961,0.004 3.961,0.004Z" style="fill-rule:nonzero;"/><path d="M227.651,42.528c1.034,0.018 2.059,0.203 3.039,0.533c0.573,0.193 1.133,0.435 1.663,0.728c0.538,0.298 1.053,0.64 1.533,1.026c0.24,0.193 0.586,0.539 0.811,0.749l-0.165,0.103c-0.12,-0.085 -0.347,-0.224 -0.469,-0.307c-0.127,-0.086 -0.256,-0.17 -0.387,-0.251c-1.039,-0.649 -2.195,-1.114 -3.391,-1.381c-0.363,-0.081 -0.731,-0.146 -1.1,-0.192c-0.449,-0.057 -0.9,-0.088 -1.352,-0.104c-0.458,-0.016 -0.917,-0.014 -1.374,0.012c-1.067,0.059 -2.129,0.237 -3.159,0.52c-0.774,0.212 -1.528,0.488 -2.264,0.805l-0.121,0.052l-0.111,-0.228c0.458,-0.275 0.922,-0.531 1.404,-0.761c0.375,-0.179 0.757,-0.345 1.145,-0.493c0.193,-0.074 0.387,-0.147 0.584,-0.21c0.319,-0.102 0.64,-0.199 0.966,-0.276c0.332,-0.079 0.666,-0.146 1.002,-0.2c0.492,-0.078 0.991,-0.115 1.488,-0.125c0.086,-0.001 0.172,0 0.258,0Z" style="fill:#d79e00;fill-rule:nonzero;"/><path d="M267.781,18.748c1.78,0.003 3.559,0.137 5.319,0.402c1.477,0.222 2.939,0.536 4.386,0.905c0.412,0.105 0.822,0.214 1.232,0.327c0.335,0.092 0.67,0.185 1.002,0.286c-0.512,-0.077 -1.022,-0.168 -1.534,-0.248c-1.548,-0.237 -3.104,-0.428 -4.669,-0.514c-0.818,-0.045 -1.637,-0.06 -2.457,-0.05c-0.763,0.009 -1.526,0.054 -2.286,0.12c-1.09,0.094 -2.175,0.243 -3.252,0.434c-0.586,0.104 -13.341,3.485 -13.777,3.618c-0.682,0.207 -1.361,0.422 -2.041,0.635c-0.569,0.179 -1.139,0.356 -1.707,0.538c-0.972,0.311 -1.94,0.631 -2.908,0.953c-0.595,0.199 -1.192,0.396 -1.787,0.597c-1.101,0.371 -2.199,0.751 -3.297,1.133c-1.776,0.619 -3.551,1.244 -5.32,1.883l-0.462,0.165l-0.465,0.17c-0.079,0.134 -0.16,0.267 -0.242,0.399c-0.196,0.308 -0.398,0.611 -0.611,0.907c-0.418,0.58 -0.872,1.134 -1.359,1.658c-0.588,0.635 -1.224,1.226 -1.901,1.765c-0.522,0.417 -1.068,0.803 -1.636,1.154c-0.467,0.289 -0.949,0.557 -1.445,0.793c-0.41,0.196 -0.827,0.375 -1.253,0.532c-0.33,0.121 -0.664,0.23 -1.002,0.325c-0.282,0.079 -0.566,0.149 -0.852,0.207c-1.665,0.34 -3.467,0.324 -5.039,-0.381c-0.296,-0.132 -0.577,-0.29 -0.848,-0.467c0.071,0.039 0.141,0.077 0.212,0.115c0.324,0.162 0.658,0.299 1.005,0.403c1.622,0.487 3.379,0.304 4.972,-0.205c0.271,-0.086 0.54,-0.183 0.804,-0.288c0.317,-0.126 0.629,-0.266 0.936,-0.416c0.405,-0.199 0.801,-0.419 1.187,-0.655c0.441,-0.27 0.869,-0.563 1.281,-0.877c0.552,-0.42 1.076,-0.876 1.569,-1.363c0.586,-0.578 1.128,-1.201 1.62,-1.86c0.402,-0.539 0.771,-1.103 1.103,-1.688c0.168,-0.298 0.324,-0.602 0.477,-0.907l0.048,-0.079c0.052,-0.063 0.062,-0.082 0.127,-0.134c0.065,-0.051 0.086,-0.057 0.159,-0.093c0,0 0.435,-0.186 0.652,-0.279c0.636,-0.274 1.272,-0.549 1.909,-0.821c1.25,-0.532 2.501,-1.065 3.758,-1.582c0.9,-0.371 1.8,-0.737 2.703,-1.098c0.769,-0.309 1.539,-0.617 2.312,-0.916c1.122,-0.433 2.248,-0.856 3.377,-1.27c0.404,-0.149 0.808,-0.297 1.214,-0.44c0.828,-0.294 1.662,-0.575 2.496,-0.852c0.478,-0.158 13.231,-2.838 13.847,-2.873c0.581,-0.033 1.162,-0.053 1.744,-0.064c0.233,-0.002 0.466,-0.004 0.699,-0.004Z" style="fill:#d79e00;fill-rule:nonzero;"/><path d="M266.449,19.31c0.709,3.214 -2.34,6.722 -6.736,7.691c-4.395,0.969 -8.539,-0.854 -9.248,-4.069c0.496,-3.215 3.431,-5.125 6.847,-5.802c3.095,-0.614 6.621,-0.794 9.137,2.18Z" style="fill:#aaa;"/><path d="M265.046,19.718c0.589,2.67 -2.009,4.993 -5.661,5.798c-3.652,0.805 -6.984,-0.21 -7.573,-2.881c-0.588,-2.671 1.389,-5.714 5.042,-6.519c3.652,-0.805 7.604,0.931 8.192,3.602Z" style="fill:#f5d200;"/></g><g id="snout"><path d="M234.967,42.396c2.764,-4.253 8.761,-4.06 18.176,0.832c3.047,9.604 -4.024,9.242 -9.28,13.888l-8.896,-14.72Z" style="fill:#56606b;"/><path d="M242.496,57.519c-1.207,-3.352 -2.893,-6.521 -4.913,-9.453c-1.119,-1.624 -2.342,-3.173 -3.64,-4.658l-0.227,-0.376c-0.027,-0.144 -0.08,-0.286 -0.082,-0.432c-0.002,-0.147 0.023,-0.296 0.072,-0.434c0.079,-0.221 0.166,-0.321 0.293,-0.471c0.152,-0.181 0.309,-0.358 0.47,-0.531c0.816,-0.877 1.754,-1.65 2.814,-2.214c0.582,-0.31 1.197,-0.555 1.834,-0.723c0.433,-0.115 0.875,-0.195 1.32,-0.239c0.319,-0.032 0.639,-0.046 0.96,-0.042c2.04,0.019 4.007,0.721 5.805,1.642c0.293,0.15 0.583,0.307 0.871,0.469c0.376,0.212 0.747,0.432 1.114,0.659c0.442,0.273 0.879,0.556 1.313,0.842c0.631,0.418 1.257,0.845 1.887,1.265l0.032,0.021c0.951,0.603 6.117,1.629 1.849,2.576c0,0 -3.661,1.412 -3.216,0.98c1.101,-1.068 -0.522,-1.829 -1.931,-2.756c-0.413,-0.272 -0.827,-0.541 -1.248,-0.801c-0.381,-0.235 -0.766,-0.464 -1.158,-0.681c-0.301,-0.168 -0.606,-0.329 -0.916,-0.481c-0.217,-0.108 -0.437,-0.211 -0.659,-0.308c-1.485,-0.655 -3.134,-1.107 -4.765,-0.858c-0.251,0.038 -0.498,0.092 -0.741,0.162c-0.408,0.118 -0.802,0.28 -1.176,0.479c-0.68,0.362 -1.287,0.843 -1.837,1.379l-0.064,0.064l-0.006,0.007c0.215,0.255 0.427,0.512 0.638,0.771c1.227,1.516 2.378,3.093 3.426,4.739c1.874,2.945 3.424,6.102 4.531,9.414l0.026,0.079c0.479,2.186 0.175,12.285 -2.676,-0.09Z"/></g><g id="exaust"><path d="M122.061,42.168c53.834,-25.301 54.332,14.346 89,1.25" style="fill:none;stroke:#ca3b00;stroke-width:3.06px;stroke-dasharray:4.6,16.85,0,0;"/></g></svg>