<?xml version="1.0" encoding="UTF-8" standalone="no"?>
<svg
   xmlns:dc="http://purl.org/dc/elements/1.1/"
   xmlns:cc="http://creativecommons.org/ns#"
   xmlns:rdf="http://www.w3.org/1999/02/22-rdf-syntax-ns#"
   xmlns:svg="http://www.w3.org/2000/svg"
   xmlns="http://www.w3.org/2000/svg"
   xmlns:sodipodi="http://sodipodi.sourceforge.net/DTD/sodipodi-0.dtd"
   xmlns:inkscape="http://www.inkscape.org/namespaces/inkscape"
   width="339.97784"
   height="263.62009"
   stroke-miterlimit="1.5"
   version="1.1"
   viewBox="0 0 339.97785 263.62008"
   xml:space="preserve"
   id="svg895"
   sodipodi:docname="mastodon-aro.svg"
   inkscape:version="0.92.4 5da689c313, 2019-01-14"
   style="clip-rule:evenodd;fill-rule:evenodd;stroke-linecap:round;stroke-linejoin:round;stroke-miterlimit:1.5"><metadata
   id="metadata901"><rdf:RDF><cc:Work
       rdf:about=""><dc:format>image/svg+xml</dc:format><dc:type
         rdf:resource="http://purl.org/dc/dcmitype/StillImage" /><dc:title></dc:title></cc:Work></rdf:RDF></metadata><defs
   id="defs899">






<filter
   style="color-interpolation-filters:sRGB"
   id="filter4796"
   inkscape:label="filter0"><feTurbulence
     id="feTurbulence5493"
     type="fractalNoise"
     baseFrequency="0.0029999999999999931"
     result="result1" /><feDisplacementMap
     in2="result1"
     id="feDisplacementMap5495"
     scale="100"
     yChannelSelector="R"
     xChannelSelector="B" /></filter></defs><sodipodi:namedview
   pagecolor="#c1c1c1"
   bordercolor="#666666"
   borderopacity="1"
   objecttolerance="10"
   gridtolerance="10"
   guidetolerance="10"
   inkscape:pageopacity="0"
   inkscape:pageshadow="2"
   inkscape:window-width="2556"
   inkscape:window-height="1414"
   id="namedview897"
   showgrid="false"
   inkscape:zoom="2.8284271"
   inkscape:cx="330.12666"
   inkscape:cy="152.87103"
   inkscape:window-x="2560"
   inkscape:window-y="22"
   inkscape:window-maximized="0"
   inkscape:current-layer="g5622"
   fit-margin-top="0"
   fit-margin-left="0"
   fit-margin-right="0"
   fit-margin-bottom="0" /><g
   id="mastodon"
   transform="translate(1.548497,28.510079)"><path
     d="M -0.05,235.11 0.2,98.14 C 3.862,92.556 10.515,83.5 22.717,77.42 12.803,69.461 16.496,60.603 23.013,52.704 33.475,40.025 48.48,34.376 64.985,36.522 61.266,32.27 60.64,30.793 58.717,27.087 c 11.337,-7.311 27.917,1.7 28.167,13.5 -0.136,-6.404 -2.855,-8.783 -1.667,-12.167 0.289,-0.011 0.577,-0.052 0.858,-0.018 17.264,2.078 26.303,18.554 17.142,28.351 33.605,3.604 59.756,52.679 95.675,52.586 37.871,-0.099 62.192,-36.921 35.992,-66.752 6.067,-7.321 13.278,-0.917 17.667,1.833 2.75,-2.482 4.25,-4.389 10.666,-6.333 5.917,6.222 -2.963,13.342 -0.833,18.833 6.393,16.481 6.361,50.928 -16.368,73.137 -14.105,13.782 -37.142,23.22 -73.465,17.696 -16.123,-2.452 -22.891,11.917 -36.192,29.058 -15.251,19.656 -17.901,41.707 -16.995,58.174 z"
     id="path815"
     inkscape:connector-curvature="0"
     style="fill:#56606b" /><g
     id="g823"
     style="fill:#3a434e"><path
       d="m 257.38,114.78 c 0.592,-1.223 -3.029,-0.751 -4,0.2 -10.167,9.967 -19.536,19.144 -34.2,22.4 -14.335,3.184 -33.1,2.867 -47.4,1.4 -9.93,-1.018 -24.681,4.919 -28.8,15 l 6.8,5.8 c 2.533,-4.849 8.314,-11.459 14.4,-11.8 11.933,-0.666 39.167,3.667 54.8,-1.8 15.568,-5.443 31.267,-16.466 38.4,-31.2 z"
       id="path817"
       inkscape:connector-curvature="0" /><path
       d="m 107.98,167.39 c 5.488,10.128 11.618,18.64 18.6,25 l 9.6,-16.8 z"
       id="path819"
       inkscape:connector-curvature="0" /><path
       d="m 22.975,76.978 c -5.43,-4.965 -11.864,-9.557 -2.6,-20 0,0 6.25,9.293 12.2,5.2 14.257,-9.806 18.61,-14.051 33.6,-15 10.62,-0.672 26.565,3.652 28.4,10.6 2.149,8.138 -8.933,11.667 -15.4,15.6 -6.131,3.73 -13.2,8.034 -19,10.4 -4.952,2.021 -14.8,5 -14.8,5 l -4,-2 -10,13.8 -17.8,-7.2 -5.4,-5.2 z"
       id="path821"
       inkscape:connector-curvature="0" /></g><path
     d="m 103.38,55.375 c 0.031,0.004 0.063,0.006 0.093,0.012 0.093,0.016 0.183,0.048 0.266,0.093 0.34,0.182 0.528,0.573 0.46,0.953 -0.023,0.123 -0.071,0.242 -0.142,0.346 -0.018,0.026 -0.038,0.05 -0.057,0.075 -0.155,0.183 1.259,1.058 1.102,1.239 -0.67,0.194 -0.923,-0.127 -2.229,0.338 -1.556,0.554 -3.048,2.689 -4.338,3.72 -1.363,1.088 -2.794,2.091 -4.283,2.997 -2.466,1.499 -5.101,2.746 -7.865,3.586 -2.049,0.622 -4.181,1.021 -6.326,1.043 C 79.5,69.783 78.94,69.762 78.382,69.712 78.244,69.7 78.107,69.686 77.969,69.67 c -0.128,-0.015 -0.26,-0.025 -0.383,-0.067 -0.301,-0.104 -0.529,-0.367 -0.59,-0.679 -0.018,-0.093 0.182,-0.559 0.572,-0.626 0.448,-0.078 4.628,-0.144 5.858,-0.381 1.554,-0.298 3.26,-0.735 4.733,-1.31 2.455,-0.958 4.761,-2.334 6.942,-3.811 2.353,-1.594 4.356,-3.653 6.3,-5.727 0.421,-0.449 0.828,-0.909 1.225,-1.378 l 0.065,-0.069 c 0.024,-0.02 0.046,-0.042 0.071,-0.061 0.1,-0.077 0.215,-0.133 0.337,-0.163 0.082,-0.02 0.104,-0.018 0.187,-0.025 0.031,0 0.063,0.001 0.094,0.002 z"
     id="path825"
     inkscape:connector-curvature="0"
     style="fill:#15181c;fill-rule:nonzero" /><g
     id="g837"
     style="fill:none;stroke:#000000;stroke-width:1.79999995px;stroke-opacity:0.69019997"><path
       d="m 66.884,69.752 c 2.98,2.263 -13.562,4.511 -26.667,4.5"
       id="path827"
       inkscape:connector-curvature="0" /><path
       d="m 149.72,94.586 5.834,-4.667"
       id="path829"
       inkscape:connector-curvature="0" /><path
       d="m 158.55,102.25 6.5,-5.833"
       id="path831"
       inkscape:connector-curvature="0" /><path
       d="m 176.88,112.59 c 1.34,-1.428 2.555,-4.052 3.667,-7.667"
       id="path833"
       inkscape:connector-curvature="0" /><path
       d="m 191.05,116.75 c 1.163,-1.499 2.33,-4.107 3.5,-7.333"
       id="path835"
       inkscape:connector-curvature="0" /></g><path
     d="m 99.384,96.919 c -1.799,1.324 0.46,5.835 3.756,11.95 3.064,5.687 6.811,12.002 8.577,10.717 2.85,-2.075 -0.356,-9.201 -3,-14.167 -2.482,-4.663 -7.318,-9.984 -9.333,-8.5 z"
     id="path839"
     inkscape:connector-curvature="0"
     style="fill:#3a434e;stroke:#05181e;stroke-width:2.70000005px" /><path
     d="m 99.568,133.34 c 7.003,-3.042 12.226,-1.139 12.855,0.449 1.041,2.632 -1.712,5.944 -9.068,9.081 -7.533,3.213 -11.034,1.908 -12.229,-0.658 -0.837,-1.796 2.482,-6.282 8.442,-8.872 z"
     id="path841"
     inkscape:connector-curvature="0"
     style="fill:#4f5862" /><path
     d="m -0.2,234.43 v -1.527 c 0.1,0.126 0.201,0.252 0.303,0.376 0.326,0.395 0.666,0.779 1.019,1.151 z M 106.38,55.95 c 1.339,0.253 -3.3,2.04 -3.3,2.04 -0.92,-0.093 -0.709,-1.267 -0.305,-2.441 0,0 0.705,-1.088 0.976,-1.51 0.536,-0.836 0.968,-1.738 1.276,-2.681 0.274,-0.836 0.449,-1.702 0.528,-2.578 0.052,-0.587 0.061,-1.177 0.029,-1.765 -0.023,-0.427 -0.068,-0.852 -0.132,-1.274 -0.488,-3.184 -2.092,-6.121 -4.222,-8.504 -0.374,-0.418 -0.766,-0.821 -1.173,-1.208 C 99.485,35.486 98.883,34.975 98.256,34.496 97.474,33.9 96.652,33.355 95.8,32.863 94.555,32.144 93.244,31.538 91.892,31.047 90.687,30.61 89.45,30.263 88.195,30.005 87.57,29.877 86.942,29.773 86.31,29.686 l -0.114,-0.015 c -0.122,1.02 0.171,2.034 0.455,3.003 0.159,0.533 0.323,1.064 0.478,1.598 0.272,0.951 0.511,1.91 0.68,2.885 0.185,1.072 0.006,3.929 -0.303,4.254 -0.345,0.363 -0.824,-1.27 -1.04,-2.014 -0.046,-0.156 -1.063,-2.533 -1.312,-3.07 -1.201,-2.584 -3.006,-4.466 -5.204,-6.252 -0.385,-0.313 -0.784,-0.612 -1.193,-0.895 -0.527,-0.363 -1.071,-0.701 -1.63,-1.012 -0.685,-0.38 -1.392,-0.721 -2.116,-1.019 -0.899,-0.369 -1.824,-0.674 -2.767,-0.907 -1.254,-0.311 -2.537,-0.49 -3.828,-0.536 -0.23,-0.007 -0.46,-0.01 -0.689,-0.009 -0.505,0.006 -1.009,0.03 -1.512,0.08 -0.96,0.094 -1.913,0.274 -2.841,0.543 -1.036,0.3 -2.034,0.713 -2.985,1.222 l -0.005,0.003 c 0.584,1.048 0.809,2.129 1.363,3.195 0.771,1.486 1.45,2.23 2.617,4.045 0.506,0.789 2.57,2.986 2.256,2.831 -2.438,-1.204 -4.796,-0.6 -7.533,-0.419 -3.657,0.241 -7.303,0.989 -10.886,1.76 -3.669,0.791 -7.245,2.021 -10.604,3.698 -2.608,1.303 -5.082,2.874 -7.365,4.688 -2.244,1.785 -4.301,3.803 -6.136,6.007 -0.583,0.7 -3.315,0.138 -2.816,-0.495 0.78,-0.991 1.595,-1.953 2.451,-2.878 1.356,-1.466 2.811,-2.841 4.352,-4.11 3.066,-2.526 6.474,-4.628 10.097,-6.254 3.043,-1.366 6.234,-2.397 9.494,-3.099 3.381,-0.729 6.835,-1.104 10.292,-1.154 1.694,-0.025 3.386,0.034 5.076,0.155 -0.222,-0.26 -0.441,-0.522 -0.661,-0.785 -0.914,-1.105 -1.803,-2.23 -2.61,-3.416 -0.761,-1.118 -1.442,-2.285 -2.072,-3.481 l -0.091,-0.174 c -0.117,-0.383 -0.208,-0.494 -0.099,-0.901 0.1,-0.375 0.252,-0.491 0.535,-0.731 0.041,-0.036 0.092,-0.059 0.138,-0.088 0.473,-0.299 0.96,-0.575 1.459,-0.827 1.594,-0.805 3.309,-1.36 5.069,-1.656 0.991,-0.166 1.993,-0.247 2.998,-0.259 h 0.315 c 0.84,0.011 1.678,0.068 2.511,0.179 1.862,0.248 3.69,0.746 5.428,1.461 2.235,0.92 4.328,2.198 6.149,3.79 0.533,0.466 1.039,0.96 1.522,1.478 l 0.034,0.036 c 0,-0.112 0.121,-1.168 0.289,-1.644 0.157,-0.443 0.573,-1.14 0.721,-1.211 0.667,-0.318 1.785,-0.243 3.413,0.152 2.003,0.486 4.018,0.956 5.919,1.753 0.987,0.415 1.95,0.886 2.881,1.415 0.794,0.451 1.564,0.943 2.306,1.476 0.53,0.38 1.045,0.782 1.543,1.203 3.133,2.648 5.645,6.142 6.76,10.12 0.18,0.643 0.323,1.297 0.424,1.957 0.153,1.003 0.211,2.021 0.163,3.035 -0.058,1.218 -0.269,2.428 -0.635,3.591 -0.427,1.357 -1.062,2.653 -1.875,3.82 0.269,0.044 0.536,0.093 0.804,0.142 z"
     id="path843"
     inkscape:connector-curvature="0" /><path
     d="m 0.2,98.139 c 3.662,-5.584 10.315,-14.64 22.517,-20.72 -9.914,-7.959 -6.221,-16.817 0.296,-24.716 1.86,-2.254 3.864,-4.286 5.993,-6.091"
     stroke-miterlimit="1.4142"
     id="path845"
     inkscape:connector-curvature="0"
     style="fill:none;stroke:#000000;stroke-width:2.5px;stroke-linecap:butt;stroke-miterlimit:1.41419995" /><path
     d="m 103.22,56.752 c 33.605,3.604 59.756,52.679 95.675,52.586 37.871,-0.099 62.192,-36.921 35.992,-66.752 6.067,-7.321 13.278,-0.917 17.667,1.833 2.75,-2.482 4.25,-4.389 10.666,-6.333 5.917,6.222 -2.963,13.342 -0.833,18.833 6.393,16.481 6.361,50.928 -16.368,73.137 -14.105,13.782 -37.142,23.22 -73.465,17.696 -16.123,-2.452 -22.891,11.917 -36.192,29.058 -15.251,19.656 -17.901,41.707 -16.995,58.174"
     stroke-miterlimit="1.4142"
     id="path847"
     inkscape:connector-curvature="0"
     style="fill:none;stroke:#000000;stroke-width:2.5px;stroke-linecap:butt;stroke-miterlimit:1.41419995" /></g><rect
   style="fill:#552200;fill-opacity:1;stroke:#000000;stroke-width:1.28518212;stroke-linecap:butt;stroke-linejoin:miter;stroke-miterlimit:9.69999981;stroke-dasharray:none;stroke-dashoffset:0;stroke-opacity:1"
   id="rect903"
   width="2.3921227"
   height="132.43498"
   x="261.48419"
   y="-98.017494"
   ry="3.6685588"
   rx="0.017737137"
   transform="matrix(0.93176634,0.36305851,-0.29026706,0.95694568,0,0)" /><g
   id="ear"
   transform="translate(1.548497,28.510079)"><path
     d="m -0.2,82.153 c 1.465,-0.675 2.995,-1.047 4.584,-1.067 14.728,-0.191 23.716,10.351 30.667,29.5 l -5.667,51.333 c -8.83,15.645 -19.32,22.601 -29.584,22.197 z"
     id="path852"
     inkscape:connector-curvature="0"
     style="fill:#56606b" /><path
     d="m 29.575,161.78 c -6.286,14.409 -16.353,21.623 -29.8,22.4 l -0.8,17.8 c 17.772,-2.913 32.907,-18.909 32.708,-34.4 -0.031,-2.45 0.409,-5.588 -2.108,-5.8 z"
     id="path854"
     inkscape:connector-curvature="0"
     style="fill:#3a434e" /><path
     d="m -0.322,181.64 0.437,1.238 c 0.17,0.004 0.17,0.004 0.339,0.006 0.386,0.001 0.771,-0.004 1.156,-0.022 0.854,-0.041 1.705,-0.137 2.547,-0.285 0.782,-0.137 1.557,-0.32 2.319,-0.544 0.548,-0.161 1.09,-0.344 1.624,-0.546 3.629,-1.374 6.866,-3.636 9.686,-6.276 0.463,-0.435 0.916,-0.88 1.36,-1.335 0.618,-0.634 1.216,-1.287 1.797,-1.955 0.769,-0.885 1.507,-1.798 2.216,-2.731 0.834,-1.099 5.784,-8.459 5.999,-8.498 0.143,-0.027 0.29,-0.028 0.434,-0.004 0.144,0.025 0.282,0.074 0.409,0.146 0.385,0.218 -5.943,11.794 -8.351,14.038 -0.5,0.467 -0.944,0.991 -1.433,1.47 -3.031,2.974 -6.524,5.542 -10.462,7.177 -0.507,0.211 -1.022,0.406 -1.542,0.584 -2.419,0.828 -4.964,1.277 -7.522,1.282 -0.338,0.001 -0.676,-0.006 -1.013,-0.021 z m 0,-100.8 C 0.004,80.702 0.336,80.577 0.673,80.465 1.088,80.327 1.511,80.21 1.938,80.116 2.427,80.009 2.923,79.931 3.422,79.885 3.674,79.862 3.925,79.849 4.178,79.84 4.42,79.835 4.662,79.833 4.904,79.833 c 0.818,0.006 1.634,0.039 2.448,0.111 1.45,0.127 2.891,0.368 4.3,0.734 1.417,0.369 2.801,0.864 4.129,1.482 0.881,0.41 1.738,0.873 2.564,1.384 0.556,0.344 1.099,0.709 1.627,1.094 3.727,2.714 6.691,6.349 9.114,10.241 0.488,0.783 0.955,1.578 1.404,2.384 1.606,2.881 4.443,13.486 4.447,13.632 0.02,0.667 -0.655,0.719 -0.843,0.495 -0.126,-0.149 -0.136,-0.201 -0.218,-0.376 -0.161,-0.441 -0.323,-0.881 -0.488,-1.321 C 32.262,106.715 31.03,103.775 29.6,100.928 28.572,98.881 27.445,96.882 26.175,94.975 23.889,91.54 21.108,88.361 17.649,86.067 17.08,85.689 16.495,85.337 15.894,85.013 14.957,84.507 13.984,84.069 12.983,83.706 11.394,83.129 9.739,82.743 8.062,82.533 7.119,82.415 6.17,82.351 5.221,82.337 4.798,82.33 4.373,82.326 3.95,82.352 3.603,82.373 3.257,82.413 2.914,82.472 1.78,82.667 0.69,83.068 -0.322,83.609 Z"
     id="path856"
     inkscape:connector-curvature="0" /><path
     d="m -0.283,99.086 c 5.874,-3.336 11.929,-1.378 18.167,6 -9.031,1.219 -5.404,8.43 2.5,9.166 -7.718,4.048 -8.567,8.798 3.5,12.534 -3.064,17.657 -11.848,25.767 -24.109,25.192"
     id="path858"
     inkscape:connector-curvature="0"
     style="fill:#3a434e" /><path
     d="m 22.884,126.59 c -12.067,-3.736 -10.218,-8.286 -2.5,-12.334 -7.904,-0.736 -11.531,-7.947 -2.5,-9.166 -6.238,-7.378 -12.293,-9.336 -18.167,-6"
     id="path860"
     inkscape:connector-curvature="0"
     style="fill:none;stroke:#000000;stroke-width:2.5px" /><path
     d="m 5.384,170.09 c -2.131,2.23 -4.079,3.994 -5.667,4.833"
     id="path862"
     inkscape:connector-curvature="0"
     style="fill:none;stroke:#000000;stroke-width:2px" /></g><g
   id="tooth"
   transform="translate(1.548497,28.510079)"><path
     d="m 185.42,51.423 c 1.041,-0.089 2.306,0.5 3.031,0.773 7.107,2.685 17.611,13.538 23.16,21.398 15.745,22.304 11.694,46.438 5.101,63.658 -22.38,58.462 -90.231,44.968 -110.5,28.5 8.201,-2.251 12.497,-7.919 16.625,-14.912 8.739,2.011 13.697,1.952 14.042,-3.754 18.919,11.165 42.946,4.876 56.167,-15.334 6.391,-9.77 17.973,-28.086 -1.834,-64 -4.763,-8.636 -6.735,-15.404 -5.792,-16.329 z"
     id="path865"
     inkscape:connector-curvature="0"
     style="fill:#b3bfcd" /><path
     d="m 120.02,155.24 -3.044,0.335 -4.4,3.4 c 0.926,3.558 -1.372,5.643 -4.653,7.046 27.684,17.335 60.967,17.571 83.211,3.419 16.456,-10.469 25.688,-28.819 31.042,-53.265 0,0 -4.899,-1.934 -7.8,1.4 -8.7,10 -18.813,29.711 -27.8,37.2 -6.466,5.389 -19.817,9.793 -30.388,10.144 -15.512,0.515 -31,-6.847 -36.168,-9.679 z"
     id="path867"
     inkscape:connector-curvature="0"
     style="fill:#93a1b5" /><path
     d="m 132.37,176.08 c 2.968,0.715 5.221,3.704 1.785,2.969 -3.093,-0.662 -6.128,-1.563 -9.164,-2.451 -6.083,-1.779 -15.916,-7.174 -18.053,-9.141 -0.255,-0.234 -1.133,-0.712 -1.305,-0.78 -0.157,-0.062 -2.171,0.065 -2.231,-0.204 -0.091,-0.411 1.157,-0.859 1.722,-1.002 1.442,-0.366 6.464,-2.566 6.378,-4.411 -0.071,-1.527 -2.286,-4.351 -1.997,-4.273 0.343,0.093 4.752,1.594 4.652,0.058 l 0.011,-0.005 c 0.021,-0.103 0.014,-0.212 0.003,-0.316 -0.021,-0.184 -0.064,-0.365 -0.115,-0.543 -0.172,-0.595 -0.44,-1.16 -0.722,-1.709 l -0.057,-0.109 c -0.03,-0.074 -0.068,-0.146 -0.091,-0.223 -0.046,-0.155 -0.061,-0.317 -0.045,-0.478 2.882,1.016 3.671,1.014 4.918,1.103 2.078,0.148 5.061,-3.258 2.755,-5.813 4.448,3.951 17.188,3.059 14.821,-1.653 l 0.02,-0.239 c 0.058,-0.203 0.059,-0.263 0.174,-0.444 0.261,-0.413 0.754,-0.639 1.238,-0.568 0.212,0.031 0.258,0.069 0.45,0.158 0.216,0.127 0.432,0.252 0.65,0.376 1.142,0.64 2.311,1.231 3.51,1.757 2.333,1.023 4.768,1.813 7.259,2.346 3.736,0.8 4.381,3.379 0.462,2.643 -2.577,-0.484 -5.104,-1.224 -7.536,-2.2 -1.286,-0.516 -2.541,-1.101 -3.769,-1.741 l -0.102,-0.053 c -2.731,3.7 -7.577,4.022 -14.814,2.388 l -0.008,-0.004 c -0.971,2.432 -1.92,4.774 -6.447,4.417 0.391,1.834 -2.308,3.855 -4.2,2.849 0.639,0.769 0.902,2.042 0.545,3.501 -0.41,1.675 -4.052,3.667 -4.522,3.645 0.197,0.139 0.762,0.562 0.961,0.698 0.56,0.375 1.125,0.741 1.7,1.093 2.71,1.659 5.576,3.059 8.509,4.276 4.098,1.7 8.343,3.045 12.655,4.083 z"
     id="path869"
     inkscape:connector-curvature="0"
     style="fill:#08080a" /><path
     d="m 143.44,150.2 c 17.632,6.463 37.877,-0.509 49.61,-18.445 6.391,-9.77 17.973,-28.086 -1.834,-64 -4.763,-8.636 -6.735,-15.404 -5.792,-16.329 1.041,-0.089 2.306,0.5 3.031,0.773 7.107,2.685 17.611,13.538 23.16,21.398 15.745,22.304 11.694,46.438 5.101,63.658 -18.433,48.151 -67.71,47.49 -95.844,36.558"
     stroke-miterlimit="1.4142"
     id="path871"
     inkscape:connector-curvature="0"
     style="fill:none;stroke:#000000;stroke-width:2.5px;stroke-linecap:butt;stroke-miterlimit:1.41419995" /></g><g
   id="snout"
   transform="matrix(1,0,0,1.0739962,3.5821848,26.426706)"><path
     d="m 234.97,42.396 c 2.764,-4.253 8.761,-4.06 18.176,0.832 3.047,9.604 -4.024,9.242 -9.28,13.888 z"
     id="path874"
     inkscape:connector-curvature="0"
     style="fill:#56606b" /><path
     d="m 242.5,57.519 c -1.207,-3.352 -2.893,-6.521 -4.913,-9.453 -1.119,-1.624 -2.342,-3.173 -3.64,-4.658 l -0.227,-0.376 c -0.027,-0.144 -0.08,-0.286 -0.082,-0.432 -0.002,-0.147 0.023,-0.296 0.072,-0.434 0.079,-0.221 0.166,-0.321 0.293,-0.471 0.152,-0.181 0.309,-0.358 0.47,-0.531 0.816,-0.877 1.754,-1.65 2.814,-2.214 0.582,-0.31 1.197,-0.555 1.834,-0.723 0.433,-0.115 0.875,-0.195 1.32,-0.239 0.319,-0.032 0.639,-0.046 0.96,-0.042 2.04,0.019 4.007,0.721 5.805,1.642 0.293,0.15 0.583,0.307 0.871,0.469 0.376,0.212 0.747,0.432 1.114,0.659 0.442,0.273 0.879,0.556 1.313,0.842 0.631,0.418 1.257,0.845 1.887,1.265 l 0.032,0.021 c 0.951,0.603 6.117,1.629 1.849,2.576 0,0 -3.661,1.412 -3.216,0.98 1.101,-1.068 -0.522,-1.829 -1.931,-2.756 -0.413,-0.272 -0.827,-0.541 -1.248,-0.801 -0.381,-0.235 -0.766,-0.464 -1.158,-0.681 -0.301,-0.168 -0.606,-0.329 -0.916,-0.481 -0.217,-0.108 -0.437,-0.211 -0.659,-0.308 -1.485,-0.655 -3.134,-1.107 -4.765,-0.858 -0.251,0.038 -0.498,0.092 -0.741,0.162 -0.408,0.118 -0.802,0.28 -1.176,0.479 -0.68,0.362 -1.287,0.843 -1.837,1.379 l -0.064,0.064 -0.006,0.007 c 0.215,0.255 0.427,0.512 0.638,0.771 1.227,1.516 2.378,3.093 3.426,4.739 1.874,2.945 3.424,6.102 4.531,9.414 l 0.026,0.079 c 0.479,2.186 0.175,12.285 -2.676,-0.09 z"
     id="path876"
     inkscape:connector-curvature="0" /></g><text
   x="171.46365"
   y="59.472778"
   font-size="40px"
   letter-spacing="0px"
   word-spacing="0px"
   style="font-size:40px;line-height:1.25;font-family:sans-serif;letter-spacing:0px;word-spacing:0px;fill:#000000;fill-opacity:0"
   xml:space="preserve"
   id="text881"><tspan
     x="171.46365"
     y="94.863403"
     id="tspan879" /></text>



<path
   style="fill:#56606b;stroke-width:0;stroke-miterlimit:1.5"
   inkscape:connector-curvature="0"
   id="path891"
   stroke-miterlimit="1.5"
   d="m 254.51199,79.991394 -5.5061,-1.0298 -1.948,4.2665 c -0.6162,0.11756 1.3146,6.8002 2.4868,9.5628 z" /><g
   id="g5622"
   transform="matrix(1.1923945,0.05802226,-0.06851471,1.408021,-53.112954,-15.400916)"><path
     sodipodi:nodetypes="cscc"
     inkscape:connector-curvature="0"
     id="path5523"
     d="m 274.63607,1.9921943 c 11.13163,2.6582635 16.85979,-6.0144134 29.86742,3.6678054 7.08036,5.2702623 13.83993,0.074078 19.27872,4.1229183 l -8.01892,26.36121"
     style="fill:none;stroke:#000000;stroke-width:1.00157475;stroke-linecap:butt;stroke-linejoin:miter;stroke-miterlimit:1.5;stroke-dasharray:none;stroke-opacity:1" /><path
     sodipodi:nodetypes="cscc"
     inkscape:connector-curvature="0"
     id="path5523-1"
     d="m 266.15715,28.144314 c 11.13163,2.658263 17.69615,-5.665929 30.70378,4.01629 7.08036,5.270262 13.77898,-0.272306 19.21777,3.776535 v 0"
     style="clip-rule:evenodd;fill:none;fill-rule:evenodd;stroke:#000000;stroke-width:1px;stroke-linecap:butt;stroke-linejoin:miter;stroke-miterlimit:1.5;stroke-opacity:1" /><path
     sodipodi:nodetypes="cscc"
     inkscape:connector-curvature="0"
     id="path5523-1-2-9"
     d="m 270.13051,14.751517 c 11.13163,2.658263 17.69615,-5.6659293 30.70378,4.01629 7.08036,5.270262 13.77898,-0.272306 19.21777,3.776535 v 0"
     style="clip-rule:evenodd;fill:none;fill-rule:evenodd;stroke:#000000;stroke-width:1px;stroke-linecap:butt;stroke-linejoin:miter;stroke-miterlimit:1.5;stroke-opacity:1" /><path
     sodipodi:nodetypes="cscc"
     inkscape:connector-curvature="0"
     id="path5523-1-2-94"
     d="m 272.14701,8.3490576 c 11.13163,2.6582634 17.69615,-5.665929 30.70378,4.0162904 7.08036,5.270262 13.77898,-0.272306 19.21777,3.776535 v 0"
     style="clip-rule:evenodd;fill:none;fill-rule:evenodd;stroke:#000000;stroke-width:1px;stroke-linecap:butt;stroke-linejoin:miter;stroke-miterlimit:1.5;stroke-opacity:1" /><path
     sodipodi:nodetypes="cscc"
     inkscape:connector-curvature="0"
     id="path5523-1-2-9-8"
     d="m 268.30806,21.399282 c 11.13163,2.658264 17.69615,-5.665929 30.70378,4.016291 7.08036,5.270262 13.77898,-0.272306 19.21777,3.776535 v 0"
     style="clip-rule:evenodd;fill:none;fill-rule:evenodd;stroke:#000000;stroke-width:1px;stroke-linecap:butt;stroke-linejoin:miter;stroke-miterlimit:1.5;stroke-opacity:1" /><path
     style="fill:#3da542;fill-opacity:1;stroke:none;stroke-width:0.087625;stroke-linecap:butt;stroke-linejoin:round;stroke-miterlimit:1.5;stroke-dasharray:none;stroke-dashoffset:0;stroke-opacity:1"
     d="m 328.86907,24.361926 c -0.85103,-0.613783 -2.15547,-1.149717 -3.40655,-1.399594 -1.33736,-0.267111 -2.02246,-0.302084 -4.94384,-0.252373 -4.27763,0.07279 -5.02178,0.04356 -6.53125,-0.256574 -2.40051,-0.477294 -4.27663,-1.469077 -6.28354,-3.321711 -1.59155,-1.469204 -1.97185,-1.803967 -2.89491,-2.548312 -4.87,-3.927083 -9.65301,-5.593639 -15.16265,-5.28316 -1.56229,0.08804 -2.46828,0.184503 -5.0339,0.535978 -4.18802,0.573733 -5.59107,0.691569 -7.5625,0.635135 -1.40583,-0.04024 -2.44565,-0.152541 -3.59375,-0.38812 -0.9828,-0.201658 -1.37709,-0.311281 -1.36576,-0.379713 0.005,-0.03069 0.50429,-1.690704 1.10937,-3.6889194 0.60508,-1.9982152 1.10014,-3.6629615 1.10014,-3.6994364 0,-0.1457606 0.15468,-0.1327731 0.92038,0.077279 2.75333,0.7553042 5.54968,0.9004509 8.98587,0.466418 0.55,-0.069472 2.08281,-0.3052143 3.40625,-0.5238724 4.07092,-0.672597 4.80441,-0.7464155 6.98139,-0.7026095 1.2934,0.026026 1.69982,0.057823 2.45611,0.1921561 4.06594,0.7221981 7.53916,2.6917371 11.875,6.7338946 1.63093,1.520468 2.53443,2.185281 3.9375,2.897298 1.24548,0.632049 2.38974,1.019927 3.78125,1.281755 1.46887,0.276385 2.19166,0.324143 5.75,0.379929 3.4377,0.05389 3.89239,0.08247 5.0625,0.318163 1.47517,0.297141 2.98306,1.002583 3.92128,1.834506 l 0.17129,0.151882 -1.1098,3.576759 c -0.6104,1.967217 -1.13748,3.583422 -1.17129,3.591566 -0.0338,0.0081 -0.21318,-0.0946 -0.39859,-0.228324 z"
     id="path7099"
     inkscape:connector-curvature="0"
     transform="matrix(0.83666754,-0.03447771,0.04071248,0.70853898,45.064894,9.0809363)" /><path
     style="fill:#a7d379;fill-opacity:1;stroke:none;stroke-width:0.087625;stroke-linecap:butt;stroke-linejoin:round;stroke-miterlimit:1.5;stroke-dasharray:none;stroke-dashoffset:0;stroke-opacity:1"
     d="m 326.09454,33.301671 c -0.89274,-0.631289 -2.15605,-1.166639 -3.36285,-1.425065 -1.22762,-0.262884 -1.71265,-0.293085 -4.18176,-0.260386 -3.49913,0.04634 -5.33084,0.0297 -6.0625,-0.05508 -2.26301,-0.262229 -4.03757,-0.883245 -5.72449,-2.003314 -0.76925,-0.510764 -1.21138,-0.876756 -2.46941,-2.044186 -2.67472,-2.482092 -4.76615,-3.999127 -7.1849,-5.211606 -1.48755,-0.745689 -2.7787,-1.219426 -4.33995,-1.592375 -1.81461,-0.433471 -3.17557,-0.562192 -5.40625,-0.511327 -1.90189,0.04337 -2.36305,0.09001 -6.5625,0.663677 -2.8202,0.385258 -3.51545,0.448052 -5.38146,0.486053 -1.90313,0.03876 -2.84293,-0.0202 -4.27479,-0.268157 -1.18145,-0.204597 -1.75157,-0.357925 -1.74391,-0.469014 0.006,-0.09344 2.21074,-7.387318 2.24227,-7.419509 0.0101,-0.01034 0.23964,0.03667 0.51003,0.104479 2.06865,0.518761 4.21717,0.718516 6.68459,0.621492 1.419,-0.0558 2.50883,-0.165575 4.90077,-0.493647 4.52792,-0.621037 5.62788,-0.71605 7.68417,-0.663747 1.53936,0.03915 2.61912,0.171663 3.90958,0.479782 3.74995,0.895367 7.28454,3.005538 11.15625,6.660336 1.54461,1.458077 2.62063,2.232352 4.07934,2.935381 1.33828,0.644991 2.67454,1.030283 4.35816,1.256617 0.8593,0.11552 2.63996,0.139676 6.5625,0.08903 1.89591,-0.02448 2.32606,-0.0127 2.9563,0.08094 1.64847,0.244946 2.70864,0.637171 3.8735,1.433052 0.39444,0.269495 0.53974,0.403281 0.51718,0.476189 -1.04217,3.367997 -2.30036,7.415971 -2.30693,7.422102 -0.005,0.0045 -0.19967,-0.126759 -0.43294,-0.291717 z"
     id="path7103"
     inkscape:connector-curvature="0"
     transform="matrix(0.83666754,-0.03447771,0.04071248,0.70853898,45.064894,9.0809363)" /><path
     style="fill:#ffffff;fill-opacity:1;stroke:none;stroke-width:0.087625;stroke-linecap:butt;stroke-linejoin:round;stroke-miterlimit:1.5;stroke-dasharray:none;stroke-dashoffset:0;stroke-opacity:1"
     d="m 323.33118,42.454498 c -0.4325,-0.30108 -1.58679,-0.85498 -2.1875,-1.049703 -0.275,-0.08914 -0.76719,-0.216745 -1.09375,-0.283565 -1.24374,-0.254485 -1.74017,-0.285503 -4.0625,-0.25383 -3.91199,0.05335 -5.51113,0.0315 -6.42381,-0.08779 -2.05246,-0.26826 -3.84446,-0.916337 -5.41994,-1.960122 -0.77225,-0.511629 -1.20229,-0.867284 -2.43715,-2.015605 -4.78695,-4.451455 -8.7944,-6.572983 -13.6566,-7.229735 -0.66358,-0.08963 -1.25082,-0.113746 -2.75,-0.11293 -2.13267,0.0012 -2.68084,0.04714 -5.96875,0.500591 -4.41457,0.608839 -5.30562,0.682888 -7.66344,0.636847 -1.87093,-0.03653 -2.75671,-0.136444 -4.25134,-0.479528 -0.45302,-0.103987 -0.83093,-0.196353 -0.83979,-0.205258 -0.0221,-0.02218 2.31734,-7.724792 2.35873,-7.766189 0.0182,-0.01821 0.32567,0.03588 0.68323,0.120205 2.73893,0.645939 5.42448,0.748688 9.01333,0.344848 0.61227,-0.0689 1.92008,-0.238085 2.90625,-0.375974 3.947,-0.551883 5.76891,-0.687865 7.6212,-0.56882 1.89989,0.122104 3.19424,0.361778 4.76617,0.882549 3.27979,1.086574 6.28209,3.008072 9.62441,6.159693 1.1105,1.047143 1.79679,1.608124 2.65625,2.171252 1.64471,1.077634 3.32766,1.709787 5.5,2.065917 0.77291,0.126711 1.02716,0.13337 5.21875,0.136702 4.28825,0.0034 4.42609,0.0072 5.14723,0.143007 0.80067,0.150743 1.59537,0.396416 2.26611,0.700543 0.4858,0.220272 1.64187,0.972123 1.69079,1.099603 0.035,0.09109 -2.28823,7.654126 -2.34937,7.64828 -0.0198,-0.0019 -0.17664,-0.101339 -0.34851,-0.220988 z"
     id="path7105"
     inkscape:connector-curvature="0"
     transform="matrix(0.83666754,-0.03447771,0.04071248,0.70853898,45.064894,9.0809363)" /><path
     style="fill:#000000;fill-opacity:1;stroke:none;stroke-width:0.087625;stroke-linecap:butt;stroke-linejoin:round;stroke-miterlimit:1.5;stroke-dasharray:none;stroke-dashoffset:0;stroke-opacity:1"
     d="m 320.6135,52.043014 c -0.62804,-0.511728 -2.0414,-1.163148 -3.1082,-1.432571 -1.4053,-0.354915 -1.98103,-0.401558 -4.54912,-0.368553 -3.58383,0.04606 -5.4405,0.02947 -6.15625,-0.05502 -2.18933,-0.258422 -4.04918,-0.911845 -5.69032,-1.999184 -0.69967,-0.463572 -1.43279,-1.078277 -2.75977,-2.31401 -3.91518,-3.645949 -7.84717,-5.87346 -11.76038,-6.662367 -1.31411,-0.264927 -2.14607,-0.351397 -3.72703,-0.387369 -2.10591,-0.04792 -3.13552,0.03783 -7.25,0.603772 -3.63417,0.499876 -4.01132,0.531185 -6.40625,0.531807 -2.30046,6.25e-4 -3.07636,-0.0718 -4.68636,-0.437282 -0.3775,-0.08569 -0.70797,-0.155808 -0.73438,-0.155808 -0.0264,0 -0.048,-0.03499 -0.048,-0.07776 0,-0.06941 2.36878,-7.934189 2.39951,-7.966811 0.007,-0.0073 0.16593,0.02771 0.35339,0.07787 1.46936,0.393106 3.2857,0.644653 5.02835,0.696379 1.94595,0.05776 3.5482,-0.07604 7.625,-0.636732 2.54058,-0.349414 3.40974,-0.445432 4.84375,-0.535101 5.33569,-0.333639 9.80868,1.188467 14.54202,4.948483 0.637,0.506016 1.56816,1.328717 3.08298,2.723883 2.38897,2.200279 4.90683,3.331118 8.19531,3.680741 0.82812,0.08804 1.44901,0.09621 4.49219,0.05909 3.69972,-0.04512 4.28915,-0.02125 5.48538,0.222187 0.70326,0.143118 1.36888,0.361926 1.97287,0.648545 0.52615,0.249681 1.40709,0.811331 1.45065,0.924878 0.0209,0.05447 -2.2054,7.395345 -2.42475,7.995238 -0.008,0.02317 -0.0852,-0.01476 -0.17058,-0.0843 z"
     id="path7107"
     inkscape:connector-curvature="0"
     transform="matrix(0.83666754,-0.03447771,0.04071248,0.70853898,45.064894,9.0809363)" /></g></svg>