<?xml version="1.0" encoding="UTF-8" standalone="no"?>
<svg
   xmlns:dc="http://purl.org/dc/elements/1.1/"
   xmlns:cc="http://creativecommons.org/ns#"
   xmlns:rdf="http://www.w3.org/1999/02/22-rdf-syntax-ns#"
   xmlns:svg="http://www.w3.org/2000/svg"
   xmlns="http://www.w3.org/2000/svg"
   xmlns:sodipodi="http://sodipodi.sourceforge.net/DTD/sodipodi-0.dtd"
   xmlns:inkscape="http://www.inkscape.org/namespaces/inkscape"
   width="339.97784"
   height="263.62009"
   stroke-miterlimit="1.5"
   version="1.1"
   viewBox="0 0 339.97785 263.62008"
   xml:space="preserve"
   id="svg895"
   sodipodi:docname="mastodon-frauentag.svg"
   inkscape:version="0.92.4 5da689c313, 2019-01-14"
   style="clip-rule:evenodd;fill-rule:evenodd;stroke-linecap:round;stroke-linejoin:round;stroke-miterlimit:1.5"><metadata
   id="metadata901"><rdf:RDF><cc:Work
       rdf:about=""><dc:format>image/svg+xml</dc:format><dc:type
         rdf:resource="http://purl.org/dc/dcmitype/StillImage" /><dc:title></dc:title></cc:Work></rdf:RDF></metadata><defs
   id="defs899">






<filter
   style="color-interpolation-filters:sRGB"
   id="filter4796"
   inkscape:label="filter0"><feTurbulence
     id="feTurbulence5493"
     type="fractalNoise"
     baseFrequency="0.0029999999999999931"
     result="result1" /><feDisplacementMap
     in2="result1"
     id="feDisplacementMap5495"
     scale="100"
     yChannelSelector="R"
     xChannelSelector="B" /></filter></defs><sodipodi:namedview
   pagecolor="#c1c1c1"
   bordercolor="#666666"
   borderopacity="1"
   objecttolerance="10"
   gridtolerance="10"
   guidetolerance="10"
   inkscape:pageopacity="0"
   inkscape:pageshadow="2"
   inkscape:window-width="2556"
   inkscape:window-height="1414"
   id="namedview897"
   showgrid="false"
   inkscape:zoom="2"
   inkscape:cx="366.54201"
   inkscape:cy="149.6966"
   inkscape:window-x="0"
   inkscape:window-y="22"
   inkscape:window-maximized="0"
   inkscape:current-layer="svg895"
   fit-margin-top="0"
   fit-margin-left="0"
   fit-margin-right="0"
   fit-margin-bottom="0"
   showguides="false" /><g
   id="mastodon"
   transform="translate(1.548497,28.510079)"><path
     d="M -0.05,235.11 0.2,98.14 C 3.862,92.556 10.515,83.5 22.717,77.42 12.803,69.461 16.496,60.603 23.013,52.704 33.475,40.025 48.48,34.376 64.985,36.522 61.266,32.27 60.64,30.793 58.717,27.087 c 11.337,-7.311 27.917,1.7 28.167,13.5 -0.136,-6.404 -2.855,-8.783 -1.667,-12.167 0.289,-0.011 0.577,-0.052 0.858,-0.018 17.264,2.078 26.303,18.554 17.142,28.351 33.605,3.604 59.756,52.679 95.675,52.586 37.871,-0.099 62.192,-36.921 35.992,-66.752 6.067,-7.321 13.278,-0.917 17.667,1.833 2.75,-2.482 4.25,-4.389 10.666,-6.333 5.917,6.222 -2.963,13.342 -0.833,18.833 6.393,16.481 6.361,50.928 -16.368,73.137 -14.105,13.782 -37.142,23.22 -73.465,17.696 -16.123,-2.452 -22.891,11.917 -36.192,29.058 -15.251,19.656 -17.901,41.707 -16.995,58.174 z"
     id="path815"
     inkscape:connector-curvature="0"
     style="fill:#56606b" /><g
     id="g823"
     style="fill:#3a434e"><path
       d="m 257.38,114.78 c 0.592,-1.223 -3.029,-0.751 -4,0.2 -10.167,9.967 -19.536,19.144 -34.2,22.4 -14.335,3.184 -33.1,2.867 -47.4,1.4 -9.93,-1.018 -24.681,4.919 -28.8,15 l 6.8,5.8 c 2.533,-4.849 8.314,-11.459 14.4,-11.8 11.933,-0.666 39.167,3.667 54.8,-1.8 15.568,-5.443 31.267,-16.466 38.4,-31.2 z"
       id="path817"
       inkscape:connector-curvature="0" /><path
       d="m 107.98,167.39 c 5.488,10.128 11.618,18.64 18.6,25 l 9.6,-16.8 z"
       id="path819"
       inkscape:connector-curvature="0" /><path
       d="m 22.975,76.978 c -5.43,-4.965 -11.864,-9.557 -2.6,-20 0,0 6.25,9.293 12.2,5.2 14.257,-9.806 18.61,-14.051 33.6,-15 10.62,-0.672 26.565,3.652 28.4,10.6 2.149,8.138 -8.933,11.667 -15.4,15.6 -6.131,3.73 -13.2,8.034 -19,10.4 -4.952,2.021 -14.8,5 -14.8,5 l -4,-2 -10,13.8 -17.8,-7.2 -5.4,-5.2 z"
       id="path821"
       inkscape:connector-curvature="0" /></g><path
     d="m 103.38,55.375 c 0.031,0.004 0.063,0.006 0.093,0.012 0.093,0.016 0.183,0.048 0.266,0.093 0.34,0.182 0.528,0.573 0.46,0.953 -0.023,0.123 -0.071,0.242 -0.142,0.346 -0.018,0.026 -0.038,0.05 -0.057,0.075 -0.155,0.183 1.259,1.058 1.102,1.239 -0.67,0.194 -0.923,-0.127 -2.229,0.338 -1.556,0.554 -3.048,2.689 -4.338,3.72 -1.363,1.088 -2.794,2.091 -4.283,2.997 -2.466,1.499 -5.101,2.746 -7.865,3.586 -2.049,0.622 -4.181,1.021 -6.326,1.043 C 79.5,69.783 78.94,69.762 78.382,69.712 78.244,69.7 78.107,69.686 77.969,69.67 c -0.128,-0.015 -0.26,-0.025 -0.383,-0.067 -0.301,-0.104 -0.529,-0.367 -0.59,-0.679 -0.018,-0.093 0.182,-0.559 0.572,-0.626 0.448,-0.078 4.628,-0.144 5.858,-0.381 1.554,-0.298 3.26,-0.735 4.733,-1.31 2.455,-0.958 4.761,-2.334 6.942,-3.811 2.353,-1.594 4.356,-3.653 6.3,-5.727 0.421,-0.449 0.828,-0.909 1.225,-1.378 l 0.065,-0.069 c 0.024,-0.02 0.046,-0.042 0.071,-0.061 0.1,-0.077 0.215,-0.133 0.337,-0.163 0.082,-0.02 0.104,-0.018 0.187,-0.025 0.031,0 0.063,0.001 0.094,0.002 z"
     id="path825"
     inkscape:connector-curvature="0"
     style="fill:#15181c;fill-rule:nonzero" /><g
     id="g837"
     style="fill:none;stroke:#000000;stroke-width:1.79999995px;stroke-opacity:0.69019997"><path
       d="m 66.884,69.752 c 2.98,2.263 -13.562,4.511 -26.667,4.5"
       id="path827"
       inkscape:connector-curvature="0" /><path
       d="m 149.72,94.586 5.834,-4.667"
       id="path829"
       inkscape:connector-curvature="0" /><path
       d="m 158.55,102.25 6.5,-5.833"
       id="path831"
       inkscape:connector-curvature="0" /><path
       d="m 176.88,112.59 c 1.34,-1.428 2.555,-4.052 3.667,-7.667"
       id="path833"
       inkscape:connector-curvature="0" /><path
       d="m 191.05,116.75 c 1.163,-1.499 2.33,-4.107 3.5,-7.333"
       id="path835"
       inkscape:connector-curvature="0" /></g><path
     d="m 99.384,96.919 c -1.799,1.324 0.46,5.835 3.756,11.95 3.064,5.687 6.811,12.002 8.577,10.717 2.85,-2.075 -0.356,-9.201 -3,-14.167 -2.482,-4.663 -7.318,-9.984 -9.333,-8.5 z"
     id="path839"
     inkscape:connector-curvature="0"
     style="fill:#3a434e;stroke:#05181e;stroke-width:2.70000005px" /><path
     d="m 99.568,133.34 c 7.003,-3.042 12.226,-1.139 12.855,0.449 1.041,2.632 -1.712,5.944 -9.068,9.081 -7.533,3.213 -11.034,1.908 -12.229,-0.658 -0.837,-1.796 2.482,-6.282 8.442,-8.872 z"
     id="path841"
     inkscape:connector-curvature="0"
     style="fill:#4f5862" /><path
     d="m -0.2,234.43 v -1.527 c 0.1,0.126 0.201,0.252 0.303,0.376 0.326,0.395 0.666,0.779 1.019,1.151 z M 106.38,55.95 c 1.339,0.253 -3.3,2.04 -3.3,2.04 -0.92,-0.093 -0.709,-1.267 -0.305,-2.441 0,0 0.705,-1.088 0.976,-1.51 0.536,-0.836 0.968,-1.738 1.276,-2.681 0.274,-0.836 0.449,-1.702 0.528,-2.578 0.052,-0.587 0.061,-1.177 0.029,-1.765 -0.023,-0.427 -0.068,-0.852 -0.132,-1.274 -0.488,-3.184 -2.092,-6.121 -4.222,-8.504 -0.374,-0.418 -0.766,-0.821 -1.173,-1.208 C 99.485,35.486 98.883,34.975 98.256,34.496 97.474,33.9 96.652,33.355 95.8,32.863 94.555,32.144 93.244,31.538 91.892,31.047 90.687,30.61 89.45,30.263 88.195,30.005 87.57,29.877 86.942,29.773 86.31,29.686 l -0.114,-0.015 c -0.122,1.02 0.171,2.034 0.455,3.003 0.159,0.533 0.323,1.064 0.478,1.598 0.272,0.951 0.511,1.91 0.68,2.885 0.185,1.072 0.006,3.929 -0.303,4.254 -0.345,0.363 -0.824,-1.27 -1.04,-2.014 -0.046,-0.156 -1.063,-2.533 -1.312,-3.07 -1.201,-2.584 -3.006,-4.466 -5.204,-6.252 -0.385,-0.313 -0.784,-0.612 -1.193,-0.895 -0.527,-0.363 -1.071,-0.701 -1.63,-1.012 -0.685,-0.38 -1.392,-0.721 -2.116,-1.019 -0.899,-0.369 -1.824,-0.674 -2.767,-0.907 -1.254,-0.311 -2.537,-0.49 -3.828,-0.536 -0.23,-0.007 -0.46,-0.01 -0.689,-0.009 -0.505,0.006 -1.009,0.03 -1.512,0.08 -0.96,0.094 -1.913,0.274 -2.841,0.543 -1.036,0.3 -2.034,0.713 -2.985,1.222 l -0.005,0.003 c 0.584,1.048 0.809,2.129 1.363,3.195 0.771,1.486 1.45,2.23 2.617,4.045 0.506,0.789 2.57,2.986 2.256,2.831 -2.438,-1.204 -4.796,-0.6 -7.533,-0.419 -3.657,0.241 -7.303,0.989 -10.886,1.76 -3.669,0.791 -7.245,2.021 -10.604,3.698 -2.608,1.303 -5.082,2.874 -7.365,4.688 -2.244,1.785 -4.301,3.803 -6.136,6.007 -0.583,0.7 -3.315,0.138 -2.816,-0.495 0.78,-0.991 1.595,-1.953 2.451,-2.878 1.356,-1.466 2.811,-2.841 4.352,-4.11 3.066,-2.526 6.474,-4.628 10.097,-6.254 3.043,-1.366 6.234,-2.397 9.494,-3.099 3.381,-0.729 6.835,-1.104 10.292,-1.154 1.694,-0.025 3.386,0.034 5.076,0.155 -0.222,-0.26 -0.441,-0.522 -0.661,-0.785 -0.914,-1.105 -1.803,-2.23 -2.61,-3.416 -0.761,-1.118 -1.442,-2.285 -2.072,-3.481 l -0.091,-0.174 c -0.117,-0.383 -0.208,-0.494 -0.099,-0.901 0.1,-0.375 0.252,-0.491 0.535,-0.731 0.041,-0.036 0.092,-0.059 0.138,-0.088 0.473,-0.299 0.96,-0.575 1.459,-0.827 1.594,-0.805 3.309,-1.36 5.069,-1.656 0.991,-0.166 1.993,-0.247 2.998,-0.259 h 0.315 c 0.84,0.011 1.678,0.068 2.511,0.179 1.862,0.248 3.69,0.746 5.428,1.461 2.235,0.92 4.328,2.198 6.149,3.79 0.533,0.466 1.039,0.96 1.522,1.478 l 0.034,0.036 c 0,-0.112 0.121,-1.168 0.289,-1.644 0.157,-0.443 0.573,-1.14 0.721,-1.211 0.667,-0.318 1.785,-0.243 3.413,0.152 2.003,0.486 4.018,0.956 5.919,1.753 0.987,0.415 1.95,0.886 2.881,1.415 0.794,0.451 1.564,0.943 2.306,1.476 0.53,0.38 1.045,0.782 1.543,1.203 3.133,2.648 5.645,6.142 6.76,10.12 0.18,0.643 0.323,1.297 0.424,1.957 0.153,1.003 0.211,2.021 0.163,3.035 -0.058,1.218 -0.269,2.428 -0.635,3.591 -0.427,1.357 -1.062,2.653 -1.875,3.82 0.269,0.044 0.536,0.093 0.804,0.142 z"
     id="path843"
     inkscape:connector-curvature="0" /><path
     d="m 0.2,98.139 c 3.662,-5.584 10.315,-14.64 22.517,-20.72 -9.914,-7.959 -6.221,-16.817 0.296,-24.716 1.86,-2.254 3.864,-4.286 5.993,-6.091"
     stroke-miterlimit="1.4142"
     id="path845"
     inkscape:connector-curvature="0"
     style="fill:none;stroke:#000000;stroke-width:2.5px;stroke-linecap:butt;stroke-miterlimit:1.41419995" /><path
     d="m 103.22,56.752 c 33.605,3.604 59.756,52.679 95.675,52.586 37.871,-0.099 62.192,-36.921 35.992,-66.752 6.067,-7.321 13.278,-0.917 17.667,1.833 2.75,-2.482 4.25,-4.389 10.666,-6.333 5.917,6.222 -2.963,13.342 -0.833,18.833 6.393,16.481 6.361,50.928 -16.368,73.137 -14.105,13.782 -37.142,23.22 -73.465,17.696 -16.123,-2.452 -22.891,11.917 -36.192,29.058 -15.251,19.656 -17.901,41.707 -16.995,58.174"
     stroke-miterlimit="1.4142"
     id="path847"
     inkscape:connector-curvature="0"
     style="fill:none;stroke:#000000;stroke-width:2.5px;stroke-linecap:butt;stroke-miterlimit:1.41419995" /></g><rect
   style="fill:#552200;fill-opacity:1;stroke:#000000;stroke-width:1.28518212;stroke-linecap:butt;stroke-linejoin:miter;stroke-miterlimit:9.69999981;stroke-dasharray:none;stroke-dashoffset:0;stroke-opacity:1"
   id="rect903"
   width="2.3921227"
   height="132.43498"
   x="261.48419"
   y="-98.017494"
   ry="3.6685588"
   rx="0.017737137"
   transform="matrix(0.93176634,0.36305851,-0.29026706,0.95694568,0,0)" /><g
   id="ear"
   transform="translate(1.548497,28.510079)"><path
     d="m -0.2,82.153 c 1.465,-0.675 2.995,-1.047 4.584,-1.067 14.728,-0.191 23.716,10.351 30.667,29.5 l -5.667,51.333 c -8.83,15.645 -19.32,22.601 -29.584,22.197 z"
     id="path852"
     inkscape:connector-curvature="0"
     style="fill:#56606b" /><path
     d="m 29.575,161.78 c -6.286,14.409 -16.353,21.623 -29.8,22.4 l -0.8,17.8 c 17.772,-2.913 32.907,-18.909 32.708,-34.4 -0.031,-2.45 0.409,-5.588 -2.108,-5.8 z"
     id="path854"
     inkscape:connector-curvature="0"
     style="fill:#3a434e" /><path
     d="m -0.322,181.64 0.437,1.238 c 0.17,0.004 0.17,0.004 0.339,0.006 0.386,0.001 0.771,-0.004 1.156,-0.022 0.854,-0.041 1.705,-0.137 2.547,-0.285 0.782,-0.137 1.557,-0.32 2.319,-0.544 0.548,-0.161 1.09,-0.344 1.624,-0.546 3.629,-1.374 6.866,-3.636 9.686,-6.276 0.463,-0.435 0.916,-0.88 1.36,-1.335 0.618,-0.634 1.216,-1.287 1.797,-1.955 0.769,-0.885 1.507,-1.798 2.216,-2.731 0.834,-1.099 5.784,-8.459 5.999,-8.498 0.143,-0.027 0.29,-0.028 0.434,-0.004 0.144,0.025 0.282,0.074 0.409,0.146 0.385,0.218 -5.943,11.794 -8.351,14.038 -0.5,0.467 -0.944,0.991 -1.433,1.47 -3.031,2.974 -6.524,5.542 -10.462,7.177 -0.507,0.211 -1.022,0.406 -1.542,0.584 -2.419,0.828 -4.964,1.277 -7.522,1.282 -0.338,0.001 -0.676,-0.006 -1.013,-0.021 z m 0,-100.8 C 0.004,80.702 0.336,80.577 0.673,80.465 1.088,80.327 1.511,80.21 1.938,80.116 2.427,80.009 2.923,79.931 3.422,79.885 3.674,79.862 3.925,79.849 4.178,79.84 4.42,79.835 4.662,79.833 4.904,79.833 c 0.818,0.006 1.634,0.039 2.448,0.111 1.45,0.127 2.891,0.368 4.3,0.734 1.417,0.369 2.801,0.864 4.129,1.482 0.881,0.41 1.738,0.873 2.564,1.384 0.556,0.344 1.099,0.709 1.627,1.094 3.727,2.714 6.691,6.349 9.114,10.241 0.488,0.783 0.955,1.578 1.404,2.384 1.606,2.881 4.443,13.486 4.447,13.632 0.02,0.667 -0.655,0.719 -0.843,0.495 -0.126,-0.149 -0.136,-0.201 -0.218,-0.376 -0.161,-0.441 -0.323,-0.881 -0.488,-1.321 C 32.262,106.715 31.03,103.775 29.6,100.928 28.572,98.881 27.445,96.882 26.175,94.975 23.889,91.54 21.108,88.361 17.649,86.067 17.08,85.689 16.495,85.337 15.894,85.013 14.957,84.507 13.984,84.069 12.983,83.706 11.394,83.129 9.739,82.743 8.062,82.533 7.119,82.415 6.17,82.351 5.221,82.337 4.798,82.33 4.373,82.326 3.95,82.352 3.603,82.373 3.257,82.413 2.914,82.472 1.78,82.667 0.69,83.068 -0.322,83.609 Z"
     id="path856"
     inkscape:connector-curvature="0" /><path
     d="m -0.283,99.086 c 5.874,-3.336 11.929,-1.378 18.167,6 -9.031,1.219 -5.404,8.43 2.5,9.166 -7.718,4.048 -8.567,8.798 3.5,12.534 -3.064,17.657 -11.848,25.767 -24.109,25.192"
     id="path858"
     inkscape:connector-curvature="0"
     style="fill:#3a434e" /><path
     d="m 22.884,126.59 c -12.067,-3.736 -10.218,-8.286 -2.5,-12.334 -7.904,-0.736 -11.531,-7.947 -2.5,-9.166 -6.238,-7.378 -12.293,-9.336 -18.167,-6"
     id="path860"
     inkscape:connector-curvature="0"
     style="fill:none;stroke:#000000;stroke-width:2.5px" /><path
     d="m 5.384,170.09 c -2.131,2.23 -4.079,3.994 -5.667,4.833"
     id="path862"
     inkscape:connector-curvature="0"
     style="fill:none;stroke:#000000;stroke-width:2px" /></g><g
   id="tooth"
   transform="translate(1.548497,28.510079)"><path
     d="m 185.42,51.423 c 1.041,-0.089 2.306,0.5 3.031,0.773 7.107,2.685 17.611,13.538 23.16,21.398 15.745,22.304 11.694,46.438 5.101,63.658 -22.38,58.462 -90.231,44.968 -110.5,28.5 8.201,-2.251 12.497,-7.919 16.625,-14.912 8.739,2.011 13.697,1.952 14.042,-3.754 18.919,11.165 42.946,4.876 56.167,-15.334 6.391,-9.77 17.973,-28.086 -1.834,-64 -4.763,-8.636 -6.735,-15.404 -5.792,-16.329 z"
     id="path865"
     inkscape:connector-curvature="0"
     style="fill:#b3bfcd" /><path
     d="m 120.02,155.24 -3.044,0.335 -4.4,3.4 c 0.926,3.558 -1.372,5.643 -4.653,7.046 27.684,17.335 60.967,17.571 83.211,3.419 16.456,-10.469 25.688,-28.819 31.042,-53.265 0,0 -4.899,-1.934 -7.8,1.4 -8.7,10 -18.813,29.711 -27.8,37.2 -6.466,5.389 -19.817,9.793 -30.388,10.144 -15.512,0.515 -31,-6.847 -36.168,-9.679 z"
     id="path867"
     inkscape:connector-curvature="0"
     style="fill:#93a1b5" /><path
     d="m 132.37,176.08 c 2.968,0.715 5.221,3.704 1.785,2.969 -3.093,-0.662 -6.128,-1.563 -9.164,-2.451 -6.083,-1.779 -15.916,-7.174 -18.053,-9.141 -0.255,-0.234 -1.133,-0.712 -1.305,-0.78 -0.157,-0.062 -2.171,0.065 -2.231,-0.204 -0.091,-0.411 1.157,-0.859 1.722,-1.002 1.442,-0.366 6.464,-2.566 6.378,-4.411 -0.071,-1.527 -2.286,-4.351 -1.997,-4.273 0.343,0.093 4.752,1.594 4.652,0.058 l 0.011,-0.005 c 0.021,-0.103 0.014,-0.212 0.003,-0.316 -0.021,-0.184 -0.064,-0.365 -0.115,-0.543 -0.172,-0.595 -0.44,-1.16 -0.722,-1.709 l -0.057,-0.109 c -0.03,-0.074 -0.068,-0.146 -0.091,-0.223 -0.046,-0.155 -0.061,-0.317 -0.045,-0.478 2.882,1.016 3.671,1.014 4.918,1.103 2.078,0.148 5.061,-3.258 2.755,-5.813 4.448,3.951 17.188,3.059 14.821,-1.653 l 0.02,-0.239 c 0.058,-0.203 0.059,-0.263 0.174,-0.444 0.261,-0.413 0.754,-0.639 1.238,-0.568 0.212,0.031 0.258,0.069 0.45,0.158 0.216,0.127 0.432,0.252 0.65,0.376 1.142,0.64 2.311,1.231 3.51,1.757 2.333,1.023 4.768,1.813 7.259,2.346 3.736,0.8 4.381,3.379 0.462,2.643 -2.577,-0.484 -5.104,-1.224 -7.536,-2.2 -1.286,-0.516 -2.541,-1.101 -3.769,-1.741 l -0.102,-0.053 c -2.731,3.7 -7.577,4.022 -14.814,2.388 l -0.008,-0.004 c -0.971,2.432 -1.92,4.774 -6.447,4.417 0.391,1.834 -2.308,3.855 -4.2,2.849 0.639,0.769 0.902,2.042 0.545,3.501 -0.41,1.675 -4.052,3.667 -4.522,3.645 0.197,0.139 0.762,0.562 0.961,0.698 0.56,0.375 1.125,0.741 1.7,1.093 2.71,1.659 5.576,3.059 8.509,4.276 4.098,1.7 8.343,3.045 12.655,4.083 z"
     id="path869"
     inkscape:connector-curvature="0"
     style="fill:#08080a" /><path
     d="m 143.44,150.2 c 17.632,6.463 37.877,-0.509 49.61,-18.445 6.391,-9.77 17.973,-28.086 -1.834,-64 -4.763,-8.636 -6.735,-15.404 -5.792,-16.329 1.041,-0.089 2.306,0.5 3.031,0.773 7.107,2.685 17.611,13.538 23.16,21.398 15.745,22.304 11.694,46.438 5.101,63.658 -18.433,48.151 -67.71,47.49 -95.844,36.558"
     stroke-miterlimit="1.4142"
     id="path871"
     inkscape:connector-curvature="0"
     style="fill:none;stroke:#000000;stroke-width:2.5px;stroke-linecap:butt;stroke-miterlimit:1.41419995" /></g><g
   id="snout"
   transform="matrix(1,0,0,1.0739962,3.5821848,26.426706)"><path
     d="m 234.97,42.396 c 2.764,-4.253 8.761,-4.06 18.176,0.832 3.047,9.604 -4.024,9.242 -9.28,13.888 z"
     id="path874"
     inkscape:connector-curvature="0"
     style="fill:#56606b" /><path
     d="m 242.5,57.519 c -1.207,-3.352 -2.893,-6.521 -4.913,-9.453 -1.119,-1.624 -2.342,-3.173 -3.64,-4.658 l -0.227,-0.376 c -0.027,-0.144 -0.08,-0.286 -0.082,-0.432 -0.002,-0.147 0.023,-0.296 0.072,-0.434 0.079,-0.221 0.166,-0.321 0.293,-0.471 0.152,-0.181 0.309,-0.358 0.47,-0.531 0.816,-0.877 1.754,-1.65 2.814,-2.214 0.582,-0.31 1.197,-0.555 1.834,-0.723 0.433,-0.115 0.875,-0.195 1.32,-0.239 0.319,-0.032 0.639,-0.046 0.96,-0.042 2.04,0.019 4.007,0.721 5.805,1.642 0.293,0.15 0.583,0.307 0.871,0.469 0.376,0.212 0.747,0.432 1.114,0.659 0.442,0.273 0.879,0.556 1.313,0.842 0.631,0.418 1.257,0.845 1.887,1.265 l 0.032,0.021 c 0.951,0.603 6.117,1.629 1.849,2.576 0,0 -3.661,1.412 -3.216,0.98 1.101,-1.068 -0.522,-1.829 -1.931,-2.756 -0.413,-0.272 -0.827,-0.541 -1.248,-0.801 -0.381,-0.235 -0.766,-0.464 -1.158,-0.681 -0.301,-0.168 -0.606,-0.329 -0.916,-0.481 -0.217,-0.108 -0.437,-0.211 -0.659,-0.308 -1.485,-0.655 -3.134,-1.107 -4.765,-0.858 -0.251,0.038 -0.498,0.092 -0.741,0.162 -0.408,0.118 -0.802,0.28 -1.176,0.479 -0.68,0.362 -1.287,0.843 -1.837,1.379 l -0.064,0.064 -0.006,0.007 c 0.215,0.255 0.427,0.512 0.638,0.771 1.227,1.516 2.378,3.093 3.426,4.739 1.874,2.945 3.424,6.102 4.531,9.414 l 0.026,0.079 c 0.479,2.186 0.175,12.285 -2.676,-0.09 z"
     id="path876"
     inkscape:connector-curvature="0" /></g><text
   x="171.46365"
   y="59.472778"
   font-size="40px"
   letter-spacing="0px"
   word-spacing="0px"
   style="font-size:40px;line-height:1.25;font-family:sans-serif;letter-spacing:0px;word-spacing:0px;fill:#000000;fill-opacity:0"
   xml:space="preserve"
   id="text881"><tspan
     x="171.46365"
     y="94.863403"
     id="tspan879" /></text>




<path
   style="fill:#56606b;stroke-width:0;stroke-miterlimit:1.5"
   inkscape:connector-curvature="0"
   id="path891"
   stroke-miterlimit="1.5"
   d="m 254.51199,79.991394 -5.5061,-1.0298 -1.948,4.2665 c -0.6162,0.11756 1.3146,6.8002 2.4868,9.5628 z" /><g
   id="g5622"
   transform="matrix(1.1923945,0.05802226,-0.06851471,1.408021,-53.112954,-15.400916)"><path
     sodipodi:nodetypes="cscc"
     inkscape:connector-curvature="0"
     id="path5523"
     d="m 274.63607,1.9921943 c 11.13163,2.6582635 16.85979,-6.0144134 29.86742,3.6678054 7.08036,5.2702623 13.83993,0.074078 19.27872,4.1229183 l -8.01892,26.36121"
     style="fill:none;stroke:#000000;stroke-width:1.00157475;stroke-linecap:butt;stroke-linejoin:miter;stroke-miterlimit:1.5;stroke-dasharray:none;stroke-opacity:1" /><path
     sodipodi:nodetypes="cscc"
     inkscape:connector-curvature="0"
     id="path5523-1"
     d="m 266.15715,28.144314 c 11.13163,2.658263 17.69615,-5.665929 30.70378,4.01629 7.08036,5.270262 13.77898,-0.272306 19.21777,3.776535 v 0"
     style="clip-rule:evenodd;fill:none;fill-rule:evenodd;stroke:#000000;stroke-width:1px;stroke-linecap:butt;stroke-linejoin:miter;stroke-miterlimit:1.5;stroke-opacity:1" /></g><path
   style="opacity:1;fill:#800080;fill-opacity:0.98648652;fill-rule:evenodd;stroke:#777777;stroke-width:0.02811024;stroke-linecap:butt;stroke-linejoin:round;stroke-miterlimit:1.5;stroke-dasharray:none;stroke-dashoffset:0;stroke-opacity:1"
   d="m 320.36502,51.873044 c -0.82607,-0.557693 -1.87143,-1.017892 -2.90664,-1.279584 -1.47777,-0.37357 -2.9451,-0.454341 -6.24803,-0.343931 -3.672,0.122748 -5.37078,-0.04177 -7.40625,-0.717258 -1.13536,-0.376782 -2.71901,-1.270364 -3.73797,-2.109175 -0.23402,-0.19264 -0.90902,-0.800009 -1.5,-1.349711 -4.57129,-4.251943 -8.45654,-6.333791 -13.22999,-7.089084 -0.7411,-0.117262 -1.10862,-0.133839 -3.00079,-0.135351 -2.41214,-0.0019 -2.61854,0.01526 -6.375,0.530687 -3.807,0.522367 -4.91047,0.623314 -6.8125,0.623217 -1.775,-6.2e-5 -3.32008,-0.167555 -4.8125,-0.521606 -0.51042,-0.121089 -0.59187,-0.157939 -0.58037,-0.262568 0.007,-0.06694 2.36456,-7.870148 5.23824,-17.34046 2.87368,-9.470313 5.25552,-17.3323963 5.29297,-17.4712968 l 0.0681,-0.2525462 0.75616,0.2077096 c 2.2127,0.6078043 4.53579,0.8492473 6.81866,0.7086754 1.53074,-0.094258 2.7334,-0.2510664 5.78125,-0.7537864 3.46664,-0.5717958 4.67473,-0.7057644 6.375,-0.7069443 1.46939,-0.00102 2.24596,0.067952 3.4375,0.3053011 3.80522,0.7579803 7.20758,2.7349553 11.34375,6.5914066 1.26706,1.181364 1.7033,1.53814 2.66074,2.176026 1.9744,1.315436 4.19838,2.053885 6.99551,2.322783 0.39532,0.038 2.22344,0.09337 4.0625,0.123049 3.33094,0.05375 3.82356,0.08508 4.92241,0.313108 1.42851,0.296436 2.84328,0.96105 3.82481,1.796775 l 0.21596,0.183882 -5.36476,17.306054 c -2.95062,9.51833 -5.38289,17.326455 -5.40505,17.35139 -0.0222,0.02493 -0.20832,-0.06811 -0.4137,-0.206762 z"
   id="path4808"
   inkscape:connector-curvature="0" /><g
   style="fill:none;stroke:#ffffff;stroke-opacity:1"
   transform="matrix(0.02766315,0.00866543,0.00866543,-0.02766315,285.47527,35.180259)"
   id="g5486"><circle
     style="stroke:#ffffff;stroke-width:90;stroke-opacity:1"
     cx="325"
     cy="700"
     r="255"
     id="circle5480" /><path
     style="stroke:#ffffff;stroke-width:100;stroke-opacity:1"
     inkscape:connector-curvature="0"
     d="M 325,0 V 445 M 95,230 h 460"
     id="path5482" /><path
     style="fill:#ffffff;fill-opacity:1;stroke:#ffffff;stroke-opacity:1"
     inkscape:connector-curvature="0"
     d="m 375,445 v 90 c 70,31 118,83 118,133 0,24 -18,46 -48,46 -25,0 -40,-7 -65,-7 -50,0 -42,24 -53,24 -11,0 -22,-13 -22,-33 0,-30 25,-45 50,-45 15,0 20,6 29,6 6,0 9,-1 9,-4 0,-5 -11,-14 -25,-14 -50,0 -56,34 -118,34 -38,0 -62,-24 -62,-63 0,-49 32,-70 87,-77 v -90 z m 94,347 c 0,20 -24,52 -39,52 -15,0 -25,-84 -25,-94 0,-15 15,-33 30,-33 11,0 34,55 34,75 z m -65,44 c 0,25 -39,37 -53,37 -19,0 -25,-50 -25,-100 0,-20 9,-46 34,-46 25,0 44,56 44,109 z m -84,5 c 0,14 -6,27 -17,27 -20,0 -58,-25 -58,-50 0,-50 10,-100 35,-100 27,0 40,95 40,123 z M 241,718 c 0,45 -6,98 -21,98 -20,0 -45,-16 -45,-38 0,-42 20,-95 50,-95 11,0 16,8 16,35 z"
     id="path5484" /></g></svg>