<?xml version="1.0" encoding="UTF-8" standalone="no"?>
<!-- Created with Inkscape (http://www.inkscape.org/) -->

<svg
   width="1200"
   height="630"
   viewBox="0 0 317.49999 166.6875"
   version="1.1"
   id="svg5"
   inkscape:version="1.1.2 (0a00cf5339, 2022-02-04)"
   sodipodi:docname="server-thumbnail.svg"
   xmlns:inkscape="http://www.inkscape.org/namespaces/inkscape"
   xmlns:sodipodi="http://sodipodi.sourceforge.net/DTD/sodipodi-0.dtd"
   xmlns="http://www.w3.org/2000/svg"
   xmlns:svg="http://www.w3.org/2000/svg">
  <sodipodi:namedview
     id="namedview7"
     pagecolor="#ffffff"
     bordercolor="#666666"
     borderopacity="1.0"
     inkscape:pageshadow="2"
     inkscape:pageopacity="0.0"
     inkscape:pagecheckerboard="0"
     inkscape:document-units="mm"
     showgrid="false"
     units="px"
     width="1200px"
     inkscape:zoom="0.54138697"
     inkscape:cx="782.25009"
     inkscape:cy="315.85541"
     inkscape:window-width="1920"
     inkscape:window-height="1019"
     inkscape:window-x="0"
     inkscape:window-y="61"
     inkscape:window-maximized="1"
     inkscape:current-layer="layer2" />
  <defs
     id="defs2" />
  <g
     inkscape:groupmode="layer"
     id="layer2"
     inkscape:label="Background">
    <rect
       style="fill:#444b5d;fill-opacity:1;stroke:#555555;stroke-width:0.412457;stroke-opacity:0.99"
       id="rect1426"
       width="324.46411"
       height="172.53223"
       x="-3.5877056"
       y="-2.0907798" />
    <path
       d="m 103.29818,135.07717 c -1.04512,0 -2.09065,0.37318 -2.88691,1.11978 L 83.789584,151.92434 V 166.6875 H 317.5 v -14.66403 l -16.4234,-15.82652 c -1.59255,-1.49305 -4.18128,-1.49305 -5.77385,0 l -13.73669,13.03874 c -1.59256,1.49306 -4.17933,1.49306 -5.77188,0 l -13.73671,-13.03874 c -1.59256,-1.49305 -4.17933,-1.49305 -5.77189,0 l -13.73671,13.03874 c -1.59255,1.49306 -4.18124,1.49306 -5.77383,0 l -13.73476,-13.03874 c -1.59255,-1.49305 -4.18124,-1.49305 -5.77383,0 l -13.73476,13.03874 c -1.59255,1.49306 -4.18124,1.49306 -5.77383,0 l -13.73668,-13.03874 c -1.59259,-1.49305 -4.17932,-1.49305 -5.77193,0 l -13.53645,13.03874 c -1.59255,1.49306 -4.18124,1.49306 -5.77383,0 l -13.73668,-13.03874 c -1.59259,-1.49305 -4.17932,-1.49305 -5.77191,0 l -13.73668,13.03874 c -1.59259,1.49306 -4.17932,1.49306 -5.77191,0 l -13.73667,-13.03874 c -0.7963,-0.74653 -1.8418,-1.11978 -2.88694,-1.11978 z"
       fill="#282c37"
       id="path848"
       style="stroke-width:0.995355" />
  </g>
  <g
     inkscape:label="Layer 1"
     inkscape:groupmode="layer"
     id="layer1">
    <g
       style="clip-rule:evenodd;fill-rule:evenodd;stroke-linecap:round;stroke-linejoin:round;stroke-miterlimit:1.5"
       id="g1168"
       transform="matrix(0.7019297,0,0,0.7019297,-0.08188767,1.8269164)">
      <g
         id="mastodon">
        <path
           d="M -0.05,235.109 0.2,98.139 C 3.862,92.555 10.515,83.499 22.717,77.419 12.803,69.46 16.496,60.602 23.013,52.703 33.475,40.024 48.48,34.375 64.985,36.521 61.266,32.269 60.64,30.792 58.717,27.086 c 11.337,-7.311 27.917,1.7 28.167,13.5 -0.136,-6.404 -2.855,-8.783 -1.667,-12.167 0.289,-0.011 0.577,-0.052 0.858,-0.018 17.264,2.078 26.303,18.554 17.142,28.351 33.605,3.604 59.756,52.679 95.675,52.586 37.871,-0.099 62.192,-36.921 35.992,-66.752 6.067,-7.321 13.278,-0.917 17.667,1.833 2.75,-2.482 4.25,-4.389 10.666,-6.333 5.917,6.222 -2.963,13.342 -0.833,18.833 6.393,16.481 6.361,50.928 -16.368,73.137 -14.105,13.782 -37.142,23.22 -73.465,17.696 -16.123,-2.452 -22.891,11.917 -36.192,29.058 -15.251,19.656 -17.901,41.707 -16.995,58.174 z"
           style="fill:#56606b"
           id="path1018" />
        <path
           d="m 257.375,114.778 c 0.592,-1.223 -3.029,-0.751 -4,0.2 -10.167,9.967 -19.536,19.144 -34.2,22.4 -14.335,3.184 -33.1,2.867 -47.4,1.4 -9.93,-1.018 -24.681,4.919 -28.8,15 l 6.8,5.8 c 2.533,-4.849 8.314,-11.459 14.4,-11.8 11.933,-0.666 39.167,3.667 54.8,-1.8 15.568,-5.443 31.267,-16.466 38.4,-31.2 z"
           style="fill:#3a434e"
           id="path1020" />
        <path
           d="m 107.975,167.386 c 5.488,10.128 11.618,18.64 18.6,25 l 9.6,-16.8 z"
           style="fill:#3a434e"
           id="path1022" />
        <path
           d="m 22.975,76.978 c -5.43,-4.965 -11.864,-9.557 -2.6,-20 0,0 6.25,9.293 12.2,5.2 14.257,-9.806 18.61,-14.051 33.6,-15 10.62,-0.672 26.565,3.652 28.4,10.6 2.149,8.138 -8.933,11.667 -15.4,15.6 -6.131,3.73 -13.2,8.034 -19,10.4 -4.952,2.021 -14.8,5 -14.8,5 l -4,-2 -10,13.8 -17.8,-7.2 -5.4,-5.2 z"
           style="fill:#3a434e"
           id="path1024" />
        <path
           d="m 103.384,55.375 c 0.031,0.004 0.063,0.006 0.093,0.012 0.093,0.016 0.183,0.048 0.266,0.093 0.34,0.182 0.528,0.573 0.46,0.953 -0.023,0.123 -0.071,0.242 -0.142,0.346 -0.018,0.026 -0.038,0.05 -0.057,0.075 -0.155,0.183 1.259,1.058 1.102,1.239 -0.67,0.194 -0.923,-0.127 -2.229,0.338 -1.556,0.554 -3.048,2.689 -4.338,3.72 -1.363,1.088 -2.794,2.091 -4.283,2.997 -2.466,1.499 -5.101,2.746 -7.865,3.586 -2.049,0.622 -4.181,1.021 -6.326,1.043 -0.561,0.006 -1.121,-0.015 -1.679,-0.065 C 78.248,69.7 78.111,69.686 77.973,69.67 77.845,69.655 77.713,69.645 77.59,69.603 77.289,69.499 77.061,69.236 77,68.924 c -0.018,-0.093 0.182,-0.559 0.572,-0.626 0.448,-0.078 4.628,-0.144 5.858,-0.381 1.554,-0.298 3.26,-0.735 4.733,-1.31 2.455,-0.958 4.761,-2.334 6.942,-3.811 2.353,-1.594 4.356,-3.653 6.3,-5.727 0.421,-0.449 0.828,-0.909 1.225,-1.378 l 0.065,-0.069 c 0.024,-0.02 0.046,-0.042 0.071,-0.061 0.1,-0.077 0.215,-0.133 0.337,-0.163 0.082,-0.02 0.104,-0.018 0.187,-0.025 0.031,0 0.063,0.001 0.094,0.002 z"
           style="fill:#15181c;fill-rule:nonzero"
           id="path1026" />
        <path
           d="m 66.884,69.752 c 2.98,2.263 -13.562,4.511 -26.667,4.5"
           style="fill:none;stroke:#000000;stroke-width:1.8px;stroke-opacity:0.690196"
           id="path1028" />
        <path
           d="m 149.717,94.586 5.834,-4.667"
           style="fill:none;stroke:#000000;stroke-width:1.8px;stroke-opacity:0.690196"
           id="path1030" />
        <path
           d="m 158.551,102.252 6.5,-5.833"
           style="fill:none;stroke:#000000;stroke-width:1.8px;stroke-opacity:0.690196"
           id="path1032" />
        <path
           d="m 176.884,112.586 c 1.34,-1.428 2.555,-4.052 3.667,-7.667"
           style="fill:none;stroke:#000000;stroke-width:1.8px;stroke-opacity:0.690196"
           id="path1034" />
        <path
           d="m 191.051,116.752 c 1.163,-1.499 2.33,-4.107 3.5,-7.333"
           style="fill:none;stroke:#000000;stroke-width:1.8px;stroke-opacity:0.690196"
           id="path1036" />
        <path
           d="m 99.384,96.919 c -1.799,1.324 0.46,5.835 3.756,11.95 3.064,5.687 6.811,12.002 8.577,10.717 2.85,-2.075 -0.356,-9.201 -3,-14.167 -2.482,-4.663 -7.318,-9.984 -9.333,-8.5 z"
           style="fill:#3a434e;stroke:#05181e;stroke-width:2.7px"
           id="path1038" />
        <path
           d="m 99.568,133.34 c 7.003,-3.042 12.226,-1.139 12.855,0.449 1.041,2.632 -1.712,5.944 -9.068,9.081 -7.533,3.213 -11.034,1.908 -12.229,-0.658 -0.837,-1.796 2.482,-6.282 8.442,-8.872 z"
           style="fill:#4f5862"
           id="path1040" />
        <path
           d="m -0.2,234.433 v -1.527 c 0.1,0.126 0.201,0.252 0.303,0.376 0.326,0.395 0.666,0.779 1.019,1.151 z M 106.381,55.955 c 1.339,0.253 -3.3,2.04 -3.3,2.04 -0.92,-0.093 -0.709,-1.267 -0.305,-2.441 0,0 0.705,-1.088 0.976,-1.51 0.536,-0.836 0.968,-1.738 1.276,-2.681 0.274,-0.836 0.449,-1.702 0.528,-2.578 0.052,-0.587 0.061,-1.177 0.029,-1.765 -0.023,-0.427 -0.068,-0.852 -0.132,-1.274 -0.488,-3.184 -2.092,-6.121 -4.222,-8.504 -0.374,-0.418 -0.766,-0.821 -1.173,-1.208 C 99.486,35.491 98.884,34.98 98.257,34.501 97.475,33.905 96.653,33.36 95.801,32.868 94.556,32.149 93.245,31.543 91.893,31.052 90.688,30.615 89.451,30.268 88.196,30.01 87.571,29.882 86.943,29.778 86.311,29.691 l -0.114,-0.015 c -0.122,1.02 0.171,2.034 0.455,3.003 0.159,0.533 0.323,1.064 0.478,1.598 0.272,0.951 0.511,1.91 0.68,2.885 0.185,1.072 0.006,3.929 -0.303,4.254 -0.345,0.363 -0.824,-1.27 -1.04,-2.014 -0.046,-0.156 -1.063,-2.533 -1.312,-3.07 -1.201,-2.584 -3.006,-4.466 -5.204,-6.252 -0.385,-0.313 -0.784,-0.612 -1.193,-0.895 -0.527,-0.363 -1.071,-0.701 -1.63,-1.012 -0.685,-0.38 -1.392,-0.721 -2.116,-1.019 -0.899,-0.369 -1.824,-0.674 -2.767,-0.907 -1.254,-0.311 -2.537,-0.49 -3.828,-0.536 -0.23,-0.007 -0.46,-0.01 -0.689,-0.009 -0.505,0.006 -1.009,0.03 -1.512,0.08 -0.96,0.094 -1.913,0.274 -2.841,0.543 -1.036,0.3 -2.034,0.713 -2.985,1.222 l -0.005,0.003 c 0.584,1.048 0.809,2.129 1.363,3.195 0.771,1.486 1.45,2.23 2.617,4.045 0.506,0.789 2.57,2.986 2.256,2.831 -2.438,-1.204 -4.796,-0.6 -7.533,-0.419 -3.657,0.241 -7.303,0.989 -10.886,1.76 -3.669,0.791 -7.245,2.021 -10.604,3.698 -2.608,1.303 -5.082,2.874 -7.365,4.688 -2.244,1.785 -4.301,3.803 -6.136,6.007 -0.583,0.7 -3.315,0.138 -2.816,-0.495 0.78,-0.991 1.595,-1.953 2.451,-2.878 1.356,-1.466 2.811,-2.841 4.352,-4.11 3.066,-2.526 6.474,-4.628 10.097,-6.254 3.043,-1.366 6.234,-2.397 9.494,-3.099 3.381,-0.729 6.835,-1.104 10.292,-1.154 1.694,-0.025 3.386,0.034 5.076,0.155 -0.222,-0.26 -0.441,-0.522 -0.661,-0.785 -0.914,-1.105 -1.803,-2.23 -2.61,-3.416 C 59.011,30.201 58.33,29.034 57.7,27.838 l -0.091,-0.174 c -0.117,-0.383 -0.208,-0.494 -0.099,-0.901 0.1,-0.375 0.252,-0.491 0.535,-0.731 0.041,-0.036 0.092,-0.059 0.138,-0.088 0.473,-0.299 0.96,-0.575 1.459,-0.827 1.594,-0.805 3.309,-1.36 5.069,-1.656 0.991,-0.166 1.993,-0.247 2.998,-0.259 0.157,0 0.157,0 0.315,0 0.84,0.011 1.678,0.068 2.511,0.179 1.862,0.248 3.69,0.746 5.428,1.461 2.235,0.92 4.328,2.198 6.149,3.79 0.533,0.466 1.039,0.96 1.522,1.478 l 0.034,0.036 c 0,-0.112 0.121,-1.168 0.289,-1.644 0.157,-0.443 0.573,-1.14 0.721,-1.211 0.667,-0.318 1.785,-0.243 3.413,0.152 2.003,0.486 4.018,0.956 5.919,1.753 0.987,0.415 1.95,0.886 2.881,1.415 0.794,0.451 1.564,0.943 2.306,1.476 0.53,0.38 1.045,0.782 1.543,1.203 3.133,2.648 5.645,6.142 6.76,10.12 0.18,0.643 0.323,1.297 0.424,1.957 0.153,1.003 0.211,2.021 0.163,3.035 -0.058,1.218 -0.269,2.428 -0.635,3.591 -0.427,1.357 -1.062,2.653 -1.875,3.82 0.269,0.044 0.536,0.093 0.804,0.142 z"
           id="path1042" />
        <path
           d="m 0.2,98.139 c 3.662,-5.584 10.315,-14.64 22.517,-20.72 -9.914,-7.959 -6.221,-16.817 0.296,-24.716 1.86,-2.254 3.864,-4.286 5.993,-6.091"
           style="fill:none;stroke:#000000;stroke-width:2.5px;stroke-linecap:butt;stroke-miterlimit:1.41421"
           id="path1044" />
        <path
           d="m 103.217,56.752 c 33.605,3.604 59.756,52.679 95.675,52.586 37.871,-0.099 62.192,-36.921 35.992,-66.752 6.067,-7.321 13.278,-0.917 17.667,1.833 2.75,-2.482 4.25,-4.389 10.666,-6.333 5.917,6.222 -2.963,13.342 -0.833,18.833 6.393,16.481 6.361,50.928 -16.368,73.137 -14.105,13.782 -37.142,23.22 -73.465,17.696 -16.123,-2.452 -22.891,11.917 -36.192,29.058 -15.251,19.656 -17.901,41.707 -16.995,58.174"
           style="fill:none;stroke:#000000;stroke-width:2.5px;stroke-linecap:butt;stroke-miterlimit:1.41421"
           id="path1046" />
      </g>
      <g
         id="ear">
        <path
           d="m -0.2,82.153 c 1.465,-0.675 2.995,-1.047 4.584,-1.067 14.728,-0.191 23.716,10.351 30.667,29.5 l -5.667,51.333 c -8.83,15.645 -19.32,22.601 -29.584,22.197 z"
           style="fill:#56606b"
           id="path1049" />
        <path
           d="m 29.575,161.778 c -6.286,14.409 -16.353,21.623 -29.8,22.4 l -0.8,17.8 c 17.772,-2.913 32.907,-18.909 32.708,-34.4 -0.031,-2.45 0.409,-5.588 -2.108,-5.8 z"
           style="fill:#3a434e"
           id="path1051" />
        <path
           d="m -0.322,181.638 0.437,1.238 c 0.17,0.004 0.17,0.004 0.339,0.006 0.386,0.001 0.771,-0.004 1.156,-0.022 0.854,-0.041 1.705,-0.137 2.547,-0.285 0.782,-0.137 1.557,-0.32 2.319,-0.544 0.548,-0.161 1.09,-0.344 1.624,-0.546 3.629,-1.374 6.866,-3.636 9.686,-6.276 0.463,-0.435 0.916,-0.88 1.36,-1.335 0.618,-0.634 1.216,-1.287 1.797,-1.955 0.769,-0.885 1.507,-1.798 2.216,-2.731 0.834,-1.099 5.784,-8.459 5.999,-8.498 0.143,-0.027 0.29,-0.028 0.434,-0.004 0.144,0.025 0.282,0.074 0.409,0.146 0.385,0.218 -5.943,11.794 -8.351,14.038 -0.5,0.467 -0.944,0.991 -1.433,1.47 -3.031,2.974 -6.524,5.542 -10.462,7.177 -0.507,0.211 -1.022,0.406 -1.542,0.584 -2.419,0.828 -4.964,1.277 -7.522,1.282 -0.338,10e-4 -0.676,-0.006 -1.013,-0.021 z m 0,-100.798 C 0.004,80.702 0.336,80.577 0.673,80.465 1.088,80.327 1.511,80.21 1.938,80.116 2.427,80.009 2.923,79.931 3.422,79.885 3.674,79.862 3.925,79.849 4.178,79.84 4.42,79.835 4.662,79.833 4.904,79.833 c 0.818,0.006 1.634,0.039 2.448,0.111 1.45,0.127 2.891,0.368 4.3,0.734 1.417,0.369 2.801,0.864 4.129,1.482 0.881,0.41 1.738,0.873 2.564,1.384 0.556,0.344 1.099,0.709 1.627,1.094 3.727,2.714 6.691,6.349 9.114,10.241 0.488,0.783 0.955,1.578 1.404,2.384 1.606,2.881 4.443,13.486 4.447,13.632 0.02,0.667 -0.655,0.719 -0.843,0.495 -0.126,-0.149 -0.136,-0.201 -0.218,-0.376 -0.161,-0.441 -0.323,-0.881 -0.488,-1.321 C 32.262,106.715 31.03,103.775 29.6,100.928 28.572,98.881 27.445,96.882 26.175,94.975 23.889,91.54 21.108,88.361 17.649,86.067 17.08,85.689 16.495,85.337 15.894,85.013 14.957,84.507 13.984,84.069 12.983,83.706 11.394,83.129 9.739,82.743 8.062,82.533 7.119,82.415 6.17,82.351 5.221,82.337 4.798,82.33 4.373,82.326 3.95,82.352 3.603,82.373 3.257,82.413 2.914,82.472 1.78,82.667 0.69,83.068 -0.322,83.609 Z"
           id="path1053" />
        <path
           d="m -0.283,99.086 c 5.874,-3.336 11.929,-1.378 18.167,6 -9.031,1.219 -5.404,8.43 2.5,9.166 -7.718,4.048 -8.567,8.798 3.5,12.534 -3.064,17.657 -11.848,25.767 -24.109,25.192"
           style="fill:#3a434e"
           id="path1055" />
        <path
           d="m 22.884,126.586 c -12.067,-3.736 -10.218,-8.286 -2.5,-12.334 -7.904,-0.736 -11.531,-7.947 -2.5,-9.166 -6.238,-7.378 -12.293,-9.336 -18.167,-6"
           style="fill:none;stroke:#000000;stroke-width:2.5px"
           id="path1057" />
        <path
           d="m 5.384,170.086 c -2.131,2.23 -4.079,3.994 -5.667,4.833"
           style="fill:none;stroke:#000000;stroke-width:2px"
           id="path1059" />
      </g>
      <g
         id="tooth">
        <path
           d="m 185.425,51.423 c 1.041,-0.089 2.306,0.5 3.031,0.773 7.107,2.685 17.611,13.538 23.16,21.398 15.745,22.304 11.694,46.438 5.101,63.658 -22.38,58.462 -90.231,44.968 -110.5,28.5 8.201,-2.251 12.497,-7.919 16.625,-14.912 8.739,2.011 13.697,1.952 14.042,-3.754 18.919,11.165 42.946,4.876 56.167,-15.334 6.391,-9.77 17.973,-28.086 -1.834,-64 -4.763,-8.636 -6.735,-15.404 -5.792,-16.329 z"
           style="fill:#b3bfcd"
           id="path1062" />
        <path
           d="m 120.019,155.243 -3.044,0.335 -4.4,3.4 c 0.926,3.558 -1.372,5.643 -4.653,7.046 27.684,17.335 60.967,17.571 83.211,3.419 16.456,-10.469 25.688,-28.819 31.042,-53.265 0,0 -4.899,-1.934 -7.8,1.4 -8.7,10 -18.813,29.711 -27.8,37.2 -6.466,5.389 -19.817,9.793 -30.388,10.144 -15.512,0.515 -31,-6.847 -36.168,-9.679 z"
           style="fill:#93a1b5"
           id="path1064" />
        <path
           d="m 132.369,176.081 c 2.968,0.715 5.221,3.704 1.785,2.969 -3.093,-0.662 -6.128,-1.563 -9.164,-2.451 -6.083,-1.779 -15.916,-7.174 -18.053,-9.141 -0.255,-0.234 -1.133,-0.712 -1.305,-0.78 -0.157,-0.062 -2.171,0.065 -2.231,-0.204 -0.091,-0.411 1.157,-0.859 1.722,-1.002 1.442,-0.366 6.464,-2.566 6.378,-4.411 -0.071,-1.527 -2.286,-4.351 -1.997,-4.273 0.343,0.093 4.752,1.594 4.652,0.058 l 0.011,-0.005 c 0.021,-0.103 0.014,-0.212 0.003,-0.316 -0.021,-0.184 -0.064,-0.365 -0.115,-0.543 -0.172,-0.595 -0.44,-1.16 -0.722,-1.709 l -0.057,-0.109 c -0.03,-0.074 -0.068,-0.146 -0.091,-0.223 -0.046,-0.155 -0.061,-0.317 -0.045,-0.478 2.882,1.016 3.671,1.014 4.918,1.103 2.078,0.148 5.061,-3.258 2.755,-5.813 4.448,3.951 17.188,3.059 14.821,-1.653 l 0.02,-0.239 c 0.058,-0.203 0.059,-0.263 0.174,-0.444 0.261,-0.413 0.754,-0.639 1.238,-0.568 0.212,0.031 0.258,0.069 0.45,0.158 0.216,0.127 0.432,0.252 0.65,0.376 1.142,0.64 2.311,1.231 3.51,1.757 2.333,1.023 4.768,1.813 7.259,2.346 3.736,0.8 4.381,3.379 0.462,2.643 -2.577,-0.484 -5.104,-1.224 -7.536,-2.2 -1.286,-0.516 -2.541,-1.101 -3.769,-1.741 l -0.102,-0.053 c -2.731,3.7 -7.577,4.022 -14.814,2.388 l -0.008,-0.004 c -0.971,2.432 -1.92,4.774 -6.447,4.417 0.391,1.834 -2.308,3.855 -4.2,2.849 0.639,0.769 0.902,2.042 0.545,3.501 -0.41,1.675 -4.052,3.667 -4.522,3.645 0.197,0.139 0.762,0.562 0.961,0.698 0.56,0.375 1.125,0.741 1.7,1.093 2.71,1.659 5.576,3.059 8.509,4.276 4.098,1.7 8.343,3.045 12.655,4.083 z"
           style="fill:#08080a"
           id="path1066" />
        <path
           d="m 143.441,150.197 c 17.632,6.463 37.877,-0.509 49.61,-18.445 6.391,-9.77 17.973,-28.086 -1.834,-64 -4.763,-8.636 -6.735,-15.404 -5.792,-16.329 1.041,-0.089 2.306,0.5 3.031,0.773 7.107,2.685 17.611,13.538 23.16,21.398 15.745,22.304 11.694,46.438 5.101,63.658 -18.433,48.151 -67.71,47.49 -95.844,36.558"
           style="fill:none;stroke:#000000;stroke-width:2.5px;stroke-linecap:butt;stroke-miterlimit:1.41421"
           id="path1068" />
      </g>
      <g
         id="fairydust">
        <path
           d="m 218.411,35.777 c -3.4,-4.494 -21.276,0.906 -21.276,0.906 l -0.838,-2.508 c 0,0 25.291,-10.628 36.667,-7.244"
           style="fill:#1f3330;stroke:#000000;stroke-width:1.65px"
           id="path1071" />
        <path
           d="m 218.286,38.978 c 0,0 -0.889,-2.985 -1.962,-6.586 37.655,-35.279 64.279,-11.974 64.279,-11.974 l 0.012,0.041 c 0,0 -9.535,34.074 -60.356,25.145 -1.072,-3.602 -1.961,-6.586 -1.961,-6.586"
           style="fill:#1f3230"
           id="path1073" />
        <path
           d="m 218.836,40.526 c 25.477,0.134 43.331,-4.052 61.69,-19.785 0.293,-0.149 -6.478,25.922 -48.844,27.274 -5.939,-2.212 -8.261,-2.262 -12.156,-0.774 2.291,-0.796 0.053,-6.347 -0.69,-6.715 z"
           style="fill:#172523"
           id="path1075" />
        <path
           d="m 218.286,38.978 c 0,0 -0.889,-2.985 -1.962,-6.586 37.655,-35.279 64.279,-11.974 64.279,-11.974 l 0.012,0.041 c 0,0 -9.535,34.074 -60.356,25.145 -1.072,-3.602 -1.961,-6.586 -1.961,-6.586"
           style="fill:none;stroke:#000000;stroke-width:1.65px"
           id="path1077" />
        <path
           d="m 221.273,45.077 c -0.449,4.982 -17.14,9.762 -17.14,9.762 l 0.581,2.261 c 0,0 25.088,-4.559 32.343,-12.632"
           style="fill:#1f3330;stroke:#000000;stroke-width:1.65px"
           id="path1079" />
        <path
           d="m 221.14,42.984 c 8.607,-1.337 23.666,1.3 10.542,5.031 -5.939,-2.212 -8.261,-2.262 -12.156,-0.774 2.291,-0.796 2.357,-3.889 1.614,-4.257 z"
           style="fill:#172523"
           id="path1081" />
        <path
           d="m 221.273,45.077 c -0.449,4.982 -17.14,9.762 -17.14,9.762 l 0.581,2.261 c 0,0 25.088,-4.559 32.343,-12.632"
           style="fill:none;stroke:#000000;stroke-width:1.65px"
           id="path1083" />
        <path
           d="m 218.381,36.857 c -7.915,2.284 -19.654,5.284 -19.654,5.284 l -0.214,-1.787 c 0,0 23.303,-11.103 33.67,-11.388"
           style="fill:#1f3330"
           id="path1085" />
        <path
           d="M 198.526,42.074 C 216,34.22 223.667,32.038 233.179,28.984 c -0.166,0.044 -0.864,3.962 -5.779,6.858 -1.989,1.172 -4.624,2.65 -8.718,1.673 -1.533,-1.143 -14.094,3.738 -20.156,4.559 z"
           style="fill:#172523"
           id="path1087" />
        <path
           d="m 218.381,36.857 c -7.915,2.284 -19.654,5.284 -19.654,5.284 l -0.214,-1.787 c 0,0 23.303,-11.103 33.67,-11.388"
           style="fill:none"
           id="path1089" />
        <path
           d="m 232.936,28.876 c 0.392,0.696 -4.254,0.989 -5.076,1.151 -0.454,0.09 -1.896,0.419 -2.835,0.664 -2.426,0.635 -4.817,1.402 -7.184,2.228 -3.175,1.108 -6.309,2.329 -9.415,3.614 -3.067,1.269 -6.107,2.601 -9.117,3.999 l -0.257,0.12 0.103,0.863 c 1.193,-0.307 2.385,-0.617 3.577,-0.927 5.183,-1.357 10.362,-2.733 15.511,-4.212 l 0.276,0.961 c -3.226,0.927 -6.463,1.812 -9.706,2.679 -3.143,0.841 -6.291,1.665 -9.442,2.476 l -0.52,0.134 c -0.068,0.011 -0.085,0.019 -0.154,0.014 -0.183,-0.01 -0.349,-0.124 -0.425,-0.291 -0.029,-0.063 -0.029,-0.081 -0.042,-0.148 l -0.214,-1.788 c -0.002,-0.069 -0.007,-0.087 0.006,-0.155 0.02,-0.103 0.073,-0.197 0.149,-0.269 0.051,-0.047 0.069,-0.053 0.128,-0.087 0.342,-0.161 0.683,-0.321 1.026,-0.48 3.294,-1.517 6.622,-2.965 9.982,-4.331 3.17,-1.289 6.37,-2.509 9.614,-3.599 2.357,-0.792 4.74,-1.52 7.16,-2.095 0.924,-0.22 1.95,-0.415 2.894,-0.525 1.971,-0.23 3.961,0.004 3.961,0.004 z"
           style="fill-rule:nonzero"
           id="path1091" />
        <path
           d="m 232.936,28.876 c 0.392,0.696 -4.254,0.989 -5.076,1.151 -0.454,0.09 -1.896,0.419 -2.835,0.664 -2.426,0.635 -4.817,1.402 -7.184,2.228 -3.175,1.108 -6.309,2.329 -9.415,3.614 -3.067,1.269 -6.107,2.601 -9.117,3.999 l -0.257,0.12 0.103,0.863 c 1.193,-0.307 2.385,-0.617 3.577,-0.927 5.183,-1.357 10.362,-2.733 15.511,-4.212 l 0.276,0.961 c -3.226,0.927 -6.463,1.812 -9.706,2.679 -3.143,0.841 -6.291,1.665 -9.442,2.476 l -0.52,0.134 c -0.068,0.011 -0.085,0.019 -0.154,0.014 -0.183,-0.01 -0.349,-0.124 -0.425,-0.291 -0.029,-0.063 -0.029,-0.081 -0.042,-0.148 l -0.214,-1.788 c -0.002,-0.069 -0.007,-0.087 0.006,-0.155 0.02,-0.103 0.073,-0.197 0.149,-0.269 0.051,-0.047 0.069,-0.053 0.128,-0.087 0.342,-0.161 0.683,-0.321 1.026,-0.48 3.294,-1.517 6.622,-2.965 9.982,-4.331 3.17,-1.289 6.37,-2.509 9.614,-3.599 2.357,-0.792 4.74,-1.52 7.16,-2.095 0.924,-0.22 1.95,-0.415 2.894,-0.525 1.971,-0.23 3.961,0.004 3.961,0.004 z"
           style="fill-rule:nonzero"
           id="path1093" />
        <path
           d="m 227.651,42.528 c 1.034,0.018 2.059,0.203 3.039,0.533 0.573,0.193 1.133,0.435 1.663,0.728 0.538,0.298 1.053,0.64 1.533,1.026 0.24,0.193 0.586,0.539 0.811,0.749 l -0.165,0.103 c -0.12,-0.085 -0.347,-0.224 -0.469,-0.307 -0.127,-0.086 -0.256,-0.17 -0.387,-0.251 -1.039,-0.649 -2.195,-1.114 -3.391,-1.381 -0.363,-0.081 -0.731,-0.146 -1.1,-0.192 -0.449,-0.057 -0.9,-0.088 -1.352,-0.104 -0.458,-0.016 -0.917,-0.014 -1.374,0.012 -1.067,0.059 -2.129,0.237 -3.159,0.52 -0.774,0.212 -1.528,0.488 -2.264,0.805 l -0.121,0.052 -0.111,-0.228 c 0.458,-0.275 0.922,-0.531 1.404,-0.761 0.375,-0.179 0.757,-0.345 1.145,-0.493 0.193,-0.074 0.387,-0.147 0.584,-0.21 0.319,-0.102 0.64,-0.199 0.966,-0.276 0.332,-0.079 0.666,-0.146 1.002,-0.2 0.492,-0.078 0.991,-0.115 1.488,-0.125 0.086,-10e-4 0.172,0 0.258,0 z"
           style="fill:#d79e00;fill-rule:nonzero"
           id="path1095" />
        <path
           d="m 267.781,18.748 c 1.78,0.003 3.559,0.137 5.319,0.402 1.477,0.222 2.939,0.536 4.386,0.905 0.412,0.105 0.822,0.214 1.232,0.327 0.335,0.092 0.67,0.185 1.002,0.286 -0.512,-0.077 -1.022,-0.168 -1.534,-0.248 -1.548,-0.237 -3.104,-0.428 -4.669,-0.514 -0.818,-0.045 -1.637,-0.06 -2.457,-0.05 -0.763,0.009 -1.526,0.054 -2.286,0.12 -1.09,0.094 -2.175,0.243 -3.252,0.434 -0.586,0.104 -13.341,3.485 -13.777,3.618 -0.682,0.207 -1.361,0.422 -2.041,0.635 -0.569,0.179 -1.139,0.356 -1.707,0.538 -0.972,0.311 -1.94,0.631 -2.908,0.953 -0.595,0.199 -1.192,0.396 -1.787,0.597 -1.101,0.371 -2.199,0.751 -3.297,1.133 -1.776,0.619 -3.551,1.244 -5.32,1.883 l -0.462,0.165 -0.465,0.17 c -0.079,0.134 -0.16,0.267 -0.242,0.399 -0.196,0.308 -0.398,0.611 -0.611,0.907 -0.418,0.58 -0.872,1.134 -1.359,1.658 -0.588,0.635 -1.224,1.226 -1.901,1.765 -0.522,0.417 -1.068,0.803 -1.636,1.154 -0.467,0.289 -0.949,0.557 -1.445,0.793 -0.41,0.196 -0.827,0.375 -1.253,0.532 -0.33,0.121 -0.664,0.23 -1.002,0.325 -0.282,0.079 -0.566,0.149 -0.852,0.207 -1.665,0.34 -3.467,0.324 -5.039,-0.381 -0.296,-0.132 -0.577,-0.29 -0.848,-0.467 0.071,0.039 0.141,0.077 0.212,0.115 0.324,0.162 0.658,0.299 1.005,0.403 1.622,0.487 3.379,0.304 4.972,-0.205 0.271,-0.086 0.54,-0.183 0.804,-0.288 0.317,-0.126 0.629,-0.266 0.936,-0.416 0.405,-0.199 0.801,-0.419 1.187,-0.655 0.441,-0.27 0.869,-0.563 1.281,-0.877 0.552,-0.42 1.076,-0.876 1.569,-1.363 0.586,-0.578 1.128,-1.201 1.62,-1.86 0.402,-0.539 0.771,-1.103 1.103,-1.688 0.168,-0.298 0.324,-0.602 0.477,-0.907 l 0.048,-0.079 c 0.052,-0.063 0.062,-0.082 0.127,-0.134 0.065,-0.051 0.086,-0.057 0.159,-0.093 0,0 0.435,-0.186 0.652,-0.279 0.636,-0.274 1.272,-0.549 1.909,-0.821 1.25,-0.532 2.501,-1.065 3.758,-1.582 0.9,-0.371 1.8,-0.737 2.703,-1.098 0.769,-0.309 1.539,-0.617 2.312,-0.916 1.122,-0.433 2.248,-0.856 3.377,-1.27 0.404,-0.149 0.808,-0.297 1.214,-0.44 0.828,-0.294 1.662,-0.575 2.496,-0.852 0.478,-0.158 13.231,-2.838 13.847,-2.873 0.581,-0.033 1.162,-0.053 1.744,-0.064 0.233,-0.002 0.466,-0.004 0.699,-0.004 z"
           style="fill:#d79e00;fill-rule:nonzero"
           id="path1097" />
        <path
           d="m 266.449,19.31 c 0.709,3.214 -2.34,6.722 -6.736,7.691 -4.395,0.969 -8.539,-0.854 -9.248,-4.069 0.496,-3.215 3.431,-5.125 6.847,-5.802 3.095,-0.614 6.621,-0.794 9.137,2.18 z"
           style="fill:#aaaaaa"
           id="path1099" />
        <path
           d="m 265.046,19.718 c 0.589,2.67 -2.009,4.993 -5.661,5.798 -3.652,0.805 -6.984,-0.21 -7.573,-2.881 -0.588,-2.671 1.389,-5.714 5.042,-6.519 3.652,-0.805 7.604,0.931 8.192,3.602 z"
           style="fill:#f5d200"
           id="path1101" />
      </g>
      <g
         id="snout">
        <path
           d="m 234.967,42.396 c 2.764,-4.253 8.761,-4.06 18.176,0.832 3.047,9.604 -4.024,9.242 -9.28,13.888 z"
           style="fill:#56606b"
           id="path1104" />
        <path
           d="m 242.496,57.519 c -1.207,-3.352 -2.893,-6.521 -4.913,-9.453 -1.119,-1.624 -2.342,-3.173 -3.64,-4.658 l -0.227,-0.376 c -0.027,-0.144 -0.08,-0.286 -0.082,-0.432 -0.002,-0.147 0.023,-0.296 0.072,-0.434 0.079,-0.221 0.166,-0.321 0.293,-0.471 0.152,-0.181 0.309,-0.358 0.47,-0.531 0.816,-0.877 1.754,-1.65 2.814,-2.214 0.582,-0.31 1.197,-0.555 1.834,-0.723 0.433,-0.115 0.875,-0.195 1.32,-0.239 0.319,-0.032 0.639,-0.046 0.96,-0.042 2.04,0.019 4.007,0.721 5.805,1.642 0.293,0.15 0.583,0.307 0.871,0.469 0.376,0.212 0.747,0.432 1.114,0.659 0.442,0.273 0.879,0.556 1.313,0.842 0.631,0.418 1.257,0.845 1.887,1.265 l 0.032,0.021 c 0.951,0.603 6.117,1.629 1.849,2.576 0,0 -3.661,1.412 -3.216,0.98 1.101,-1.068 -0.522,-1.829 -1.931,-2.756 -0.413,-0.272 -0.827,-0.541 -1.248,-0.801 -0.381,-0.235 -0.766,-0.464 -1.158,-0.681 -0.301,-0.168 -0.606,-0.329 -0.916,-0.481 -0.217,-0.108 -0.437,-0.211 -0.659,-0.308 -1.485,-0.655 -3.134,-1.107 -4.765,-0.858 -0.251,0.038 -0.498,0.092 -0.741,0.162 -0.408,0.118 -0.802,0.28 -1.176,0.479 -0.68,0.362 -1.287,0.843 -1.837,1.379 l -0.064,0.064 -0.006,0.007 c 0.215,0.255 0.427,0.512 0.638,0.771 1.227,1.516 2.378,3.093 3.426,4.739 1.874,2.945 3.424,6.102 4.531,9.414 l 0.026,0.079 c 0.479,2.186 0.175,12.285 -2.676,-0.09 z"
           id="path1106" />
      </g>
      <g
         id="exaust">
        <path
           d="m 122.061,42.168 c 53.834,-25.301 54.332,14.346 89,1.25"
           style="fill:none;stroke:#ca3b00;stroke-width:3.06px;stroke-dasharray:4.6, 16.85, 0, 0"
           id="path1109" />
      </g>
    </g>
  </g>
</svg>
