<svg style="clip-rule:evenodd;fill-rule:evenodd;stroke-linecap:round;stroke-linejoin:round;stroke-miterlimit:1.5" version="1.1" viewBox="0 0 330.44 45.181" xml:space="preserve" xmlns="http://www.w3.org/2000/svg"><g transform="translate(0 -189.83)"><path d="m129.02 191.89c2.3916.34804 13.504 11.565 20.912 18.409 4.044-2.902 21.382-16.661 24.748-18.246 3.9266-3.5083 10.806 11.071 19.666 17.111 14.739-5.825 22.606-19.376 27.445-19.333 7.098.063 21.314 22.8 22.889 21.556 10.664-10.177 17-21.228 21-21.445 4.107-.223 10.102 11.219 20.333 22.667 9.401-6.677 19.728-22.511 24.111-22.556 2.648-.027 20.319 22.556 20.319 22.556v22.403h-330.44v-38.54c4.8574 4.3463 9.423 8.9844 14.741 12.87 4.742-1.5027 10.476-2.8437 25.612-18.323 6.9499-.95434 16.826 13.366 24.075 20.031 9.2789-4.9685 13.428-13.601 19.459-20.89 7.8825-.44951 13.468 13.223 23.305 21.783 3.3316.21459 19.435-20.401 21.826-20.053z" style="fill:#222837"/></g></svg>
